M48
; DRILL file {KiCad (5.1.10)-1} date 10/18/21 20:41:04
; FORMAT={-:-/ absolute / metric / decimal}
; #@! TF.CreationDate,2021-10-18T20:41:04-05:00
; #@! TF.GenerationSoftware,Kicad,Pcbnew,(5.1.10)-1
; #@! TF.FileFunction,Plated,1,2,PTH
FMAT,2
METRIC
T1C0.300
T2C0.800
T3C1.000
%
G90
G05
T1
X109.513Y-111.368
X111.437Y-88.867
X112.217Y-111.963
X114.2Y-89.359
X116.118Y-114.768
X116.341Y-81.286
X116.684Y-115.472
X117.17Y-116.205
X117.551Y-117.119
X118.394Y-92.35
X119.304Y-93.066
X120.117Y-93.777
X120.846Y-94.481
X121.525Y-111.368
X123.663Y-88.838
X124.5Y-111.949
X125.04Y-80.564
X125.362Y-88.354
X126.448Y-88.867
X128.388Y-114.85
X129.057Y-115.545
X129.2Y-89.449
X129.642Y-116.256
X130.295Y-116.96
X133.405Y-92.35
X133.923Y-111.368
X134.645Y-93.04
X135.712Y-93.777
X135.763Y-88.341
X136.574Y-89.676
X136.576Y-86.36
X136.608Y-94.481
X137.0Y-111.945
X138.136Y-92.757
X138.14Y-88.314
X138.864Y-89.695
X139.607Y-86.59
X140.903Y-114.85
X140.926Y-88.867
X140.982Y-95.182
X141.443Y-115.554
X142.138Y-116.281
X142.73Y-116.985
X143.7Y-83.997
X144.221Y-89.23
X149.128Y-92.35
X149.999Y-93.054
X150.869Y-93.758
X151.918Y-94.462
X153.808Y-111.368
X156.192Y-88.867
X157.0Y-111.966
X159.2Y-89.415
X161.129Y-114.85
X161.9Y-115.57
X162.611Y-116.281
X163.17Y-94.742
X163.188Y-116.985
X163.474Y-114.122
X163.479Y-92.35
X164.172Y-93.054
X164.821Y-117.069
X164.922Y-93.802
T2
X105.435Y-86.792
X106.705Y-84.252
X107.975Y-86.792
X109.245Y-84.252
X110.295Y-127.27
X111.565Y-124.73
X112.495Y-104.77
X112.835Y-127.27
X113.765Y-102.23
X114.105Y-124.73
X115.035Y-104.77
X116.305Y-102.23
X122.795Y-127.27
X124.065Y-124.73
X125.335Y-127.27
X126.605Y-124.73
X127.495Y-104.77
X128.765Y-102.23
X130.035Y-104.77
X131.305Y-102.23
X135.295Y-127.27
X136.565Y-124.73
X137.835Y-127.27
X139.105Y-124.73
X142.495Y-104.77
X143.765Y-102.23
X145.035Y-104.77
X146.305Y-102.23
X152.248Y-127.27
X153.518Y-124.73
X154.788Y-127.27
X156.058Y-124.73
X157.495Y-104.77
X158.765Y-102.23
X160.035Y-104.77
X161.305Y-102.23
T3
X110.134Y-75.895
X110.134Y-78.435
X112.674Y-75.895
X112.674Y-78.435
X115.214Y-75.895
X115.214Y-78.435
X116.5Y-120.0
X116.815Y-111.506
X117.754Y-75.895
X117.754Y-78.435
X118.7Y-89.0
X118.7Y-97.5
X120.294Y-75.895
X120.294Y-78.435
X122.834Y-75.895
X122.834Y-78.435
X123.266Y-83.337
X125.374Y-75.895
X125.374Y-78.435
X127.914Y-75.895
X127.914Y-78.435
X129.0Y-111.5
X129.0Y-120.0
X129.769Y-83.261
X130.454Y-75.895
X130.454Y-78.435
X132.994Y-75.895
X132.994Y-78.435
X133.7Y-89.0
X133.7Y-97.5
X135.534Y-75.895
X135.534Y-78.435
X135.738Y-83.236
X138.074Y-75.895
X138.074Y-78.435
X140.614Y-75.895
X140.614Y-78.435
X141.5Y-111.5
X141.5Y-120.0
X142.113Y-83.49
X143.154Y-75.895
X143.154Y-78.435
X145.694Y-75.895
X145.694Y-78.435
X148.107Y-83.337
X148.234Y-75.895
X148.234Y-78.435
X148.7Y-89.0
X148.7Y-97.5
X150.774Y-75.895
X150.774Y-78.435
X153.314Y-75.895
X153.314Y-78.435
X155.854Y-75.895
X155.854Y-78.435
X158.394Y-75.895
X158.394Y-78.435
X161.5Y-111.5
X161.5Y-120.0
X163.7Y-89.0
X163.7Y-97.5
T0
M30
