%TF.GenerationSoftware,KiCad,Pcbnew,(5.1.10)-1*%
%TF.CreationDate,2021-10-18T20:40:58-05:00*%
%TF.ProjectId,Pt100Hat,50743130-3048-4617-942e-6b696361645f,1*%
%TF.SameCoordinates,Original*%
%TF.FileFunction,Copper,L1,Top*%
%TF.FilePolarity,Positive*%
%FSLAX46Y46*%
G04 Gerber Fmt 4.6, Leading zero omitted, Abs format (unit mm)*
G04 Created by KiCad (PCBNEW (5.1.10)-1) date 2021-10-18 20:40:58*
%MOMM*%
%LPD*%
G01*
G04 APERTURE LIST*
%TA.AperFunction,Profile*%
%ADD10C,0.100000*%
%TD*%
%TA.AperFunction,SMDPad,CuDef*%
%ADD11R,3.350000X3.350000*%
%TD*%
%TA.AperFunction,ComponentPad*%
%ADD12C,1.524000*%
%TD*%
%TA.AperFunction,ComponentPad*%
%ADD13R,1.700000X1.700000*%
%TD*%
%TA.AperFunction,ComponentPad*%
%ADD14O,1.700000X1.700000*%
%TD*%
%TA.AperFunction,ComponentPad*%
%ADD15C,2.000000*%
%TD*%
%TA.AperFunction,ViaPad*%
%ADD16C,0.600000*%
%TD*%
%TA.AperFunction,Conductor*%
%ADD17C,0.300000*%
%TD*%
%TA.AperFunction,Conductor*%
%ADD18C,0.508000*%
%TD*%
G04 APERTURE END LIST*
D10*
X104800400Y-129997200D02*
X163982400Y-129997200D01*
X163728400Y-73101200D02*
X104800400Y-73101200D01*
X166776400Y-76149200D02*
G75*
G03*
X163728400Y-73101200I-3048000J0D01*
G01*
X101752400Y-111455200D02*
X101752400Y-126949200D01*
X102768400Y-110439200D02*
X105816400Y-110439200D01*
X106832400Y-94437200D02*
X106832400Y-109423200D01*
X102768400Y-93421200D02*
X105816400Y-93421200D01*
X101752400Y-76149200D02*
X101752400Y-92405200D01*
X104800400Y-73101200D02*
G75*
G03*
X101752400Y-76149200I0J-3048000D01*
G01*
X166776400Y-126695200D02*
X166776400Y-76149200D01*
X106832400Y-94437200D02*
G75*
G03*
X105816400Y-93421200I-1016000J0D01*
G01*
X105816400Y-110439200D02*
G75*
G03*
X106832400Y-109423200I0J1016000D01*
G01*
X102768400Y-110439200D02*
G75*
G03*
X101752400Y-111455200I0J-1016000D01*
G01*
X101752400Y-92405200D02*
G75*
G03*
X102768400Y-93421200I1016000J0D01*
G01*
X101752400Y-126949200D02*
G75*
G03*
X104800400Y-129997200I3048000J0D01*
G01*
X163982400Y-129997200D02*
G75*
G03*
X166776400Y-126695200I-254000J3048000D01*
G01*
D11*
%TO.P,U1,21*%
%TO.N,GND*%
X112217000Y-115418000D03*
%TO.P,U1,20*%
%TO.N,+3V3*%
%TA.AperFunction,SMDPad,CuDef*%
G36*
G01*
X110767000Y-113293000D02*
X110767000Y-112643000D01*
G75*
G02*
X110842000Y-112568000I75000J0D01*
G01*
X110992000Y-112568000D01*
G75*
G02*
X111067000Y-112643000I0J-75000D01*
G01*
X111067000Y-113293000D01*
G75*
G02*
X110992000Y-113368000I-75000J0D01*
G01*
X110842000Y-113368000D01*
G75*
G02*
X110767000Y-113293000I0J75000D01*
G01*
G37*
%TD.AperFunction*%
%TO.P,U1,19*%
%TA.AperFunction,SMDPad,CuDef*%
G36*
G01*
X111417000Y-113293000D02*
X111417000Y-112643000D01*
G75*
G02*
X111492000Y-112568000I75000J0D01*
G01*
X111642000Y-112568000D01*
G75*
G02*
X111717000Y-112643000I0J-75000D01*
G01*
X111717000Y-113293000D01*
G75*
G02*
X111642000Y-113368000I-75000J0D01*
G01*
X111492000Y-113368000D01*
G75*
G02*
X111417000Y-113293000I0J75000D01*
G01*
G37*
%TD.AperFunction*%
%TO.P,U1,18*%
%TO.N,/DRDY7*%
%TA.AperFunction,SMDPad,CuDef*%
G36*
G01*
X112067000Y-113293000D02*
X112067000Y-112643000D01*
G75*
G02*
X112142000Y-112568000I75000J0D01*
G01*
X112292000Y-112568000D01*
G75*
G02*
X112367000Y-112643000I0J-75000D01*
G01*
X112367000Y-113293000D01*
G75*
G02*
X112292000Y-113368000I-75000J0D01*
G01*
X112142000Y-113368000D01*
G75*
G02*
X112067000Y-113293000I0J75000D01*
G01*
G37*
%TD.AperFunction*%
%TO.P,U1,17*%
%TO.N,Net-(U1-Pad17)*%
%TA.AperFunction,SMDPad,CuDef*%
G36*
G01*
X112717000Y-113293000D02*
X112717000Y-112643000D01*
G75*
G02*
X112792000Y-112568000I75000J0D01*
G01*
X112942000Y-112568000D01*
G75*
G02*
X113017000Y-112643000I0J-75000D01*
G01*
X113017000Y-113293000D01*
G75*
G02*
X112942000Y-113368000I-75000J0D01*
G01*
X112792000Y-113368000D01*
G75*
G02*
X112717000Y-113293000I0J75000D01*
G01*
G37*
%TD.AperFunction*%
%TO.P,U1,16*%
%TO.N,GND*%
%TA.AperFunction,SMDPad,CuDef*%
G36*
G01*
X113367000Y-113293000D02*
X113367000Y-112643000D01*
G75*
G02*
X113442000Y-112568000I75000J0D01*
G01*
X113592000Y-112568000D01*
G75*
G02*
X113667000Y-112643000I0J-75000D01*
G01*
X113667000Y-113293000D01*
G75*
G02*
X113592000Y-113368000I-75000J0D01*
G01*
X113442000Y-113368000D01*
G75*
G02*
X113367000Y-113293000I0J75000D01*
G01*
G37*
%TD.AperFunction*%
%TO.P,U1,15*%
%TA.AperFunction,SMDPad,CuDef*%
G36*
G01*
X114267000Y-114193000D02*
X114267000Y-114043000D01*
G75*
G02*
X114342000Y-113968000I75000J0D01*
G01*
X114992000Y-113968000D01*
G75*
G02*
X115067000Y-114043000I0J-75000D01*
G01*
X115067000Y-114193000D01*
G75*
G02*
X114992000Y-114268000I-75000J0D01*
G01*
X114342000Y-114268000D01*
G75*
G02*
X114267000Y-114193000I0J75000D01*
G01*
G37*
%TD.AperFunction*%
%TO.P,U1,14*%
%TO.N,/MISO*%
%TA.AperFunction,SMDPad,CuDef*%
G36*
G01*
X114267000Y-114843000D02*
X114267000Y-114693000D01*
G75*
G02*
X114342000Y-114618000I75000J0D01*
G01*
X114992000Y-114618000D01*
G75*
G02*
X115067000Y-114693000I0J-75000D01*
G01*
X115067000Y-114843000D01*
G75*
G02*
X114992000Y-114918000I-75000J0D01*
G01*
X114342000Y-114918000D01*
G75*
G02*
X114267000Y-114843000I0J75000D01*
G01*
G37*
%TD.AperFunction*%
%TO.P,U1,13*%
%TO.N,/CS7*%
%TA.AperFunction,SMDPad,CuDef*%
G36*
G01*
X114267000Y-115493000D02*
X114267000Y-115343000D01*
G75*
G02*
X114342000Y-115268000I75000J0D01*
G01*
X114992000Y-115268000D01*
G75*
G02*
X115067000Y-115343000I0J-75000D01*
G01*
X115067000Y-115493000D01*
G75*
G02*
X114992000Y-115568000I-75000J0D01*
G01*
X114342000Y-115568000D01*
G75*
G02*
X114267000Y-115493000I0J75000D01*
G01*
G37*
%TD.AperFunction*%
%TO.P,U1,12*%
%TO.N,/SCLK*%
%TA.AperFunction,SMDPad,CuDef*%
G36*
G01*
X114267000Y-116143000D02*
X114267000Y-115993000D01*
G75*
G02*
X114342000Y-115918000I75000J0D01*
G01*
X114992000Y-115918000D01*
G75*
G02*
X115067000Y-115993000I0J-75000D01*
G01*
X115067000Y-116143000D01*
G75*
G02*
X114992000Y-116218000I-75000J0D01*
G01*
X114342000Y-116218000D01*
G75*
G02*
X114267000Y-116143000I0J75000D01*
G01*
G37*
%TD.AperFunction*%
%TO.P,U1,11*%
%TO.N,/MOSI*%
%TA.AperFunction,SMDPad,CuDef*%
G36*
G01*
X114267000Y-116793000D02*
X114267000Y-116643000D01*
G75*
G02*
X114342000Y-116568000I75000J0D01*
G01*
X114992000Y-116568000D01*
G75*
G02*
X115067000Y-116643000I0J-75000D01*
G01*
X115067000Y-116793000D01*
G75*
G02*
X114992000Y-116868000I-75000J0D01*
G01*
X114342000Y-116868000D01*
G75*
G02*
X114267000Y-116793000I0J75000D01*
G01*
G37*
%TD.AperFunction*%
%TO.P,U1,10*%
%TO.N,GND*%
%TA.AperFunction,SMDPad,CuDef*%
G36*
G01*
X113367000Y-118193000D02*
X113367000Y-117543000D01*
G75*
G02*
X113442000Y-117468000I75000J0D01*
G01*
X113592000Y-117468000D01*
G75*
G02*
X113667000Y-117543000I0J-75000D01*
G01*
X113667000Y-118193000D01*
G75*
G02*
X113592000Y-118268000I-75000J0D01*
G01*
X113442000Y-118268000D01*
G75*
G02*
X113367000Y-118193000I0J75000D01*
G01*
G37*
%TD.AperFunction*%
%TO.P,U1,9*%
%TO.N,Net-(J3-Pad4)*%
%TA.AperFunction,SMDPad,CuDef*%
G36*
G01*
X112717000Y-118193000D02*
X112717000Y-117543000D01*
G75*
G02*
X112792000Y-117468000I75000J0D01*
G01*
X112942000Y-117468000D01*
G75*
G02*
X113017000Y-117543000I0J-75000D01*
G01*
X113017000Y-118193000D01*
G75*
G02*
X112942000Y-118268000I-75000J0D01*
G01*
X112792000Y-118268000D01*
G75*
G02*
X112717000Y-118193000I0J75000D01*
G01*
G37*
%TD.AperFunction*%
%TO.P,U1,8*%
%TO.N,Net-(C3-Pad1)*%
%TA.AperFunction,SMDPad,CuDef*%
G36*
G01*
X112067000Y-118193000D02*
X112067000Y-117543000D01*
G75*
G02*
X112142000Y-117468000I75000J0D01*
G01*
X112292000Y-117468000D01*
G75*
G02*
X112367000Y-117543000I0J-75000D01*
G01*
X112367000Y-118193000D01*
G75*
G02*
X112292000Y-118268000I-75000J0D01*
G01*
X112142000Y-118268000D01*
G75*
G02*
X112067000Y-118193000I0J75000D01*
G01*
G37*
%TD.AperFunction*%
%TO.P,U1,7*%
%TO.N,Net-(C3-Pad2)*%
%TA.AperFunction,SMDPad,CuDef*%
G36*
G01*
X111417000Y-118193000D02*
X111417000Y-117543000D01*
G75*
G02*
X111492000Y-117468000I75000J0D01*
G01*
X111642000Y-117468000D01*
G75*
G02*
X111717000Y-117543000I0J-75000D01*
G01*
X111717000Y-118193000D01*
G75*
G02*
X111642000Y-118268000I-75000J0D01*
G01*
X111492000Y-118268000D01*
G75*
G02*
X111417000Y-118193000I0J75000D01*
G01*
G37*
%TD.AperFunction*%
%TO.P,U1,6*%
%TO.N,GND*%
%TA.AperFunction,SMDPad,CuDef*%
G36*
G01*
X110767000Y-118193000D02*
X110767000Y-117543000D01*
G75*
G02*
X110842000Y-117468000I75000J0D01*
G01*
X110992000Y-117468000D01*
G75*
G02*
X111067000Y-117543000I0J-75000D01*
G01*
X111067000Y-118193000D01*
G75*
G02*
X110992000Y-118268000I-75000J0D01*
G01*
X110842000Y-118268000D01*
G75*
G02*
X110767000Y-118193000I0J75000D01*
G01*
G37*
%TD.AperFunction*%
%TO.P,U1,5*%
%TO.N,Net-(J3-Pad1)*%
%TA.AperFunction,SMDPad,CuDef*%
G36*
G01*
X109367000Y-116793000D02*
X109367000Y-116643000D01*
G75*
G02*
X109442000Y-116568000I75000J0D01*
G01*
X110092000Y-116568000D01*
G75*
G02*
X110167000Y-116643000I0J-75000D01*
G01*
X110167000Y-116793000D01*
G75*
G02*
X110092000Y-116868000I-75000J0D01*
G01*
X109442000Y-116868000D01*
G75*
G02*
X109367000Y-116793000I0J75000D01*
G01*
G37*
%TD.AperFunction*%
%TO.P,U1,4*%
%TO.N,Net-(R1-Pad2)*%
%TA.AperFunction,SMDPad,CuDef*%
G36*
G01*
X109367000Y-116143000D02*
X109367000Y-115993000D01*
G75*
G02*
X109442000Y-115918000I75000J0D01*
G01*
X110092000Y-115918000D01*
G75*
G02*
X110167000Y-115993000I0J-75000D01*
G01*
X110167000Y-116143000D01*
G75*
G02*
X110092000Y-116218000I-75000J0D01*
G01*
X109442000Y-116218000D01*
G75*
G02*
X109367000Y-116143000I0J75000D01*
G01*
G37*
%TD.AperFunction*%
%TO.P,U1,3*%
%TA.AperFunction,SMDPad,CuDef*%
G36*
G01*
X109367000Y-115493000D02*
X109367000Y-115343000D01*
G75*
G02*
X109442000Y-115268000I75000J0D01*
G01*
X110092000Y-115268000D01*
G75*
G02*
X110167000Y-115343000I0J-75000D01*
G01*
X110167000Y-115493000D01*
G75*
G02*
X110092000Y-115568000I-75000J0D01*
G01*
X109442000Y-115568000D01*
G75*
G02*
X109367000Y-115493000I0J75000D01*
G01*
G37*
%TD.AperFunction*%
%TO.P,U1,2*%
%TO.N,Net-(R1-Pad1)*%
%TA.AperFunction,SMDPad,CuDef*%
G36*
G01*
X109367000Y-114843000D02*
X109367000Y-114693000D01*
G75*
G02*
X109442000Y-114618000I75000J0D01*
G01*
X110092000Y-114618000D01*
G75*
G02*
X110167000Y-114693000I0J-75000D01*
G01*
X110167000Y-114843000D01*
G75*
G02*
X110092000Y-114918000I-75000J0D01*
G01*
X109442000Y-114918000D01*
G75*
G02*
X109367000Y-114843000I0J75000D01*
G01*
G37*
%TD.AperFunction*%
%TO.P,U1,1*%
%TA.AperFunction,SMDPad,CuDef*%
G36*
G01*
X109367000Y-114193000D02*
X109367000Y-114043000D01*
G75*
G02*
X109442000Y-113968000I75000J0D01*
G01*
X110092000Y-113968000D01*
G75*
G02*
X110167000Y-114043000I0J-75000D01*
G01*
X110167000Y-114193000D01*
G75*
G02*
X110092000Y-114268000I-75000J0D01*
G01*
X109442000Y-114268000D01*
G75*
G02*
X109367000Y-114193000I0J75000D01*
G01*
G37*
%TD.AperFunction*%
%TD*%
D12*
%TO.P,J4,1*%
%TO.N,Net-(J4-Pad1)*%
X112495000Y-104770000D03*
%TO.P,J4,2*%
%TO.N,Net-(C11-Pad2)*%
X113765000Y-102230000D03*
%TO.P,J4,3*%
%TO.N,Net-(C11-Pad1)*%
X115035000Y-104770000D03*
%TO.P,J4,4*%
%TO.N,Net-(J4-Pad4)*%
X116305000Y-102230000D03*
%TD*%
%TO.P,C1,2*%
%TO.N,GND*%
%TA.AperFunction,SMDPad,CuDef*%
G36*
G01*
X113200000Y-110955000D02*
X113200000Y-110645000D01*
G75*
G02*
X113355000Y-110490000I155000J0D01*
G01*
X113780000Y-110490000D01*
G75*
G02*
X113935000Y-110645000I0J-155000D01*
G01*
X113935000Y-110955000D01*
G75*
G02*
X113780000Y-111110000I-155000J0D01*
G01*
X113355000Y-111110000D01*
G75*
G02*
X113200000Y-110955000I0J155000D01*
G01*
G37*
%TD.AperFunction*%
%TO.P,C1,1*%
%TO.N,+3V3*%
%TA.AperFunction,SMDPad,CuDef*%
G36*
G01*
X112065000Y-110955000D02*
X112065000Y-110645000D01*
G75*
G02*
X112220000Y-110490000I155000J0D01*
G01*
X112645000Y-110490000D01*
G75*
G02*
X112800000Y-110645000I0J-155000D01*
G01*
X112800000Y-110955000D01*
G75*
G02*
X112645000Y-111110000I-155000J0D01*
G01*
X112220000Y-111110000D01*
G75*
G02*
X112065000Y-110955000I0J155000D01*
G01*
G37*
%TD.AperFunction*%
%TD*%
%TO.P,C2,2*%
%TO.N,+3V3*%
%TA.AperFunction,SMDPad,CuDef*%
G36*
G01*
X110765000Y-111000000D02*
X111075000Y-111000000D01*
G75*
G02*
X111230000Y-111155000I0J-155000D01*
G01*
X111230000Y-111580000D01*
G75*
G02*
X111075000Y-111735000I-155000J0D01*
G01*
X110765000Y-111735000D01*
G75*
G02*
X110610000Y-111580000I0J155000D01*
G01*
X110610000Y-111155000D01*
G75*
G02*
X110765000Y-111000000I155000J0D01*
G01*
G37*
%TD.AperFunction*%
%TO.P,C2,1*%
%TO.N,GND*%
%TA.AperFunction,SMDPad,CuDef*%
G36*
G01*
X110765000Y-109865000D02*
X111075000Y-109865000D01*
G75*
G02*
X111230000Y-110020000I0J-155000D01*
G01*
X111230000Y-110445000D01*
G75*
G02*
X111075000Y-110600000I-155000J0D01*
G01*
X110765000Y-110600000D01*
G75*
G02*
X110610000Y-110445000I0J155000D01*
G01*
X110610000Y-110020000D01*
G75*
G02*
X110765000Y-109865000I155000J0D01*
G01*
G37*
%TD.AperFunction*%
%TD*%
%TO.P,C3,1*%
%TO.N,Net-(C3-Pad1)*%
%TA.AperFunction,SMDPad,CuDef*%
G36*
G01*
X114250000Y-119849999D02*
X114250000Y-121150001D01*
G75*
G02*
X114000001Y-121400000I-249999J0D01*
G01*
X113349999Y-121400000D01*
G75*
G02*
X113100000Y-121150001I0J249999D01*
G01*
X113100000Y-119849999D01*
G75*
G02*
X113349999Y-119600000I249999J0D01*
G01*
X114000001Y-119600000D01*
G75*
G02*
X114250000Y-119849999I0J-249999D01*
G01*
G37*
%TD.AperFunction*%
%TO.P,C3,2*%
%TO.N,Net-(C3-Pad2)*%
%TA.AperFunction,SMDPad,CuDef*%
G36*
G01*
X111300000Y-119849999D02*
X111300000Y-121150001D01*
G75*
G02*
X111050001Y-121400000I-249999J0D01*
G01*
X110399999Y-121400000D01*
G75*
G02*
X110150000Y-121150001I0J249999D01*
G01*
X110150000Y-119849999D01*
G75*
G02*
X110399999Y-119600000I249999J0D01*
G01*
X111050001Y-119600000D01*
G75*
G02*
X111300000Y-119849999I0J-249999D01*
G01*
G37*
%TD.AperFunction*%
%TD*%
%TO.P,C4,2*%
%TO.N,GND*%
%TA.AperFunction,SMDPad,CuDef*%
G36*
G01*
X125431000Y-110955000D02*
X125431000Y-110645000D01*
G75*
G02*
X125586000Y-110490000I155000J0D01*
G01*
X126011000Y-110490000D01*
G75*
G02*
X126166000Y-110645000I0J-155000D01*
G01*
X126166000Y-110955000D01*
G75*
G02*
X126011000Y-111110000I-155000J0D01*
G01*
X125586000Y-111110000D01*
G75*
G02*
X125431000Y-110955000I0J155000D01*
G01*
G37*
%TD.AperFunction*%
%TO.P,C4,1*%
%TO.N,+3V3*%
%TA.AperFunction,SMDPad,CuDef*%
G36*
G01*
X124296000Y-110955000D02*
X124296000Y-110645000D01*
G75*
G02*
X124451000Y-110490000I155000J0D01*
G01*
X124876000Y-110490000D01*
G75*
G02*
X125031000Y-110645000I0J-155000D01*
G01*
X125031000Y-110955000D01*
G75*
G02*
X124876000Y-111110000I-155000J0D01*
G01*
X124451000Y-111110000D01*
G75*
G02*
X124296000Y-110955000I0J155000D01*
G01*
G37*
%TD.AperFunction*%
%TD*%
%TO.P,C5,1*%
%TO.N,+3V3*%
%TA.AperFunction,SMDPad,CuDef*%
G36*
G01*
X114009000Y-88455000D02*
X114009000Y-88145000D01*
G75*
G02*
X114164000Y-87990000I155000J0D01*
G01*
X114589000Y-87990000D01*
G75*
G02*
X114744000Y-88145000I0J-155000D01*
G01*
X114744000Y-88455000D01*
G75*
G02*
X114589000Y-88610000I-155000J0D01*
G01*
X114164000Y-88610000D01*
G75*
G02*
X114009000Y-88455000I0J155000D01*
G01*
G37*
%TD.AperFunction*%
%TO.P,C5,2*%
%TO.N,GND*%
%TA.AperFunction,SMDPad,CuDef*%
G36*
G01*
X115144000Y-88455000D02*
X115144000Y-88145000D01*
G75*
G02*
X115299000Y-87990000I155000J0D01*
G01*
X115724000Y-87990000D01*
G75*
G02*
X115879000Y-88145000I0J-155000D01*
G01*
X115879000Y-88455000D01*
G75*
G02*
X115724000Y-88610000I-155000J0D01*
G01*
X115299000Y-88610000D01*
G75*
G02*
X115144000Y-88455000I0J155000D01*
G01*
G37*
%TD.AperFunction*%
%TD*%
%TO.P,C6,1*%
%TO.N,+3V3*%
%TA.AperFunction,SMDPad,CuDef*%
G36*
G01*
X129011000Y-88455000D02*
X129011000Y-88145000D01*
G75*
G02*
X129166000Y-87990000I155000J0D01*
G01*
X129591000Y-87990000D01*
G75*
G02*
X129746000Y-88145000I0J-155000D01*
G01*
X129746000Y-88455000D01*
G75*
G02*
X129591000Y-88610000I-155000J0D01*
G01*
X129166000Y-88610000D01*
G75*
G02*
X129011000Y-88455000I0J155000D01*
G01*
G37*
%TD.AperFunction*%
%TO.P,C6,2*%
%TO.N,GND*%
%TA.AperFunction,SMDPad,CuDef*%
G36*
G01*
X130146000Y-88455000D02*
X130146000Y-88145000D01*
G75*
G02*
X130301000Y-87990000I155000J0D01*
G01*
X130726000Y-87990000D01*
G75*
G02*
X130881000Y-88145000I0J-155000D01*
G01*
X130881000Y-88455000D01*
G75*
G02*
X130726000Y-88610000I-155000J0D01*
G01*
X130301000Y-88610000D01*
G75*
G02*
X130146000Y-88455000I0J155000D01*
G01*
G37*
%TD.AperFunction*%
%TD*%
%TO.P,C7,1*%
%TO.N,GND*%
%TA.AperFunction,SMDPad,CuDef*%
G36*
G01*
X123035000Y-109865000D02*
X123345000Y-109865000D01*
G75*
G02*
X123500000Y-110020000I0J-155000D01*
G01*
X123500000Y-110445000D01*
G75*
G02*
X123345000Y-110600000I-155000J0D01*
G01*
X123035000Y-110600000D01*
G75*
G02*
X122880000Y-110445000I0J155000D01*
G01*
X122880000Y-110020000D01*
G75*
G02*
X123035000Y-109865000I155000J0D01*
G01*
G37*
%TD.AperFunction*%
%TO.P,C7,2*%
%TO.N,+3V3*%
%TA.AperFunction,SMDPad,CuDef*%
G36*
G01*
X123035000Y-111000000D02*
X123345000Y-111000000D01*
G75*
G02*
X123500000Y-111155000I0J-155000D01*
G01*
X123500000Y-111580000D01*
G75*
G02*
X123345000Y-111735000I-155000J0D01*
G01*
X123035000Y-111735000D01*
G75*
G02*
X122880000Y-111580000I0J155000D01*
G01*
X122880000Y-111155000D01*
G75*
G02*
X123035000Y-111000000I155000J0D01*
G01*
G37*
%TD.AperFunction*%
%TD*%
%TO.P,C8,2*%
%TO.N,+3V3*%
%TA.AperFunction,SMDPad,CuDef*%
G36*
G01*
X112748000Y-88500000D02*
X113058000Y-88500000D01*
G75*
G02*
X113213000Y-88655000I0J-155000D01*
G01*
X113213000Y-89080000D01*
G75*
G02*
X113058000Y-89235000I-155000J0D01*
G01*
X112748000Y-89235000D01*
G75*
G02*
X112593000Y-89080000I0J155000D01*
G01*
X112593000Y-88655000D01*
G75*
G02*
X112748000Y-88500000I155000J0D01*
G01*
G37*
%TD.AperFunction*%
%TO.P,C8,1*%
%TO.N,GND*%
%TA.AperFunction,SMDPad,CuDef*%
G36*
G01*
X112748000Y-87365000D02*
X113058000Y-87365000D01*
G75*
G02*
X113213000Y-87520000I0J-155000D01*
G01*
X113213000Y-87945000D01*
G75*
G02*
X113058000Y-88100000I-155000J0D01*
G01*
X112748000Y-88100000D01*
G75*
G02*
X112593000Y-87945000I0J155000D01*
G01*
X112593000Y-87520000D01*
G75*
G02*
X112748000Y-87365000I155000J0D01*
G01*
G37*
%TD.AperFunction*%
%TD*%
%TO.P,C9,1*%
%TO.N,GND*%
%TA.AperFunction,SMDPad,CuDef*%
G36*
G01*
X127759000Y-87365000D02*
X128069000Y-87365000D01*
G75*
G02*
X128224000Y-87520000I0J-155000D01*
G01*
X128224000Y-87945000D01*
G75*
G02*
X128069000Y-88100000I-155000J0D01*
G01*
X127759000Y-88100000D01*
G75*
G02*
X127604000Y-87945000I0J155000D01*
G01*
X127604000Y-87520000D01*
G75*
G02*
X127759000Y-87365000I155000J0D01*
G01*
G37*
%TD.AperFunction*%
%TO.P,C9,2*%
%TO.N,+3V3*%
%TA.AperFunction,SMDPad,CuDef*%
G36*
G01*
X127759000Y-88500000D02*
X128069000Y-88500000D01*
G75*
G02*
X128224000Y-88655000I0J-155000D01*
G01*
X128224000Y-89080000D01*
G75*
G02*
X128069000Y-89235000I-155000J0D01*
G01*
X127759000Y-89235000D01*
G75*
G02*
X127604000Y-89080000I0J155000D01*
G01*
X127604000Y-88655000D01*
G75*
G02*
X127759000Y-88500000I155000J0D01*
G01*
G37*
%TD.AperFunction*%
%TD*%
%TO.P,C10,1*%
%TO.N,Net-(C10-Pad1)*%
%TA.AperFunction,SMDPad,CuDef*%
G36*
G01*
X126750000Y-119849999D02*
X126750000Y-121150001D01*
G75*
G02*
X126500001Y-121400000I-249999J0D01*
G01*
X125849999Y-121400000D01*
G75*
G02*
X125600000Y-121150001I0J249999D01*
G01*
X125600000Y-119849999D01*
G75*
G02*
X125849999Y-119600000I249999J0D01*
G01*
X126500001Y-119600000D01*
G75*
G02*
X126750000Y-119849999I0J-249999D01*
G01*
G37*
%TD.AperFunction*%
%TO.P,C10,2*%
%TO.N,Net-(C10-Pad2)*%
%TA.AperFunction,SMDPad,CuDef*%
G36*
G01*
X123800000Y-119849999D02*
X123800000Y-121150001D01*
G75*
G02*
X123550001Y-121400000I-249999J0D01*
G01*
X122899999Y-121400000D01*
G75*
G02*
X122650000Y-121150001I0J249999D01*
G01*
X122650000Y-119849999D01*
G75*
G02*
X122899999Y-119600000I249999J0D01*
G01*
X123550001Y-119600000D01*
G75*
G02*
X123800000Y-119849999I0J-249999D01*
G01*
G37*
%TD.AperFunction*%
%TD*%
%TO.P,C11,2*%
%TO.N,Net-(C11-Pad2)*%
%TA.AperFunction,SMDPad,CuDef*%
G36*
G01*
X113500000Y-97349999D02*
X113500000Y-98650001D01*
G75*
G02*
X113250001Y-98900000I-249999J0D01*
G01*
X112599999Y-98900000D01*
G75*
G02*
X112350000Y-98650001I0J249999D01*
G01*
X112350000Y-97349999D01*
G75*
G02*
X112599999Y-97100000I249999J0D01*
G01*
X113250001Y-97100000D01*
G75*
G02*
X113500000Y-97349999I0J-249999D01*
G01*
G37*
%TD.AperFunction*%
%TO.P,C11,1*%
%TO.N,Net-(C11-Pad1)*%
%TA.AperFunction,SMDPad,CuDef*%
G36*
G01*
X116450000Y-97349999D02*
X116450000Y-98650001D01*
G75*
G02*
X116200001Y-98900000I-249999J0D01*
G01*
X115549999Y-98900000D01*
G75*
G02*
X115300000Y-98650001I0J249999D01*
G01*
X115300000Y-97349999D01*
G75*
G02*
X115549999Y-97100000I249999J0D01*
G01*
X116200001Y-97100000D01*
G75*
G02*
X116450000Y-97349999I0J-249999D01*
G01*
G37*
%TD.AperFunction*%
%TD*%
%TO.P,C12,2*%
%TO.N,Net-(C12-Pad2)*%
%TA.AperFunction,SMDPad,CuDef*%
G36*
G01*
X128500000Y-97349999D02*
X128500000Y-98650001D01*
G75*
G02*
X128250001Y-98900000I-249999J0D01*
G01*
X127599999Y-98900000D01*
G75*
G02*
X127350000Y-98650001I0J249999D01*
G01*
X127350000Y-97349999D01*
G75*
G02*
X127599999Y-97100000I249999J0D01*
G01*
X128250001Y-97100000D01*
G75*
G02*
X128500000Y-97349999I0J-249999D01*
G01*
G37*
%TD.AperFunction*%
%TO.P,C12,1*%
%TO.N,Net-(C12-Pad1)*%
%TA.AperFunction,SMDPad,CuDef*%
G36*
G01*
X131450000Y-97349999D02*
X131450000Y-98650001D01*
G75*
G02*
X131200001Y-98900000I-249999J0D01*
G01*
X130549999Y-98900000D01*
G75*
G02*
X130300000Y-98650001I0J249999D01*
G01*
X130300000Y-97349999D01*
G75*
G02*
X130549999Y-97100000I249999J0D01*
G01*
X131200001Y-97100000D01*
G75*
G02*
X131450000Y-97349999I0J-249999D01*
G01*
G37*
%TD.AperFunction*%
%TD*%
%TO.P,C13,1*%
%TO.N,+3V3*%
%TA.AperFunction,SMDPad,CuDef*%
G36*
G01*
X143997000Y-88455000D02*
X143997000Y-88145000D01*
G75*
G02*
X144152000Y-87990000I155000J0D01*
G01*
X144577000Y-87990000D01*
G75*
G02*
X144732000Y-88145000I0J-155000D01*
G01*
X144732000Y-88455000D01*
G75*
G02*
X144577000Y-88610000I-155000J0D01*
G01*
X144152000Y-88610000D01*
G75*
G02*
X143997000Y-88455000I0J155000D01*
G01*
G37*
%TD.AperFunction*%
%TO.P,C13,2*%
%TO.N,GND*%
%TA.AperFunction,SMDPad,CuDef*%
G36*
G01*
X145132000Y-88455000D02*
X145132000Y-88145000D01*
G75*
G02*
X145287000Y-87990000I155000J0D01*
G01*
X145712000Y-87990000D01*
G75*
G02*
X145867000Y-88145000I0J-155000D01*
G01*
X145867000Y-88455000D01*
G75*
G02*
X145712000Y-88610000I-155000J0D01*
G01*
X145287000Y-88610000D01*
G75*
G02*
X145132000Y-88455000I0J155000D01*
G01*
G37*
%TD.AperFunction*%
%TD*%
%TO.P,C14,1*%
%TO.N,+3V3*%
%TA.AperFunction,SMDPad,CuDef*%
G36*
G01*
X159009000Y-88455000D02*
X159009000Y-88145000D01*
G75*
G02*
X159164000Y-87990000I155000J0D01*
G01*
X159589000Y-87990000D01*
G75*
G02*
X159744000Y-88145000I0J-155000D01*
G01*
X159744000Y-88455000D01*
G75*
G02*
X159589000Y-88610000I-155000J0D01*
G01*
X159164000Y-88610000D01*
G75*
G02*
X159009000Y-88455000I0J155000D01*
G01*
G37*
%TD.AperFunction*%
%TO.P,C14,2*%
%TO.N,GND*%
%TA.AperFunction,SMDPad,CuDef*%
G36*
G01*
X160144000Y-88455000D02*
X160144000Y-88145000D01*
G75*
G02*
X160299000Y-87990000I155000J0D01*
G01*
X160724000Y-87990000D01*
G75*
G02*
X160879000Y-88145000I0J-155000D01*
G01*
X160879000Y-88455000D01*
G75*
G02*
X160724000Y-88610000I-155000J0D01*
G01*
X160299000Y-88610000D01*
G75*
G02*
X160144000Y-88455000I0J155000D01*
G01*
G37*
%TD.AperFunction*%
%TD*%
%TO.P,C15,2*%
%TO.N,+3V3*%
%TA.AperFunction,SMDPad,CuDef*%
G36*
G01*
X142745000Y-88500000D02*
X143055000Y-88500000D01*
G75*
G02*
X143210000Y-88655000I0J-155000D01*
G01*
X143210000Y-89080000D01*
G75*
G02*
X143055000Y-89235000I-155000J0D01*
G01*
X142745000Y-89235000D01*
G75*
G02*
X142590000Y-89080000I0J155000D01*
G01*
X142590000Y-88655000D01*
G75*
G02*
X142745000Y-88500000I155000J0D01*
G01*
G37*
%TD.AperFunction*%
%TO.P,C15,1*%
%TO.N,GND*%
%TA.AperFunction,SMDPad,CuDef*%
G36*
G01*
X142745000Y-87365000D02*
X143055000Y-87365000D01*
G75*
G02*
X143210000Y-87520000I0J-155000D01*
G01*
X143210000Y-87945000D01*
G75*
G02*
X143055000Y-88100000I-155000J0D01*
G01*
X142745000Y-88100000D01*
G75*
G02*
X142590000Y-87945000I0J155000D01*
G01*
X142590000Y-87520000D01*
G75*
G02*
X142745000Y-87365000I155000J0D01*
G01*
G37*
%TD.AperFunction*%
%TD*%
%TO.P,C16,2*%
%TO.N,+3V3*%
%TA.AperFunction,SMDPad,CuDef*%
G36*
G01*
X157731000Y-88500000D02*
X158041000Y-88500000D01*
G75*
G02*
X158196000Y-88655000I0J-155000D01*
G01*
X158196000Y-89080000D01*
G75*
G02*
X158041000Y-89235000I-155000J0D01*
G01*
X157731000Y-89235000D01*
G75*
G02*
X157576000Y-89080000I0J155000D01*
G01*
X157576000Y-88655000D01*
G75*
G02*
X157731000Y-88500000I155000J0D01*
G01*
G37*
%TD.AperFunction*%
%TO.P,C16,1*%
%TO.N,GND*%
%TA.AperFunction,SMDPad,CuDef*%
G36*
G01*
X157731000Y-87365000D02*
X158041000Y-87365000D01*
G75*
G02*
X158196000Y-87520000I0J-155000D01*
G01*
X158196000Y-87945000D01*
G75*
G02*
X158041000Y-88100000I-155000J0D01*
G01*
X157731000Y-88100000D01*
G75*
G02*
X157576000Y-87945000I0J155000D01*
G01*
X157576000Y-87520000D01*
G75*
G02*
X157731000Y-87365000I155000J0D01*
G01*
G37*
%TD.AperFunction*%
%TD*%
%TO.P,C17,1*%
%TO.N,Net-(C17-Pad1)*%
%TA.AperFunction,SMDPad,CuDef*%
G36*
G01*
X146450000Y-97349999D02*
X146450000Y-98650001D01*
G75*
G02*
X146200001Y-98900000I-249999J0D01*
G01*
X145549999Y-98900000D01*
G75*
G02*
X145300000Y-98650001I0J249999D01*
G01*
X145300000Y-97349999D01*
G75*
G02*
X145549999Y-97100000I249999J0D01*
G01*
X146200001Y-97100000D01*
G75*
G02*
X146450000Y-97349999I0J-249999D01*
G01*
G37*
%TD.AperFunction*%
%TO.P,C17,2*%
%TO.N,Net-(C17-Pad2)*%
%TA.AperFunction,SMDPad,CuDef*%
G36*
G01*
X143500000Y-97349999D02*
X143500000Y-98650001D01*
G75*
G02*
X143250001Y-98900000I-249999J0D01*
G01*
X142599999Y-98900000D01*
G75*
G02*
X142350000Y-98650001I0J249999D01*
G01*
X142350000Y-97349999D01*
G75*
G02*
X142599999Y-97100000I249999J0D01*
G01*
X143250001Y-97100000D01*
G75*
G02*
X143500000Y-97349999I0J-249999D01*
G01*
G37*
%TD.AperFunction*%
%TD*%
%TO.P,C18,2*%
%TO.N,Net-(C18-Pad2)*%
%TA.AperFunction,SMDPad,CuDef*%
G36*
G01*
X158500000Y-97349999D02*
X158500000Y-98650001D01*
G75*
G02*
X158250001Y-98900000I-249999J0D01*
G01*
X157599999Y-98900000D01*
G75*
G02*
X157350000Y-98650001I0J249999D01*
G01*
X157350000Y-97349999D01*
G75*
G02*
X157599999Y-97100000I249999J0D01*
G01*
X158250001Y-97100000D01*
G75*
G02*
X158500000Y-97349999I0J-249999D01*
G01*
G37*
%TD.AperFunction*%
%TO.P,C18,1*%
%TO.N,Net-(C18-Pad1)*%
%TA.AperFunction,SMDPad,CuDef*%
G36*
G01*
X161450000Y-97349999D02*
X161450000Y-98650001D01*
G75*
G02*
X161200001Y-98900000I-249999J0D01*
G01*
X160549999Y-98900000D01*
G75*
G02*
X160300000Y-98650001I0J249999D01*
G01*
X160300000Y-97349999D01*
G75*
G02*
X160549999Y-97100000I249999J0D01*
G01*
X161200001Y-97100000D01*
G75*
G02*
X161450000Y-97349999I0J-249999D01*
G01*
G37*
%TD.AperFunction*%
%TD*%
%TO.P,C19,1*%
%TO.N,+3V3*%
%TA.AperFunction,SMDPad,CuDef*%
G36*
G01*
X136835000Y-110955000D02*
X136835000Y-110645000D01*
G75*
G02*
X136990000Y-110490000I155000J0D01*
G01*
X137415000Y-110490000D01*
G75*
G02*
X137570000Y-110645000I0J-155000D01*
G01*
X137570000Y-110955000D01*
G75*
G02*
X137415000Y-111110000I-155000J0D01*
G01*
X136990000Y-111110000D01*
G75*
G02*
X136835000Y-110955000I0J155000D01*
G01*
G37*
%TD.AperFunction*%
%TO.P,C19,2*%
%TO.N,GND*%
%TA.AperFunction,SMDPad,CuDef*%
G36*
G01*
X137970000Y-110955000D02*
X137970000Y-110645000D01*
G75*
G02*
X138125000Y-110490000I155000J0D01*
G01*
X138550000Y-110490000D01*
G75*
G02*
X138705000Y-110645000I0J-155000D01*
G01*
X138705000Y-110955000D01*
G75*
G02*
X138550000Y-111110000I-155000J0D01*
G01*
X138125000Y-111110000D01*
G75*
G02*
X137970000Y-110955000I0J155000D01*
G01*
G37*
%TD.AperFunction*%
%TD*%
%TO.P,C20,1*%
%TO.N,+3V3*%
%TA.AperFunction,SMDPad,CuDef*%
G36*
G01*
X156799000Y-110955000D02*
X156799000Y-110645000D01*
G75*
G02*
X156954000Y-110490000I155000J0D01*
G01*
X157379000Y-110490000D01*
G75*
G02*
X157534000Y-110645000I0J-155000D01*
G01*
X157534000Y-110955000D01*
G75*
G02*
X157379000Y-111110000I-155000J0D01*
G01*
X156954000Y-111110000D01*
G75*
G02*
X156799000Y-110955000I0J155000D01*
G01*
G37*
%TD.AperFunction*%
%TO.P,C20,2*%
%TO.N,GND*%
%TA.AperFunction,SMDPad,CuDef*%
G36*
G01*
X157934000Y-110955000D02*
X157934000Y-110645000D01*
G75*
G02*
X158089000Y-110490000I155000J0D01*
G01*
X158514000Y-110490000D01*
G75*
G02*
X158669000Y-110645000I0J-155000D01*
G01*
X158669000Y-110955000D01*
G75*
G02*
X158514000Y-111110000I-155000J0D01*
G01*
X158089000Y-111110000D01*
G75*
G02*
X157934000Y-110955000I0J155000D01*
G01*
G37*
%TD.AperFunction*%
%TD*%
%TO.P,C21,2*%
%TO.N,+3V3*%
%TA.AperFunction,SMDPad,CuDef*%
G36*
G01*
X135557000Y-111000000D02*
X135867000Y-111000000D01*
G75*
G02*
X136022000Y-111155000I0J-155000D01*
G01*
X136022000Y-111580000D01*
G75*
G02*
X135867000Y-111735000I-155000J0D01*
G01*
X135557000Y-111735000D01*
G75*
G02*
X135402000Y-111580000I0J155000D01*
G01*
X135402000Y-111155000D01*
G75*
G02*
X135557000Y-111000000I155000J0D01*
G01*
G37*
%TD.AperFunction*%
%TO.P,C21,1*%
%TO.N,GND*%
%TA.AperFunction,SMDPad,CuDef*%
G36*
G01*
X135557000Y-109865000D02*
X135867000Y-109865000D01*
G75*
G02*
X136022000Y-110020000I0J-155000D01*
G01*
X136022000Y-110445000D01*
G75*
G02*
X135867000Y-110600000I-155000J0D01*
G01*
X135557000Y-110600000D01*
G75*
G02*
X135402000Y-110445000I0J155000D01*
G01*
X135402000Y-110020000D01*
G75*
G02*
X135557000Y-109865000I155000J0D01*
G01*
G37*
%TD.AperFunction*%
%TD*%
%TO.P,C22,2*%
%TO.N,+3V3*%
%TA.AperFunction,SMDPad,CuDef*%
G36*
G01*
X155547000Y-111000000D02*
X155857000Y-111000000D01*
G75*
G02*
X156012000Y-111155000I0J-155000D01*
G01*
X156012000Y-111580000D01*
G75*
G02*
X155857000Y-111735000I-155000J0D01*
G01*
X155547000Y-111735000D01*
G75*
G02*
X155392000Y-111580000I0J155000D01*
G01*
X155392000Y-111155000D01*
G75*
G02*
X155547000Y-111000000I155000J0D01*
G01*
G37*
%TD.AperFunction*%
%TO.P,C22,1*%
%TO.N,GND*%
%TA.AperFunction,SMDPad,CuDef*%
G36*
G01*
X155547000Y-109865000D02*
X155857000Y-109865000D01*
G75*
G02*
X156012000Y-110020000I0J-155000D01*
G01*
X156012000Y-110445000D01*
G75*
G02*
X155857000Y-110600000I-155000J0D01*
G01*
X155547000Y-110600000D01*
G75*
G02*
X155392000Y-110445000I0J155000D01*
G01*
X155392000Y-110020000D01*
G75*
G02*
X155547000Y-109865000I155000J0D01*
G01*
G37*
%TD.AperFunction*%
%TD*%
%TO.P,C23,2*%
%TO.N,Net-(C23-Pad2)*%
%TA.AperFunction,SMDPad,CuDef*%
G36*
G01*
X136300000Y-119849999D02*
X136300000Y-121150001D01*
G75*
G02*
X136050001Y-121400000I-249999J0D01*
G01*
X135399999Y-121400000D01*
G75*
G02*
X135150000Y-121150001I0J249999D01*
G01*
X135150000Y-119849999D01*
G75*
G02*
X135399999Y-119600000I249999J0D01*
G01*
X136050001Y-119600000D01*
G75*
G02*
X136300000Y-119849999I0J-249999D01*
G01*
G37*
%TD.AperFunction*%
%TO.P,C23,1*%
%TO.N,Net-(C23-Pad1)*%
%TA.AperFunction,SMDPad,CuDef*%
G36*
G01*
X139250000Y-119849999D02*
X139250000Y-121150001D01*
G75*
G02*
X139000001Y-121400000I-249999J0D01*
G01*
X138349999Y-121400000D01*
G75*
G02*
X138100000Y-121150001I0J249999D01*
G01*
X138100000Y-119849999D01*
G75*
G02*
X138349999Y-119600000I249999J0D01*
G01*
X139000001Y-119600000D01*
G75*
G02*
X139250000Y-119849999I0J-249999D01*
G01*
G37*
%TD.AperFunction*%
%TD*%
%TO.P,C24,1*%
%TO.N,Net-(C24-Pad1)*%
%TA.AperFunction,SMDPad,CuDef*%
G36*
G01*
X159073000Y-119849999D02*
X159073000Y-121150001D01*
G75*
G02*
X158823001Y-121400000I-249999J0D01*
G01*
X158172999Y-121400000D01*
G75*
G02*
X157923000Y-121150001I0J249999D01*
G01*
X157923000Y-119849999D01*
G75*
G02*
X158172999Y-119600000I249999J0D01*
G01*
X158823001Y-119600000D01*
G75*
G02*
X159073000Y-119849999I0J-249999D01*
G01*
G37*
%TD.AperFunction*%
%TO.P,C24,2*%
%TO.N,Net-(C24-Pad2)*%
%TA.AperFunction,SMDPad,CuDef*%
G36*
G01*
X156123000Y-119849999D02*
X156123000Y-121150001D01*
G75*
G02*
X155873001Y-121400000I-249999J0D01*
G01*
X155222999Y-121400000D01*
G75*
G02*
X154973000Y-121150001I0J249999D01*
G01*
X154973000Y-119849999D01*
G75*
G02*
X155222999Y-119600000I249999J0D01*
G01*
X155873001Y-119600000D01*
G75*
G02*
X156123000Y-119849999I0J-249999D01*
G01*
G37*
%TD.AperFunction*%
%TD*%
D13*
%TO.P,J1,1*%
%TO.N,Net-(J1-Pad1)*%
X110134000Y-78435200D03*
D14*
%TO.P,J1,2*%
%TO.N,Net-(J1-Pad2)*%
X110134000Y-75895200D03*
%TO.P,J1,3*%
%TO.N,Net-(J1-Pad3)*%
X112674000Y-78435200D03*
%TO.P,J1,4*%
%TO.N,Net-(J1-Pad4)*%
X112674000Y-75895200D03*
%TO.P,J1,5*%
%TO.N,Net-(J1-Pad5)*%
X115214000Y-78435200D03*
%TO.P,J1,6*%
%TO.N,Net-(J1-Pad6)*%
X115214000Y-75895200D03*
%TO.P,J1,7*%
%TO.N,Net-(J1-Pad7)*%
X117754000Y-78435200D03*
%TO.P,J1,8*%
%TO.N,Net-(J1-Pad8)*%
X117754000Y-75895200D03*
%TO.P,J1,9*%
%TO.N,Net-(J1-Pad9)*%
X120294000Y-78435200D03*
%TO.P,J1,10*%
%TO.N,Net-(J1-Pad10)*%
X120294000Y-75895200D03*
%TO.P,J1,11*%
%TO.N,Net-(J1-Pad11)*%
X122834000Y-78435200D03*
%TO.P,J1,12*%
%TO.N,Net-(J1-Pad12)*%
X122834000Y-75895200D03*
%TO.P,J1,13*%
%TO.N,/CS8*%
X125374000Y-78435200D03*
%TO.P,J1,14*%
%TO.N,Net-(J1-Pad14)*%
X125374000Y-75895200D03*
%TO.P,J1,15*%
%TO.N,/CS3*%
X127914000Y-78435200D03*
%TO.P,J1,16*%
%TO.N,/CS4*%
X127914000Y-75895200D03*
%TO.P,J1,17*%
%TO.N,+3V3*%
X130454000Y-78435200D03*
%TO.P,J1,18*%
%TO.N,/CS5*%
X130454000Y-75895200D03*
%TO.P,J1,19*%
%TO.N,/MOSI*%
X132994000Y-78435200D03*
%TO.P,J1,20*%
%TO.N,Net-(J1-Pad20)*%
X132994000Y-75895200D03*
%TO.P,J1,21*%
%TO.N,/MISO*%
X135534000Y-78435200D03*
%TO.P,J1,22*%
%TO.N,/CS6*%
X135534000Y-75895200D03*
%TO.P,J1,23*%
%TO.N,/SCLK*%
X138074000Y-78435200D03*
%TO.P,J1,24*%
%TO.N,/CS1*%
X138074000Y-75895200D03*
%TO.P,J1,25*%
%TO.N,GND*%
X140614000Y-78435200D03*
%TO.P,J1,26*%
%TO.N,/CS2*%
X140614000Y-75895200D03*
%TO.P,J1,27*%
%TO.N,Net-(J1-Pad27)*%
X143154000Y-78435200D03*
%TO.P,J1,28*%
%TO.N,Net-(J1-Pad28)*%
X143154000Y-75895200D03*
%TO.P,J1,29*%
%TO.N,Net-(J1-Pad29)*%
X145694000Y-78435200D03*
%TO.P,J1,30*%
%TO.N,Net-(J1-Pad30)*%
X145694000Y-75895200D03*
%TO.P,J1,31*%
%TO.N,Net-(J1-Pad31)*%
X148234000Y-78435200D03*
%TO.P,J1,32*%
%TO.N,Net-(J1-Pad32)*%
X148234000Y-75895200D03*
%TO.P,J1,33*%
%TO.N,Net-(J1-Pad33)*%
X150774000Y-78435200D03*
%TO.P,J1,34*%
%TO.N,Net-(J1-Pad34)*%
X150774000Y-75895200D03*
%TO.P,J1,35*%
%TO.N,Net-(J1-Pad35)*%
X153314000Y-78435200D03*
%TO.P,J1,36*%
%TO.N,Net-(J1-Pad36)*%
X153314000Y-75895200D03*
%TO.P,J1,37*%
%TO.N,/CS7*%
X155854000Y-78435200D03*
%TO.P,J1,38*%
%TO.N,Net-(J1-Pad38)*%
X155854000Y-75895200D03*
%TO.P,J1,39*%
%TO.N,Net-(J1-Pad39)*%
X158394000Y-78435200D03*
%TO.P,J1,40*%
%TO.N,Net-(J1-Pad40)*%
X158394000Y-75895200D03*
%TD*%
D12*
%TO.P,J2,1*%
%TO.N,Net-(J2-Pad1)*%
X109245000Y-84251800D03*
%TO.P,J2,2*%
X107975000Y-86791800D03*
%TO.P,J2,3*%
%TO.N,Net-(J2-Pad3)*%
X106705000Y-84251800D03*
%TO.P,J2,4*%
X105435000Y-86791800D03*
%TD*%
%TO.P,J3,1*%
%TO.N,Net-(J3-Pad1)*%
X110295000Y-127270000D03*
%TO.P,J3,2*%
%TO.N,Net-(C3-Pad2)*%
X111565000Y-124730000D03*
%TO.P,J3,3*%
%TO.N,Net-(C3-Pad1)*%
X112835000Y-127270000D03*
%TO.P,J3,4*%
%TO.N,Net-(J3-Pad4)*%
X114105000Y-124730000D03*
%TD*%
%TO.P,J5,4*%
%TO.N,Net-(J5-Pad4)*%
X131305000Y-102230000D03*
%TO.P,J5,3*%
%TO.N,Net-(C12-Pad1)*%
X130035000Y-104770000D03*
%TO.P,J5,2*%
%TO.N,Net-(C12-Pad2)*%
X128765000Y-102230000D03*
%TO.P,J5,1*%
%TO.N,Net-(J5-Pad1)*%
X127495000Y-104770000D03*
%TD*%
%TO.P,J6,4*%
%TO.N,Net-(J6-Pad4)*%
X126605000Y-124730000D03*
%TO.P,J6,3*%
%TO.N,Net-(C10-Pad1)*%
X125335000Y-127270000D03*
%TO.P,J6,2*%
%TO.N,Net-(C10-Pad2)*%
X124065000Y-124730000D03*
%TO.P,J6,1*%
%TO.N,Net-(J6-Pad1)*%
X122795000Y-127270000D03*
%TD*%
%TO.P,J7,4*%
%TO.N,Net-(J7-Pad4)*%
X146305000Y-102230000D03*
%TO.P,J7,3*%
%TO.N,Net-(C17-Pad1)*%
X145035000Y-104770000D03*
%TO.P,J7,2*%
%TO.N,Net-(C17-Pad2)*%
X143765000Y-102230000D03*
%TO.P,J7,1*%
%TO.N,Net-(J7-Pad1)*%
X142495000Y-104770000D03*
%TD*%
%TO.P,J8,1*%
%TO.N,Net-(J8-Pad1)*%
X157495000Y-104770000D03*
%TO.P,J8,2*%
%TO.N,Net-(C18-Pad2)*%
X158765000Y-102230000D03*
%TO.P,J8,3*%
%TO.N,Net-(C18-Pad1)*%
X160035000Y-104770000D03*
%TO.P,J8,4*%
%TO.N,Net-(J8-Pad4)*%
X161305000Y-102230000D03*
%TD*%
%TO.P,J9,1*%
%TO.N,Net-(J9-Pad1)*%
X135295000Y-127270000D03*
%TO.P,J9,2*%
%TO.N,Net-(C23-Pad2)*%
X136565000Y-124730000D03*
%TO.P,J9,3*%
%TO.N,Net-(C23-Pad1)*%
X137835000Y-127270000D03*
%TO.P,J9,4*%
%TO.N,Net-(J9-Pad4)*%
X139105000Y-124730000D03*
%TD*%
%TO.P,J10,4*%
%TO.N,Net-(J10-Pad4)*%
X156058000Y-124730000D03*
%TO.P,J10,3*%
%TO.N,Net-(C24-Pad1)*%
X154788000Y-127270000D03*
%TO.P,J10,2*%
%TO.N,Net-(C24-Pad2)*%
X153518000Y-124730000D03*
%TO.P,J10,1*%
%TO.N,Net-(J10-Pad1)*%
X152248000Y-127270000D03*
%TD*%
%TO.P,R1,2*%
%TO.N,Net-(R1-Pad2)*%
%TA.AperFunction,SMDPad,CuDef*%
G36*
G01*
X107725000Y-115925000D02*
X108275000Y-115925000D01*
G75*
G02*
X108475000Y-116125000I0J-200000D01*
G01*
X108475000Y-116525000D01*
G75*
G02*
X108275000Y-116725000I-200000J0D01*
G01*
X107725000Y-116725000D01*
G75*
G02*
X107525000Y-116525000I0J200000D01*
G01*
X107525000Y-116125000D01*
G75*
G02*
X107725000Y-115925000I200000J0D01*
G01*
G37*
%TD.AperFunction*%
%TO.P,R1,1*%
%TO.N,Net-(R1-Pad1)*%
%TA.AperFunction,SMDPad,CuDef*%
G36*
G01*
X107725000Y-114275000D02*
X108275000Y-114275000D01*
G75*
G02*
X108475000Y-114475000I0J-200000D01*
G01*
X108475000Y-114875000D01*
G75*
G02*
X108275000Y-115075000I-200000J0D01*
G01*
X107725000Y-115075000D01*
G75*
G02*
X107525000Y-114875000I0J200000D01*
G01*
X107525000Y-114475000D01*
G75*
G02*
X107725000Y-114275000I200000J0D01*
G01*
G37*
%TD.AperFunction*%
%TD*%
%TO.P,R2,2*%
%TO.N,Net-(R2-Pad2)*%
%TA.AperFunction,SMDPad,CuDef*%
G36*
G01*
X119725000Y-115925000D02*
X120275000Y-115925000D01*
G75*
G02*
X120475000Y-116125000I0J-200000D01*
G01*
X120475000Y-116525000D01*
G75*
G02*
X120275000Y-116725000I-200000J0D01*
G01*
X119725000Y-116725000D01*
G75*
G02*
X119525000Y-116525000I0J200000D01*
G01*
X119525000Y-116125000D01*
G75*
G02*
X119725000Y-115925000I200000J0D01*
G01*
G37*
%TD.AperFunction*%
%TO.P,R2,1*%
%TO.N,Net-(R2-Pad1)*%
%TA.AperFunction,SMDPad,CuDef*%
G36*
G01*
X119725000Y-114275000D02*
X120275000Y-114275000D01*
G75*
G02*
X120475000Y-114475000I0J-200000D01*
G01*
X120475000Y-114875000D01*
G75*
G02*
X120275000Y-115075000I-200000J0D01*
G01*
X119725000Y-115075000D01*
G75*
G02*
X119525000Y-114875000I0J200000D01*
G01*
X119525000Y-114475000D01*
G75*
G02*
X119725000Y-114275000I200000J0D01*
G01*
G37*
%TD.AperFunction*%
%TD*%
%TO.P,R3,1*%
%TO.N,Net-(R3-Pad1)*%
%TA.AperFunction,SMDPad,CuDef*%
G36*
G01*
X109725000Y-91775000D02*
X110275000Y-91775000D01*
G75*
G02*
X110475000Y-91975000I0J-200000D01*
G01*
X110475000Y-92375000D01*
G75*
G02*
X110275000Y-92575000I-200000J0D01*
G01*
X109725000Y-92575000D01*
G75*
G02*
X109525000Y-92375000I0J200000D01*
G01*
X109525000Y-91975000D01*
G75*
G02*
X109725000Y-91775000I200000J0D01*
G01*
G37*
%TD.AperFunction*%
%TO.P,R3,2*%
%TO.N,Net-(R3-Pad2)*%
%TA.AperFunction,SMDPad,CuDef*%
G36*
G01*
X109725000Y-93425000D02*
X110275000Y-93425000D01*
G75*
G02*
X110475000Y-93625000I0J-200000D01*
G01*
X110475000Y-94025000D01*
G75*
G02*
X110275000Y-94225000I-200000J0D01*
G01*
X109725000Y-94225000D01*
G75*
G02*
X109525000Y-94025000I0J200000D01*
G01*
X109525000Y-93625000D01*
G75*
G02*
X109725000Y-93425000I200000J0D01*
G01*
G37*
%TD.AperFunction*%
%TD*%
%TO.P,R4,1*%
%TO.N,Net-(R4-Pad1)*%
%TA.AperFunction,SMDPad,CuDef*%
G36*
G01*
X124725000Y-91775000D02*
X125275000Y-91775000D01*
G75*
G02*
X125475000Y-91975000I0J-200000D01*
G01*
X125475000Y-92375000D01*
G75*
G02*
X125275000Y-92575000I-200000J0D01*
G01*
X124725000Y-92575000D01*
G75*
G02*
X124525000Y-92375000I0J200000D01*
G01*
X124525000Y-91975000D01*
G75*
G02*
X124725000Y-91775000I200000J0D01*
G01*
G37*
%TD.AperFunction*%
%TO.P,R4,2*%
%TO.N,Net-(R4-Pad2)*%
%TA.AperFunction,SMDPad,CuDef*%
G36*
G01*
X124725000Y-93425000D02*
X125275000Y-93425000D01*
G75*
G02*
X125475000Y-93625000I0J-200000D01*
G01*
X125475000Y-94025000D01*
G75*
G02*
X125275000Y-94225000I-200000J0D01*
G01*
X124725000Y-94225000D01*
G75*
G02*
X124525000Y-94025000I0J200000D01*
G01*
X124525000Y-93625000D01*
G75*
G02*
X124725000Y-93425000I200000J0D01*
G01*
G37*
%TD.AperFunction*%
%TD*%
%TO.P,R5,1*%
%TO.N,Net-(R5-Pad1)*%
%TA.AperFunction,SMDPad,CuDef*%
G36*
G01*
X139725000Y-91775000D02*
X140275000Y-91775000D01*
G75*
G02*
X140475000Y-91975000I0J-200000D01*
G01*
X140475000Y-92375000D01*
G75*
G02*
X140275000Y-92575000I-200000J0D01*
G01*
X139725000Y-92575000D01*
G75*
G02*
X139525000Y-92375000I0J200000D01*
G01*
X139525000Y-91975000D01*
G75*
G02*
X139725000Y-91775000I200000J0D01*
G01*
G37*
%TD.AperFunction*%
%TO.P,R5,2*%
%TO.N,Net-(R5-Pad2)*%
%TA.AperFunction,SMDPad,CuDef*%
G36*
G01*
X139725000Y-93425000D02*
X140275000Y-93425000D01*
G75*
G02*
X140475000Y-93625000I0J-200000D01*
G01*
X140475000Y-94025000D01*
G75*
G02*
X140275000Y-94225000I-200000J0D01*
G01*
X139725000Y-94225000D01*
G75*
G02*
X139525000Y-94025000I0J200000D01*
G01*
X139525000Y-93625000D01*
G75*
G02*
X139725000Y-93425000I200000J0D01*
G01*
G37*
%TD.AperFunction*%
%TD*%
%TO.P,R6,1*%
%TO.N,Net-(R6-Pad1)*%
%TA.AperFunction,SMDPad,CuDef*%
G36*
G01*
X154725000Y-91775000D02*
X155275000Y-91775000D01*
G75*
G02*
X155475000Y-91975000I0J-200000D01*
G01*
X155475000Y-92375000D01*
G75*
G02*
X155275000Y-92575000I-200000J0D01*
G01*
X154725000Y-92575000D01*
G75*
G02*
X154525000Y-92375000I0J200000D01*
G01*
X154525000Y-91975000D01*
G75*
G02*
X154725000Y-91775000I200000J0D01*
G01*
G37*
%TD.AperFunction*%
%TO.P,R6,2*%
%TO.N,Net-(R6-Pad2)*%
%TA.AperFunction,SMDPad,CuDef*%
G36*
G01*
X154725000Y-93425000D02*
X155275000Y-93425000D01*
G75*
G02*
X155475000Y-93625000I0J-200000D01*
G01*
X155475000Y-94025000D01*
G75*
G02*
X155275000Y-94225000I-200000J0D01*
G01*
X154725000Y-94225000D01*
G75*
G02*
X154525000Y-94025000I0J200000D01*
G01*
X154525000Y-93625000D01*
G75*
G02*
X154725000Y-93425000I200000J0D01*
G01*
G37*
%TD.AperFunction*%
%TD*%
%TO.P,R7,2*%
%TO.N,Net-(R7-Pad2)*%
%TA.AperFunction,SMDPad,CuDef*%
G36*
G01*
X132225000Y-115925000D02*
X132775000Y-115925000D01*
G75*
G02*
X132975000Y-116125000I0J-200000D01*
G01*
X132975000Y-116525000D01*
G75*
G02*
X132775000Y-116725000I-200000J0D01*
G01*
X132225000Y-116725000D01*
G75*
G02*
X132025000Y-116525000I0J200000D01*
G01*
X132025000Y-116125000D01*
G75*
G02*
X132225000Y-115925000I200000J0D01*
G01*
G37*
%TD.AperFunction*%
%TO.P,R7,1*%
%TO.N,Net-(R7-Pad1)*%
%TA.AperFunction,SMDPad,CuDef*%
G36*
G01*
X132225000Y-114275000D02*
X132775000Y-114275000D01*
G75*
G02*
X132975000Y-114475000I0J-200000D01*
G01*
X132975000Y-114875000D01*
G75*
G02*
X132775000Y-115075000I-200000J0D01*
G01*
X132225000Y-115075000D01*
G75*
G02*
X132025000Y-114875000I0J200000D01*
G01*
X132025000Y-114475000D01*
G75*
G02*
X132225000Y-114275000I200000J0D01*
G01*
G37*
%TD.AperFunction*%
%TD*%
%TO.P,R8,2*%
%TO.N,Net-(R8-Pad2)*%
%TA.AperFunction,SMDPad,CuDef*%
G36*
G01*
X152125000Y-115925000D02*
X152675000Y-115925000D01*
G75*
G02*
X152875000Y-116125000I0J-200000D01*
G01*
X152875000Y-116525000D01*
G75*
G02*
X152675000Y-116725000I-200000J0D01*
G01*
X152125000Y-116725000D01*
G75*
G02*
X151925000Y-116525000I0J200000D01*
G01*
X151925000Y-116125000D01*
G75*
G02*
X152125000Y-115925000I200000J0D01*
G01*
G37*
%TD.AperFunction*%
%TO.P,R8,1*%
%TO.N,Net-(R8-Pad1)*%
%TA.AperFunction,SMDPad,CuDef*%
G36*
G01*
X152125000Y-114275000D02*
X152675000Y-114275000D01*
G75*
G02*
X152875000Y-114475000I0J-200000D01*
G01*
X152875000Y-114875000D01*
G75*
G02*
X152675000Y-115075000I-200000J0D01*
G01*
X152125000Y-115075000D01*
G75*
G02*
X151925000Y-114875000I0J200000D01*
G01*
X151925000Y-114475000D01*
G75*
G02*
X152125000Y-114275000I200000J0D01*
G01*
G37*
%TD.AperFunction*%
%TD*%
%TO.P,TH1,1*%
%TO.N,Net-(J2-Pad1)*%
%TA.AperFunction,SMDPad,CuDef*%
G36*
G01*
X105949000Y-89387000D02*
X105949000Y-89937000D01*
G75*
G02*
X105749000Y-90137000I-200000J0D01*
G01*
X105349000Y-90137000D01*
G75*
G02*
X105149000Y-89937000I0J200000D01*
G01*
X105149000Y-89387000D01*
G75*
G02*
X105349000Y-89187000I200000J0D01*
G01*
X105749000Y-89187000D01*
G75*
G02*
X105949000Y-89387000I0J-200000D01*
G01*
G37*
%TD.AperFunction*%
%TO.P,TH1,2*%
%TO.N,Net-(J2-Pad3)*%
%TA.AperFunction,SMDPad,CuDef*%
G36*
G01*
X104299000Y-89387000D02*
X104299000Y-89937000D01*
G75*
G02*
X104099000Y-90137000I-200000J0D01*
G01*
X103699000Y-90137000D01*
G75*
G02*
X103499000Y-89937000I0J200000D01*
G01*
X103499000Y-89387000D01*
G75*
G02*
X103699000Y-89187000I200000J0D01*
G01*
X104099000Y-89187000D01*
G75*
G02*
X104299000Y-89387000I0J-200000D01*
G01*
G37*
%TD.AperFunction*%
%TD*%
D15*
%TO.P,TP1,1*%
%TO.N,+3V3*%
X123266000Y-83337400D03*
%TD*%
%TO.P,TP2,1*%
%TO.N,GND*%
X148107000Y-83337400D03*
%TD*%
%TO.P,TP3,1*%
%TO.N,/MOSI*%
X129769000Y-83261200D03*
%TD*%
%TO.P,TP4,1*%
%TO.N,/SCLK*%
X142113000Y-83489800D03*
%TD*%
%TO.P,TP5,1*%
%TO.N,/MISO*%
X135738000Y-83235800D03*
%TD*%
%TO.P,TP6,1*%
%TO.N,/CS1*%
X118700000Y-97500000D03*
%TD*%
%TO.P,TP7,1*%
%TO.N,/DRDY1*%
X118700000Y-89000000D03*
%TD*%
%TO.P,TP8,1*%
%TO.N,/CS2*%
X148700000Y-97500000D03*
%TD*%
%TO.P,TP9,1*%
%TO.N,/DRDY2*%
X148700000Y-89000000D03*
%TD*%
%TO.P,TP10,1*%
%TO.N,/CS3*%
X141500000Y-120000000D03*
%TD*%
%TO.P,TP11,1*%
%TO.N,/DRDY3*%
X141500000Y-111500000D03*
%TD*%
%TO.P,TP12,1*%
%TO.N,/CS4*%
X133700000Y-97500000D03*
%TD*%
%TO.P,TP13,1*%
%TO.N,/DRDY4*%
X133700000Y-89000000D03*
%TD*%
%TO.P,TP14,1*%
%TO.N,/CS5*%
X163700000Y-97500000D03*
%TD*%
%TO.P,TP15,1*%
%TO.N,/DRDY5*%
X163700000Y-89000000D03*
%TD*%
%TO.P,TP16,1*%
%TO.N,/CS6*%
X161500000Y-120000000D03*
%TD*%
%TO.P,TP17,1*%
%TO.N,/DRDY6*%
X161500000Y-111500000D03*
%TD*%
%TO.P,TP18,1*%
%TO.N,/CS7*%
X116500000Y-120000000D03*
%TD*%
%TO.P,TP19,1*%
%TO.N,/DRDY7*%
X116814600Y-111506000D03*
%TD*%
%TO.P,TP20,1*%
%TO.N,/CS8*%
X129000000Y-120000000D03*
%TD*%
%TO.P,TP21,1*%
%TO.N,/DRDY8*%
X129000000Y-111500000D03*
%TD*%
%TO.P,U2,1*%
%TO.N,Net-(R2-Pad1)*%
%TA.AperFunction,SMDPad,CuDef*%
G36*
G01*
X121650000Y-114275000D02*
X121650000Y-114125000D01*
G75*
G02*
X121725000Y-114050000I75000J0D01*
G01*
X122375000Y-114050000D01*
G75*
G02*
X122450000Y-114125000I0J-75000D01*
G01*
X122450000Y-114275000D01*
G75*
G02*
X122375000Y-114350000I-75000J0D01*
G01*
X121725000Y-114350000D01*
G75*
G02*
X121650000Y-114275000I0J75000D01*
G01*
G37*
%TD.AperFunction*%
%TO.P,U2,2*%
%TA.AperFunction,SMDPad,CuDef*%
G36*
G01*
X121650000Y-114925000D02*
X121650000Y-114775000D01*
G75*
G02*
X121725000Y-114700000I75000J0D01*
G01*
X122375000Y-114700000D01*
G75*
G02*
X122450000Y-114775000I0J-75000D01*
G01*
X122450000Y-114925000D01*
G75*
G02*
X122375000Y-115000000I-75000J0D01*
G01*
X121725000Y-115000000D01*
G75*
G02*
X121650000Y-114925000I0J75000D01*
G01*
G37*
%TD.AperFunction*%
%TO.P,U2,3*%
%TO.N,Net-(R2-Pad2)*%
%TA.AperFunction,SMDPad,CuDef*%
G36*
G01*
X121650000Y-115575000D02*
X121650000Y-115425000D01*
G75*
G02*
X121725000Y-115350000I75000J0D01*
G01*
X122375000Y-115350000D01*
G75*
G02*
X122450000Y-115425000I0J-75000D01*
G01*
X122450000Y-115575000D01*
G75*
G02*
X122375000Y-115650000I-75000J0D01*
G01*
X121725000Y-115650000D01*
G75*
G02*
X121650000Y-115575000I0J75000D01*
G01*
G37*
%TD.AperFunction*%
%TO.P,U2,4*%
%TA.AperFunction,SMDPad,CuDef*%
G36*
G01*
X121650000Y-116225000D02*
X121650000Y-116075000D01*
G75*
G02*
X121725000Y-116000000I75000J0D01*
G01*
X122375000Y-116000000D01*
G75*
G02*
X122450000Y-116075000I0J-75000D01*
G01*
X122450000Y-116225000D01*
G75*
G02*
X122375000Y-116300000I-75000J0D01*
G01*
X121725000Y-116300000D01*
G75*
G02*
X121650000Y-116225000I0J75000D01*
G01*
G37*
%TD.AperFunction*%
%TO.P,U2,5*%
%TO.N,Net-(J6-Pad1)*%
%TA.AperFunction,SMDPad,CuDef*%
G36*
G01*
X121650000Y-116875000D02*
X121650000Y-116725000D01*
G75*
G02*
X121725000Y-116650000I75000J0D01*
G01*
X122375000Y-116650000D01*
G75*
G02*
X122450000Y-116725000I0J-75000D01*
G01*
X122450000Y-116875000D01*
G75*
G02*
X122375000Y-116950000I-75000J0D01*
G01*
X121725000Y-116950000D01*
G75*
G02*
X121650000Y-116875000I0J75000D01*
G01*
G37*
%TD.AperFunction*%
%TO.P,U2,6*%
%TO.N,GND*%
%TA.AperFunction,SMDPad,CuDef*%
G36*
G01*
X123050000Y-118275000D02*
X123050000Y-117625000D01*
G75*
G02*
X123125000Y-117550000I75000J0D01*
G01*
X123275000Y-117550000D01*
G75*
G02*
X123350000Y-117625000I0J-75000D01*
G01*
X123350000Y-118275000D01*
G75*
G02*
X123275000Y-118350000I-75000J0D01*
G01*
X123125000Y-118350000D01*
G75*
G02*
X123050000Y-118275000I0J75000D01*
G01*
G37*
%TD.AperFunction*%
%TO.P,U2,7*%
%TO.N,Net-(C10-Pad2)*%
%TA.AperFunction,SMDPad,CuDef*%
G36*
G01*
X123700000Y-118275000D02*
X123700000Y-117625000D01*
G75*
G02*
X123775000Y-117550000I75000J0D01*
G01*
X123925000Y-117550000D01*
G75*
G02*
X124000000Y-117625000I0J-75000D01*
G01*
X124000000Y-118275000D01*
G75*
G02*
X123925000Y-118350000I-75000J0D01*
G01*
X123775000Y-118350000D01*
G75*
G02*
X123700000Y-118275000I0J75000D01*
G01*
G37*
%TD.AperFunction*%
%TO.P,U2,8*%
%TO.N,Net-(C10-Pad1)*%
%TA.AperFunction,SMDPad,CuDef*%
G36*
G01*
X124350000Y-118275000D02*
X124350000Y-117625000D01*
G75*
G02*
X124425000Y-117550000I75000J0D01*
G01*
X124575000Y-117550000D01*
G75*
G02*
X124650000Y-117625000I0J-75000D01*
G01*
X124650000Y-118275000D01*
G75*
G02*
X124575000Y-118350000I-75000J0D01*
G01*
X124425000Y-118350000D01*
G75*
G02*
X124350000Y-118275000I0J75000D01*
G01*
G37*
%TD.AperFunction*%
%TO.P,U2,9*%
%TO.N,Net-(J6-Pad4)*%
%TA.AperFunction,SMDPad,CuDef*%
G36*
G01*
X125000000Y-118275000D02*
X125000000Y-117625000D01*
G75*
G02*
X125075000Y-117550000I75000J0D01*
G01*
X125225000Y-117550000D01*
G75*
G02*
X125300000Y-117625000I0J-75000D01*
G01*
X125300000Y-118275000D01*
G75*
G02*
X125225000Y-118350000I-75000J0D01*
G01*
X125075000Y-118350000D01*
G75*
G02*
X125000000Y-118275000I0J75000D01*
G01*
G37*
%TD.AperFunction*%
%TO.P,U2,10*%
%TO.N,GND*%
%TA.AperFunction,SMDPad,CuDef*%
G36*
G01*
X125650000Y-118275000D02*
X125650000Y-117625000D01*
G75*
G02*
X125725000Y-117550000I75000J0D01*
G01*
X125875000Y-117550000D01*
G75*
G02*
X125950000Y-117625000I0J-75000D01*
G01*
X125950000Y-118275000D01*
G75*
G02*
X125875000Y-118350000I-75000J0D01*
G01*
X125725000Y-118350000D01*
G75*
G02*
X125650000Y-118275000I0J75000D01*
G01*
G37*
%TD.AperFunction*%
%TO.P,U2,11*%
%TO.N,/MOSI*%
%TA.AperFunction,SMDPad,CuDef*%
G36*
G01*
X126550000Y-116875000D02*
X126550000Y-116725000D01*
G75*
G02*
X126625000Y-116650000I75000J0D01*
G01*
X127275000Y-116650000D01*
G75*
G02*
X127350000Y-116725000I0J-75000D01*
G01*
X127350000Y-116875000D01*
G75*
G02*
X127275000Y-116950000I-75000J0D01*
G01*
X126625000Y-116950000D01*
G75*
G02*
X126550000Y-116875000I0J75000D01*
G01*
G37*
%TD.AperFunction*%
%TO.P,U2,12*%
%TO.N,/SCLK*%
%TA.AperFunction,SMDPad,CuDef*%
G36*
G01*
X126550000Y-116225000D02*
X126550000Y-116075000D01*
G75*
G02*
X126625000Y-116000000I75000J0D01*
G01*
X127275000Y-116000000D01*
G75*
G02*
X127350000Y-116075000I0J-75000D01*
G01*
X127350000Y-116225000D01*
G75*
G02*
X127275000Y-116300000I-75000J0D01*
G01*
X126625000Y-116300000D01*
G75*
G02*
X126550000Y-116225000I0J75000D01*
G01*
G37*
%TD.AperFunction*%
%TO.P,U2,13*%
%TO.N,/CS8*%
%TA.AperFunction,SMDPad,CuDef*%
G36*
G01*
X126550000Y-115575000D02*
X126550000Y-115425000D01*
G75*
G02*
X126625000Y-115350000I75000J0D01*
G01*
X127275000Y-115350000D01*
G75*
G02*
X127350000Y-115425000I0J-75000D01*
G01*
X127350000Y-115575000D01*
G75*
G02*
X127275000Y-115650000I-75000J0D01*
G01*
X126625000Y-115650000D01*
G75*
G02*
X126550000Y-115575000I0J75000D01*
G01*
G37*
%TD.AperFunction*%
%TO.P,U2,14*%
%TO.N,/MISO*%
%TA.AperFunction,SMDPad,CuDef*%
G36*
G01*
X126550000Y-114925000D02*
X126550000Y-114775000D01*
G75*
G02*
X126625000Y-114700000I75000J0D01*
G01*
X127275000Y-114700000D01*
G75*
G02*
X127350000Y-114775000I0J-75000D01*
G01*
X127350000Y-114925000D01*
G75*
G02*
X127275000Y-115000000I-75000J0D01*
G01*
X126625000Y-115000000D01*
G75*
G02*
X126550000Y-114925000I0J75000D01*
G01*
G37*
%TD.AperFunction*%
%TO.P,U2,15*%
%TO.N,GND*%
%TA.AperFunction,SMDPad,CuDef*%
G36*
G01*
X126550000Y-114275000D02*
X126550000Y-114125000D01*
G75*
G02*
X126625000Y-114050000I75000J0D01*
G01*
X127275000Y-114050000D01*
G75*
G02*
X127350000Y-114125000I0J-75000D01*
G01*
X127350000Y-114275000D01*
G75*
G02*
X127275000Y-114350000I-75000J0D01*
G01*
X126625000Y-114350000D01*
G75*
G02*
X126550000Y-114275000I0J75000D01*
G01*
G37*
%TD.AperFunction*%
%TO.P,U2,16*%
%TA.AperFunction,SMDPad,CuDef*%
G36*
G01*
X125650000Y-113375000D02*
X125650000Y-112725000D01*
G75*
G02*
X125725000Y-112650000I75000J0D01*
G01*
X125875000Y-112650000D01*
G75*
G02*
X125950000Y-112725000I0J-75000D01*
G01*
X125950000Y-113375000D01*
G75*
G02*
X125875000Y-113450000I-75000J0D01*
G01*
X125725000Y-113450000D01*
G75*
G02*
X125650000Y-113375000I0J75000D01*
G01*
G37*
%TD.AperFunction*%
%TO.P,U2,17*%
%TO.N,Net-(U2-Pad17)*%
%TA.AperFunction,SMDPad,CuDef*%
G36*
G01*
X125000000Y-113375000D02*
X125000000Y-112725000D01*
G75*
G02*
X125075000Y-112650000I75000J0D01*
G01*
X125225000Y-112650000D01*
G75*
G02*
X125300000Y-112725000I0J-75000D01*
G01*
X125300000Y-113375000D01*
G75*
G02*
X125225000Y-113450000I-75000J0D01*
G01*
X125075000Y-113450000D01*
G75*
G02*
X125000000Y-113375000I0J75000D01*
G01*
G37*
%TD.AperFunction*%
%TO.P,U2,18*%
%TO.N,/DRDY8*%
%TA.AperFunction,SMDPad,CuDef*%
G36*
G01*
X124350000Y-113375000D02*
X124350000Y-112725000D01*
G75*
G02*
X124425000Y-112650000I75000J0D01*
G01*
X124575000Y-112650000D01*
G75*
G02*
X124650000Y-112725000I0J-75000D01*
G01*
X124650000Y-113375000D01*
G75*
G02*
X124575000Y-113450000I-75000J0D01*
G01*
X124425000Y-113450000D01*
G75*
G02*
X124350000Y-113375000I0J75000D01*
G01*
G37*
%TD.AperFunction*%
%TO.P,U2,19*%
%TO.N,+3V3*%
%TA.AperFunction,SMDPad,CuDef*%
G36*
G01*
X123700000Y-113375000D02*
X123700000Y-112725000D01*
G75*
G02*
X123775000Y-112650000I75000J0D01*
G01*
X123925000Y-112650000D01*
G75*
G02*
X124000000Y-112725000I0J-75000D01*
G01*
X124000000Y-113375000D01*
G75*
G02*
X123925000Y-113450000I-75000J0D01*
G01*
X123775000Y-113450000D01*
G75*
G02*
X123700000Y-113375000I0J75000D01*
G01*
G37*
%TD.AperFunction*%
%TO.P,U2,20*%
%TA.AperFunction,SMDPad,CuDef*%
G36*
G01*
X123050000Y-113375000D02*
X123050000Y-112725000D01*
G75*
G02*
X123125000Y-112650000I75000J0D01*
G01*
X123275000Y-112650000D01*
G75*
G02*
X123350000Y-112725000I0J-75000D01*
G01*
X123350000Y-113375000D01*
G75*
G02*
X123275000Y-113450000I-75000J0D01*
G01*
X123125000Y-113450000D01*
G75*
G02*
X123050000Y-113375000I0J75000D01*
G01*
G37*
%TD.AperFunction*%
D11*
%TO.P,U2,21*%
%TO.N,GND*%
X124500000Y-115500000D03*
%TD*%
%TO.P,U3,21*%
%TO.N,GND*%
X114200000Y-93000000D03*
%TO.P,U3,20*%
%TO.N,+3V3*%
%TA.AperFunction,SMDPad,CuDef*%
G36*
G01*
X112750000Y-90875000D02*
X112750000Y-90225000D01*
G75*
G02*
X112825000Y-90150000I75000J0D01*
G01*
X112975000Y-90150000D01*
G75*
G02*
X113050000Y-90225000I0J-75000D01*
G01*
X113050000Y-90875000D01*
G75*
G02*
X112975000Y-90950000I-75000J0D01*
G01*
X112825000Y-90950000D01*
G75*
G02*
X112750000Y-90875000I0J75000D01*
G01*
G37*
%TD.AperFunction*%
%TO.P,U3,19*%
%TA.AperFunction,SMDPad,CuDef*%
G36*
G01*
X113400000Y-90875000D02*
X113400000Y-90225000D01*
G75*
G02*
X113475000Y-90150000I75000J0D01*
G01*
X113625000Y-90150000D01*
G75*
G02*
X113700000Y-90225000I0J-75000D01*
G01*
X113700000Y-90875000D01*
G75*
G02*
X113625000Y-90950000I-75000J0D01*
G01*
X113475000Y-90950000D01*
G75*
G02*
X113400000Y-90875000I0J75000D01*
G01*
G37*
%TD.AperFunction*%
%TO.P,U3,18*%
%TO.N,/DRDY1*%
%TA.AperFunction,SMDPad,CuDef*%
G36*
G01*
X114050000Y-90875000D02*
X114050000Y-90225000D01*
G75*
G02*
X114125000Y-90150000I75000J0D01*
G01*
X114275000Y-90150000D01*
G75*
G02*
X114350000Y-90225000I0J-75000D01*
G01*
X114350000Y-90875000D01*
G75*
G02*
X114275000Y-90950000I-75000J0D01*
G01*
X114125000Y-90950000D01*
G75*
G02*
X114050000Y-90875000I0J75000D01*
G01*
G37*
%TD.AperFunction*%
%TO.P,U3,17*%
%TO.N,Net-(U3-Pad17)*%
%TA.AperFunction,SMDPad,CuDef*%
G36*
G01*
X114700000Y-90875000D02*
X114700000Y-90225000D01*
G75*
G02*
X114775000Y-90150000I75000J0D01*
G01*
X114925000Y-90150000D01*
G75*
G02*
X115000000Y-90225000I0J-75000D01*
G01*
X115000000Y-90875000D01*
G75*
G02*
X114925000Y-90950000I-75000J0D01*
G01*
X114775000Y-90950000D01*
G75*
G02*
X114700000Y-90875000I0J75000D01*
G01*
G37*
%TD.AperFunction*%
%TO.P,U3,16*%
%TO.N,GND*%
%TA.AperFunction,SMDPad,CuDef*%
G36*
G01*
X115350000Y-90875000D02*
X115350000Y-90225000D01*
G75*
G02*
X115425000Y-90150000I75000J0D01*
G01*
X115575000Y-90150000D01*
G75*
G02*
X115650000Y-90225000I0J-75000D01*
G01*
X115650000Y-90875000D01*
G75*
G02*
X115575000Y-90950000I-75000J0D01*
G01*
X115425000Y-90950000D01*
G75*
G02*
X115350000Y-90875000I0J75000D01*
G01*
G37*
%TD.AperFunction*%
%TO.P,U3,15*%
%TA.AperFunction,SMDPad,CuDef*%
G36*
G01*
X116250000Y-91775000D02*
X116250000Y-91625000D01*
G75*
G02*
X116325000Y-91550000I75000J0D01*
G01*
X116975000Y-91550000D01*
G75*
G02*
X117050000Y-91625000I0J-75000D01*
G01*
X117050000Y-91775000D01*
G75*
G02*
X116975000Y-91850000I-75000J0D01*
G01*
X116325000Y-91850000D01*
G75*
G02*
X116250000Y-91775000I0J75000D01*
G01*
G37*
%TD.AperFunction*%
%TO.P,U3,14*%
%TO.N,/MISO*%
%TA.AperFunction,SMDPad,CuDef*%
G36*
G01*
X116250000Y-92425000D02*
X116250000Y-92275000D01*
G75*
G02*
X116325000Y-92200000I75000J0D01*
G01*
X116975000Y-92200000D01*
G75*
G02*
X117050000Y-92275000I0J-75000D01*
G01*
X117050000Y-92425000D01*
G75*
G02*
X116975000Y-92500000I-75000J0D01*
G01*
X116325000Y-92500000D01*
G75*
G02*
X116250000Y-92425000I0J75000D01*
G01*
G37*
%TD.AperFunction*%
%TO.P,U3,13*%
%TO.N,/CS1*%
%TA.AperFunction,SMDPad,CuDef*%
G36*
G01*
X116250000Y-93075000D02*
X116250000Y-92925000D01*
G75*
G02*
X116325000Y-92850000I75000J0D01*
G01*
X116975000Y-92850000D01*
G75*
G02*
X117050000Y-92925000I0J-75000D01*
G01*
X117050000Y-93075000D01*
G75*
G02*
X116975000Y-93150000I-75000J0D01*
G01*
X116325000Y-93150000D01*
G75*
G02*
X116250000Y-93075000I0J75000D01*
G01*
G37*
%TD.AperFunction*%
%TO.P,U3,12*%
%TO.N,/SCLK*%
%TA.AperFunction,SMDPad,CuDef*%
G36*
G01*
X116250000Y-93725000D02*
X116250000Y-93575000D01*
G75*
G02*
X116325000Y-93500000I75000J0D01*
G01*
X116975000Y-93500000D01*
G75*
G02*
X117050000Y-93575000I0J-75000D01*
G01*
X117050000Y-93725000D01*
G75*
G02*
X116975000Y-93800000I-75000J0D01*
G01*
X116325000Y-93800000D01*
G75*
G02*
X116250000Y-93725000I0J75000D01*
G01*
G37*
%TD.AperFunction*%
%TO.P,U3,11*%
%TO.N,/MOSI*%
%TA.AperFunction,SMDPad,CuDef*%
G36*
G01*
X116250000Y-94375000D02*
X116250000Y-94225000D01*
G75*
G02*
X116325000Y-94150000I75000J0D01*
G01*
X116975000Y-94150000D01*
G75*
G02*
X117050000Y-94225000I0J-75000D01*
G01*
X117050000Y-94375000D01*
G75*
G02*
X116975000Y-94450000I-75000J0D01*
G01*
X116325000Y-94450000D01*
G75*
G02*
X116250000Y-94375000I0J75000D01*
G01*
G37*
%TD.AperFunction*%
%TO.P,U3,10*%
%TO.N,GND*%
%TA.AperFunction,SMDPad,CuDef*%
G36*
G01*
X115350000Y-95775000D02*
X115350000Y-95125000D01*
G75*
G02*
X115425000Y-95050000I75000J0D01*
G01*
X115575000Y-95050000D01*
G75*
G02*
X115650000Y-95125000I0J-75000D01*
G01*
X115650000Y-95775000D01*
G75*
G02*
X115575000Y-95850000I-75000J0D01*
G01*
X115425000Y-95850000D01*
G75*
G02*
X115350000Y-95775000I0J75000D01*
G01*
G37*
%TD.AperFunction*%
%TO.P,U3,9*%
%TO.N,Net-(J4-Pad4)*%
%TA.AperFunction,SMDPad,CuDef*%
G36*
G01*
X114700000Y-95775000D02*
X114700000Y-95125000D01*
G75*
G02*
X114775000Y-95050000I75000J0D01*
G01*
X114925000Y-95050000D01*
G75*
G02*
X115000000Y-95125000I0J-75000D01*
G01*
X115000000Y-95775000D01*
G75*
G02*
X114925000Y-95850000I-75000J0D01*
G01*
X114775000Y-95850000D01*
G75*
G02*
X114700000Y-95775000I0J75000D01*
G01*
G37*
%TD.AperFunction*%
%TO.P,U3,8*%
%TO.N,Net-(C11-Pad1)*%
%TA.AperFunction,SMDPad,CuDef*%
G36*
G01*
X114050000Y-95775000D02*
X114050000Y-95125000D01*
G75*
G02*
X114125000Y-95050000I75000J0D01*
G01*
X114275000Y-95050000D01*
G75*
G02*
X114350000Y-95125000I0J-75000D01*
G01*
X114350000Y-95775000D01*
G75*
G02*
X114275000Y-95850000I-75000J0D01*
G01*
X114125000Y-95850000D01*
G75*
G02*
X114050000Y-95775000I0J75000D01*
G01*
G37*
%TD.AperFunction*%
%TO.P,U3,7*%
%TO.N,Net-(C11-Pad2)*%
%TA.AperFunction,SMDPad,CuDef*%
G36*
G01*
X113400000Y-95775000D02*
X113400000Y-95125000D01*
G75*
G02*
X113475000Y-95050000I75000J0D01*
G01*
X113625000Y-95050000D01*
G75*
G02*
X113700000Y-95125000I0J-75000D01*
G01*
X113700000Y-95775000D01*
G75*
G02*
X113625000Y-95850000I-75000J0D01*
G01*
X113475000Y-95850000D01*
G75*
G02*
X113400000Y-95775000I0J75000D01*
G01*
G37*
%TD.AperFunction*%
%TO.P,U3,6*%
%TO.N,GND*%
%TA.AperFunction,SMDPad,CuDef*%
G36*
G01*
X112750000Y-95775000D02*
X112750000Y-95125000D01*
G75*
G02*
X112825000Y-95050000I75000J0D01*
G01*
X112975000Y-95050000D01*
G75*
G02*
X113050000Y-95125000I0J-75000D01*
G01*
X113050000Y-95775000D01*
G75*
G02*
X112975000Y-95850000I-75000J0D01*
G01*
X112825000Y-95850000D01*
G75*
G02*
X112750000Y-95775000I0J75000D01*
G01*
G37*
%TD.AperFunction*%
%TO.P,U3,5*%
%TO.N,Net-(J4-Pad1)*%
%TA.AperFunction,SMDPad,CuDef*%
G36*
G01*
X111350000Y-94375000D02*
X111350000Y-94225000D01*
G75*
G02*
X111425000Y-94150000I75000J0D01*
G01*
X112075000Y-94150000D01*
G75*
G02*
X112150000Y-94225000I0J-75000D01*
G01*
X112150000Y-94375000D01*
G75*
G02*
X112075000Y-94450000I-75000J0D01*
G01*
X111425000Y-94450000D01*
G75*
G02*
X111350000Y-94375000I0J75000D01*
G01*
G37*
%TD.AperFunction*%
%TO.P,U3,4*%
%TO.N,Net-(R3-Pad2)*%
%TA.AperFunction,SMDPad,CuDef*%
G36*
G01*
X111350000Y-93725000D02*
X111350000Y-93575000D01*
G75*
G02*
X111425000Y-93500000I75000J0D01*
G01*
X112075000Y-93500000D01*
G75*
G02*
X112150000Y-93575000I0J-75000D01*
G01*
X112150000Y-93725000D01*
G75*
G02*
X112075000Y-93800000I-75000J0D01*
G01*
X111425000Y-93800000D01*
G75*
G02*
X111350000Y-93725000I0J75000D01*
G01*
G37*
%TD.AperFunction*%
%TO.P,U3,3*%
%TA.AperFunction,SMDPad,CuDef*%
G36*
G01*
X111350000Y-93075000D02*
X111350000Y-92925000D01*
G75*
G02*
X111425000Y-92850000I75000J0D01*
G01*
X112075000Y-92850000D01*
G75*
G02*
X112150000Y-92925000I0J-75000D01*
G01*
X112150000Y-93075000D01*
G75*
G02*
X112075000Y-93150000I-75000J0D01*
G01*
X111425000Y-93150000D01*
G75*
G02*
X111350000Y-93075000I0J75000D01*
G01*
G37*
%TD.AperFunction*%
%TO.P,U3,2*%
%TO.N,Net-(R3-Pad1)*%
%TA.AperFunction,SMDPad,CuDef*%
G36*
G01*
X111350000Y-92425000D02*
X111350000Y-92275000D01*
G75*
G02*
X111425000Y-92200000I75000J0D01*
G01*
X112075000Y-92200000D01*
G75*
G02*
X112150000Y-92275000I0J-75000D01*
G01*
X112150000Y-92425000D01*
G75*
G02*
X112075000Y-92500000I-75000J0D01*
G01*
X111425000Y-92500000D01*
G75*
G02*
X111350000Y-92425000I0J75000D01*
G01*
G37*
%TD.AperFunction*%
%TO.P,U3,1*%
%TA.AperFunction,SMDPad,CuDef*%
G36*
G01*
X111350000Y-91775000D02*
X111350000Y-91625000D01*
G75*
G02*
X111425000Y-91550000I75000J0D01*
G01*
X112075000Y-91550000D01*
G75*
G02*
X112150000Y-91625000I0J-75000D01*
G01*
X112150000Y-91775000D01*
G75*
G02*
X112075000Y-91850000I-75000J0D01*
G01*
X111425000Y-91850000D01*
G75*
G02*
X111350000Y-91775000I0J75000D01*
G01*
G37*
%TD.AperFunction*%
%TD*%
%TO.P,U4,21*%
%TO.N,GND*%
X129200000Y-93000000D03*
%TO.P,U4,20*%
%TO.N,+3V3*%
%TA.AperFunction,SMDPad,CuDef*%
G36*
G01*
X127750000Y-90875000D02*
X127750000Y-90225000D01*
G75*
G02*
X127825000Y-90150000I75000J0D01*
G01*
X127975000Y-90150000D01*
G75*
G02*
X128050000Y-90225000I0J-75000D01*
G01*
X128050000Y-90875000D01*
G75*
G02*
X127975000Y-90950000I-75000J0D01*
G01*
X127825000Y-90950000D01*
G75*
G02*
X127750000Y-90875000I0J75000D01*
G01*
G37*
%TD.AperFunction*%
%TO.P,U4,19*%
%TA.AperFunction,SMDPad,CuDef*%
G36*
G01*
X128400000Y-90875000D02*
X128400000Y-90225000D01*
G75*
G02*
X128475000Y-90150000I75000J0D01*
G01*
X128625000Y-90150000D01*
G75*
G02*
X128700000Y-90225000I0J-75000D01*
G01*
X128700000Y-90875000D01*
G75*
G02*
X128625000Y-90950000I-75000J0D01*
G01*
X128475000Y-90950000D01*
G75*
G02*
X128400000Y-90875000I0J75000D01*
G01*
G37*
%TD.AperFunction*%
%TO.P,U4,18*%
%TO.N,/DRDY4*%
%TA.AperFunction,SMDPad,CuDef*%
G36*
G01*
X129050000Y-90875000D02*
X129050000Y-90225000D01*
G75*
G02*
X129125000Y-90150000I75000J0D01*
G01*
X129275000Y-90150000D01*
G75*
G02*
X129350000Y-90225000I0J-75000D01*
G01*
X129350000Y-90875000D01*
G75*
G02*
X129275000Y-90950000I-75000J0D01*
G01*
X129125000Y-90950000D01*
G75*
G02*
X129050000Y-90875000I0J75000D01*
G01*
G37*
%TD.AperFunction*%
%TO.P,U4,17*%
%TO.N,Net-(U4-Pad17)*%
%TA.AperFunction,SMDPad,CuDef*%
G36*
G01*
X129700000Y-90875000D02*
X129700000Y-90225000D01*
G75*
G02*
X129775000Y-90150000I75000J0D01*
G01*
X129925000Y-90150000D01*
G75*
G02*
X130000000Y-90225000I0J-75000D01*
G01*
X130000000Y-90875000D01*
G75*
G02*
X129925000Y-90950000I-75000J0D01*
G01*
X129775000Y-90950000D01*
G75*
G02*
X129700000Y-90875000I0J75000D01*
G01*
G37*
%TD.AperFunction*%
%TO.P,U4,16*%
%TO.N,GND*%
%TA.AperFunction,SMDPad,CuDef*%
G36*
G01*
X130350000Y-90875000D02*
X130350000Y-90225000D01*
G75*
G02*
X130425000Y-90150000I75000J0D01*
G01*
X130575000Y-90150000D01*
G75*
G02*
X130650000Y-90225000I0J-75000D01*
G01*
X130650000Y-90875000D01*
G75*
G02*
X130575000Y-90950000I-75000J0D01*
G01*
X130425000Y-90950000D01*
G75*
G02*
X130350000Y-90875000I0J75000D01*
G01*
G37*
%TD.AperFunction*%
%TO.P,U4,15*%
%TA.AperFunction,SMDPad,CuDef*%
G36*
G01*
X131250000Y-91775000D02*
X131250000Y-91625000D01*
G75*
G02*
X131325000Y-91550000I75000J0D01*
G01*
X131975000Y-91550000D01*
G75*
G02*
X132050000Y-91625000I0J-75000D01*
G01*
X132050000Y-91775000D01*
G75*
G02*
X131975000Y-91850000I-75000J0D01*
G01*
X131325000Y-91850000D01*
G75*
G02*
X131250000Y-91775000I0J75000D01*
G01*
G37*
%TD.AperFunction*%
%TO.P,U4,14*%
%TO.N,/MISO*%
%TA.AperFunction,SMDPad,CuDef*%
G36*
G01*
X131250000Y-92425000D02*
X131250000Y-92275000D01*
G75*
G02*
X131325000Y-92200000I75000J0D01*
G01*
X131975000Y-92200000D01*
G75*
G02*
X132050000Y-92275000I0J-75000D01*
G01*
X132050000Y-92425000D01*
G75*
G02*
X131975000Y-92500000I-75000J0D01*
G01*
X131325000Y-92500000D01*
G75*
G02*
X131250000Y-92425000I0J75000D01*
G01*
G37*
%TD.AperFunction*%
%TO.P,U4,13*%
%TO.N,/CS4*%
%TA.AperFunction,SMDPad,CuDef*%
G36*
G01*
X131250000Y-93075000D02*
X131250000Y-92925000D01*
G75*
G02*
X131325000Y-92850000I75000J0D01*
G01*
X131975000Y-92850000D01*
G75*
G02*
X132050000Y-92925000I0J-75000D01*
G01*
X132050000Y-93075000D01*
G75*
G02*
X131975000Y-93150000I-75000J0D01*
G01*
X131325000Y-93150000D01*
G75*
G02*
X131250000Y-93075000I0J75000D01*
G01*
G37*
%TD.AperFunction*%
%TO.P,U4,12*%
%TO.N,/SCLK*%
%TA.AperFunction,SMDPad,CuDef*%
G36*
G01*
X131250000Y-93725000D02*
X131250000Y-93575000D01*
G75*
G02*
X131325000Y-93500000I75000J0D01*
G01*
X131975000Y-93500000D01*
G75*
G02*
X132050000Y-93575000I0J-75000D01*
G01*
X132050000Y-93725000D01*
G75*
G02*
X131975000Y-93800000I-75000J0D01*
G01*
X131325000Y-93800000D01*
G75*
G02*
X131250000Y-93725000I0J75000D01*
G01*
G37*
%TD.AperFunction*%
%TO.P,U4,11*%
%TO.N,/MOSI*%
%TA.AperFunction,SMDPad,CuDef*%
G36*
G01*
X131250000Y-94375000D02*
X131250000Y-94225000D01*
G75*
G02*
X131325000Y-94150000I75000J0D01*
G01*
X131975000Y-94150000D01*
G75*
G02*
X132050000Y-94225000I0J-75000D01*
G01*
X132050000Y-94375000D01*
G75*
G02*
X131975000Y-94450000I-75000J0D01*
G01*
X131325000Y-94450000D01*
G75*
G02*
X131250000Y-94375000I0J75000D01*
G01*
G37*
%TD.AperFunction*%
%TO.P,U4,10*%
%TO.N,GND*%
%TA.AperFunction,SMDPad,CuDef*%
G36*
G01*
X130350000Y-95775000D02*
X130350000Y-95125000D01*
G75*
G02*
X130425000Y-95050000I75000J0D01*
G01*
X130575000Y-95050000D01*
G75*
G02*
X130650000Y-95125000I0J-75000D01*
G01*
X130650000Y-95775000D01*
G75*
G02*
X130575000Y-95850000I-75000J0D01*
G01*
X130425000Y-95850000D01*
G75*
G02*
X130350000Y-95775000I0J75000D01*
G01*
G37*
%TD.AperFunction*%
%TO.P,U4,9*%
%TO.N,Net-(J5-Pad4)*%
%TA.AperFunction,SMDPad,CuDef*%
G36*
G01*
X129700000Y-95775000D02*
X129700000Y-95125000D01*
G75*
G02*
X129775000Y-95050000I75000J0D01*
G01*
X129925000Y-95050000D01*
G75*
G02*
X130000000Y-95125000I0J-75000D01*
G01*
X130000000Y-95775000D01*
G75*
G02*
X129925000Y-95850000I-75000J0D01*
G01*
X129775000Y-95850000D01*
G75*
G02*
X129700000Y-95775000I0J75000D01*
G01*
G37*
%TD.AperFunction*%
%TO.P,U4,8*%
%TO.N,Net-(C12-Pad1)*%
%TA.AperFunction,SMDPad,CuDef*%
G36*
G01*
X129050000Y-95775000D02*
X129050000Y-95125000D01*
G75*
G02*
X129125000Y-95050000I75000J0D01*
G01*
X129275000Y-95050000D01*
G75*
G02*
X129350000Y-95125000I0J-75000D01*
G01*
X129350000Y-95775000D01*
G75*
G02*
X129275000Y-95850000I-75000J0D01*
G01*
X129125000Y-95850000D01*
G75*
G02*
X129050000Y-95775000I0J75000D01*
G01*
G37*
%TD.AperFunction*%
%TO.P,U4,7*%
%TO.N,Net-(C12-Pad2)*%
%TA.AperFunction,SMDPad,CuDef*%
G36*
G01*
X128400000Y-95775000D02*
X128400000Y-95125000D01*
G75*
G02*
X128475000Y-95050000I75000J0D01*
G01*
X128625000Y-95050000D01*
G75*
G02*
X128700000Y-95125000I0J-75000D01*
G01*
X128700000Y-95775000D01*
G75*
G02*
X128625000Y-95850000I-75000J0D01*
G01*
X128475000Y-95850000D01*
G75*
G02*
X128400000Y-95775000I0J75000D01*
G01*
G37*
%TD.AperFunction*%
%TO.P,U4,6*%
%TO.N,GND*%
%TA.AperFunction,SMDPad,CuDef*%
G36*
G01*
X127750000Y-95775000D02*
X127750000Y-95125000D01*
G75*
G02*
X127825000Y-95050000I75000J0D01*
G01*
X127975000Y-95050000D01*
G75*
G02*
X128050000Y-95125000I0J-75000D01*
G01*
X128050000Y-95775000D01*
G75*
G02*
X127975000Y-95850000I-75000J0D01*
G01*
X127825000Y-95850000D01*
G75*
G02*
X127750000Y-95775000I0J75000D01*
G01*
G37*
%TD.AperFunction*%
%TO.P,U4,5*%
%TO.N,Net-(J5-Pad1)*%
%TA.AperFunction,SMDPad,CuDef*%
G36*
G01*
X126350000Y-94375000D02*
X126350000Y-94225000D01*
G75*
G02*
X126425000Y-94150000I75000J0D01*
G01*
X127075000Y-94150000D01*
G75*
G02*
X127150000Y-94225000I0J-75000D01*
G01*
X127150000Y-94375000D01*
G75*
G02*
X127075000Y-94450000I-75000J0D01*
G01*
X126425000Y-94450000D01*
G75*
G02*
X126350000Y-94375000I0J75000D01*
G01*
G37*
%TD.AperFunction*%
%TO.P,U4,4*%
%TO.N,Net-(R4-Pad2)*%
%TA.AperFunction,SMDPad,CuDef*%
G36*
G01*
X126350000Y-93725000D02*
X126350000Y-93575000D01*
G75*
G02*
X126425000Y-93500000I75000J0D01*
G01*
X127075000Y-93500000D01*
G75*
G02*
X127150000Y-93575000I0J-75000D01*
G01*
X127150000Y-93725000D01*
G75*
G02*
X127075000Y-93800000I-75000J0D01*
G01*
X126425000Y-93800000D01*
G75*
G02*
X126350000Y-93725000I0J75000D01*
G01*
G37*
%TD.AperFunction*%
%TO.P,U4,3*%
%TA.AperFunction,SMDPad,CuDef*%
G36*
G01*
X126350000Y-93075000D02*
X126350000Y-92925000D01*
G75*
G02*
X126425000Y-92850000I75000J0D01*
G01*
X127075000Y-92850000D01*
G75*
G02*
X127150000Y-92925000I0J-75000D01*
G01*
X127150000Y-93075000D01*
G75*
G02*
X127075000Y-93150000I-75000J0D01*
G01*
X126425000Y-93150000D01*
G75*
G02*
X126350000Y-93075000I0J75000D01*
G01*
G37*
%TD.AperFunction*%
%TO.P,U4,2*%
%TO.N,Net-(R4-Pad1)*%
%TA.AperFunction,SMDPad,CuDef*%
G36*
G01*
X126350000Y-92425000D02*
X126350000Y-92275000D01*
G75*
G02*
X126425000Y-92200000I75000J0D01*
G01*
X127075000Y-92200000D01*
G75*
G02*
X127150000Y-92275000I0J-75000D01*
G01*
X127150000Y-92425000D01*
G75*
G02*
X127075000Y-92500000I-75000J0D01*
G01*
X126425000Y-92500000D01*
G75*
G02*
X126350000Y-92425000I0J75000D01*
G01*
G37*
%TD.AperFunction*%
%TO.P,U4,1*%
%TA.AperFunction,SMDPad,CuDef*%
G36*
G01*
X126350000Y-91775000D02*
X126350000Y-91625000D01*
G75*
G02*
X126425000Y-91550000I75000J0D01*
G01*
X127075000Y-91550000D01*
G75*
G02*
X127150000Y-91625000I0J-75000D01*
G01*
X127150000Y-91775000D01*
G75*
G02*
X127075000Y-91850000I-75000J0D01*
G01*
X126425000Y-91850000D01*
G75*
G02*
X126350000Y-91775000I0J75000D01*
G01*
G37*
%TD.AperFunction*%
%TD*%
%TO.P,U5,21*%
%TO.N,GND*%
X144200000Y-93000000D03*
%TO.P,U5,20*%
%TO.N,+3V3*%
%TA.AperFunction,SMDPad,CuDef*%
G36*
G01*
X142750000Y-90875000D02*
X142750000Y-90225000D01*
G75*
G02*
X142825000Y-90150000I75000J0D01*
G01*
X142975000Y-90150000D01*
G75*
G02*
X143050000Y-90225000I0J-75000D01*
G01*
X143050000Y-90875000D01*
G75*
G02*
X142975000Y-90950000I-75000J0D01*
G01*
X142825000Y-90950000D01*
G75*
G02*
X142750000Y-90875000I0J75000D01*
G01*
G37*
%TD.AperFunction*%
%TO.P,U5,19*%
%TA.AperFunction,SMDPad,CuDef*%
G36*
G01*
X143400000Y-90875000D02*
X143400000Y-90225000D01*
G75*
G02*
X143475000Y-90150000I75000J0D01*
G01*
X143625000Y-90150000D01*
G75*
G02*
X143700000Y-90225000I0J-75000D01*
G01*
X143700000Y-90875000D01*
G75*
G02*
X143625000Y-90950000I-75000J0D01*
G01*
X143475000Y-90950000D01*
G75*
G02*
X143400000Y-90875000I0J75000D01*
G01*
G37*
%TD.AperFunction*%
%TO.P,U5,18*%
%TO.N,/DRDY2*%
%TA.AperFunction,SMDPad,CuDef*%
G36*
G01*
X144050000Y-90875000D02*
X144050000Y-90225000D01*
G75*
G02*
X144125000Y-90150000I75000J0D01*
G01*
X144275000Y-90150000D01*
G75*
G02*
X144350000Y-90225000I0J-75000D01*
G01*
X144350000Y-90875000D01*
G75*
G02*
X144275000Y-90950000I-75000J0D01*
G01*
X144125000Y-90950000D01*
G75*
G02*
X144050000Y-90875000I0J75000D01*
G01*
G37*
%TD.AperFunction*%
%TO.P,U5,17*%
%TO.N,Net-(U5-Pad17)*%
%TA.AperFunction,SMDPad,CuDef*%
G36*
G01*
X144700000Y-90875000D02*
X144700000Y-90225000D01*
G75*
G02*
X144775000Y-90150000I75000J0D01*
G01*
X144925000Y-90150000D01*
G75*
G02*
X145000000Y-90225000I0J-75000D01*
G01*
X145000000Y-90875000D01*
G75*
G02*
X144925000Y-90950000I-75000J0D01*
G01*
X144775000Y-90950000D01*
G75*
G02*
X144700000Y-90875000I0J75000D01*
G01*
G37*
%TD.AperFunction*%
%TO.P,U5,16*%
%TO.N,GND*%
%TA.AperFunction,SMDPad,CuDef*%
G36*
G01*
X145350000Y-90875000D02*
X145350000Y-90225000D01*
G75*
G02*
X145425000Y-90150000I75000J0D01*
G01*
X145575000Y-90150000D01*
G75*
G02*
X145650000Y-90225000I0J-75000D01*
G01*
X145650000Y-90875000D01*
G75*
G02*
X145575000Y-90950000I-75000J0D01*
G01*
X145425000Y-90950000D01*
G75*
G02*
X145350000Y-90875000I0J75000D01*
G01*
G37*
%TD.AperFunction*%
%TO.P,U5,15*%
%TA.AperFunction,SMDPad,CuDef*%
G36*
G01*
X146250000Y-91775000D02*
X146250000Y-91625000D01*
G75*
G02*
X146325000Y-91550000I75000J0D01*
G01*
X146975000Y-91550000D01*
G75*
G02*
X147050000Y-91625000I0J-75000D01*
G01*
X147050000Y-91775000D01*
G75*
G02*
X146975000Y-91850000I-75000J0D01*
G01*
X146325000Y-91850000D01*
G75*
G02*
X146250000Y-91775000I0J75000D01*
G01*
G37*
%TD.AperFunction*%
%TO.P,U5,14*%
%TO.N,/MISO*%
%TA.AperFunction,SMDPad,CuDef*%
G36*
G01*
X146250000Y-92425000D02*
X146250000Y-92275000D01*
G75*
G02*
X146325000Y-92200000I75000J0D01*
G01*
X146975000Y-92200000D01*
G75*
G02*
X147050000Y-92275000I0J-75000D01*
G01*
X147050000Y-92425000D01*
G75*
G02*
X146975000Y-92500000I-75000J0D01*
G01*
X146325000Y-92500000D01*
G75*
G02*
X146250000Y-92425000I0J75000D01*
G01*
G37*
%TD.AperFunction*%
%TO.P,U5,13*%
%TO.N,/CS2*%
%TA.AperFunction,SMDPad,CuDef*%
G36*
G01*
X146250000Y-93075000D02*
X146250000Y-92925000D01*
G75*
G02*
X146325000Y-92850000I75000J0D01*
G01*
X146975000Y-92850000D01*
G75*
G02*
X147050000Y-92925000I0J-75000D01*
G01*
X147050000Y-93075000D01*
G75*
G02*
X146975000Y-93150000I-75000J0D01*
G01*
X146325000Y-93150000D01*
G75*
G02*
X146250000Y-93075000I0J75000D01*
G01*
G37*
%TD.AperFunction*%
%TO.P,U5,12*%
%TO.N,/SCLK*%
%TA.AperFunction,SMDPad,CuDef*%
G36*
G01*
X146250000Y-93725000D02*
X146250000Y-93575000D01*
G75*
G02*
X146325000Y-93500000I75000J0D01*
G01*
X146975000Y-93500000D01*
G75*
G02*
X147050000Y-93575000I0J-75000D01*
G01*
X147050000Y-93725000D01*
G75*
G02*
X146975000Y-93800000I-75000J0D01*
G01*
X146325000Y-93800000D01*
G75*
G02*
X146250000Y-93725000I0J75000D01*
G01*
G37*
%TD.AperFunction*%
%TO.P,U5,11*%
%TO.N,/MOSI*%
%TA.AperFunction,SMDPad,CuDef*%
G36*
G01*
X146250000Y-94375000D02*
X146250000Y-94225000D01*
G75*
G02*
X146325000Y-94150000I75000J0D01*
G01*
X146975000Y-94150000D01*
G75*
G02*
X147050000Y-94225000I0J-75000D01*
G01*
X147050000Y-94375000D01*
G75*
G02*
X146975000Y-94450000I-75000J0D01*
G01*
X146325000Y-94450000D01*
G75*
G02*
X146250000Y-94375000I0J75000D01*
G01*
G37*
%TD.AperFunction*%
%TO.P,U5,10*%
%TO.N,GND*%
%TA.AperFunction,SMDPad,CuDef*%
G36*
G01*
X145350000Y-95775000D02*
X145350000Y-95125000D01*
G75*
G02*
X145425000Y-95050000I75000J0D01*
G01*
X145575000Y-95050000D01*
G75*
G02*
X145650000Y-95125000I0J-75000D01*
G01*
X145650000Y-95775000D01*
G75*
G02*
X145575000Y-95850000I-75000J0D01*
G01*
X145425000Y-95850000D01*
G75*
G02*
X145350000Y-95775000I0J75000D01*
G01*
G37*
%TD.AperFunction*%
%TO.P,U5,9*%
%TO.N,Net-(J7-Pad4)*%
%TA.AperFunction,SMDPad,CuDef*%
G36*
G01*
X144700000Y-95775000D02*
X144700000Y-95125000D01*
G75*
G02*
X144775000Y-95050000I75000J0D01*
G01*
X144925000Y-95050000D01*
G75*
G02*
X145000000Y-95125000I0J-75000D01*
G01*
X145000000Y-95775000D01*
G75*
G02*
X144925000Y-95850000I-75000J0D01*
G01*
X144775000Y-95850000D01*
G75*
G02*
X144700000Y-95775000I0J75000D01*
G01*
G37*
%TD.AperFunction*%
%TO.P,U5,8*%
%TO.N,Net-(C17-Pad1)*%
%TA.AperFunction,SMDPad,CuDef*%
G36*
G01*
X144050000Y-95775000D02*
X144050000Y-95125000D01*
G75*
G02*
X144125000Y-95050000I75000J0D01*
G01*
X144275000Y-95050000D01*
G75*
G02*
X144350000Y-95125000I0J-75000D01*
G01*
X144350000Y-95775000D01*
G75*
G02*
X144275000Y-95850000I-75000J0D01*
G01*
X144125000Y-95850000D01*
G75*
G02*
X144050000Y-95775000I0J75000D01*
G01*
G37*
%TD.AperFunction*%
%TO.P,U5,7*%
%TO.N,Net-(C17-Pad2)*%
%TA.AperFunction,SMDPad,CuDef*%
G36*
G01*
X143400000Y-95775000D02*
X143400000Y-95125000D01*
G75*
G02*
X143475000Y-95050000I75000J0D01*
G01*
X143625000Y-95050000D01*
G75*
G02*
X143700000Y-95125000I0J-75000D01*
G01*
X143700000Y-95775000D01*
G75*
G02*
X143625000Y-95850000I-75000J0D01*
G01*
X143475000Y-95850000D01*
G75*
G02*
X143400000Y-95775000I0J75000D01*
G01*
G37*
%TD.AperFunction*%
%TO.P,U5,6*%
%TO.N,GND*%
%TA.AperFunction,SMDPad,CuDef*%
G36*
G01*
X142750000Y-95775000D02*
X142750000Y-95125000D01*
G75*
G02*
X142825000Y-95050000I75000J0D01*
G01*
X142975000Y-95050000D01*
G75*
G02*
X143050000Y-95125000I0J-75000D01*
G01*
X143050000Y-95775000D01*
G75*
G02*
X142975000Y-95850000I-75000J0D01*
G01*
X142825000Y-95850000D01*
G75*
G02*
X142750000Y-95775000I0J75000D01*
G01*
G37*
%TD.AperFunction*%
%TO.P,U5,5*%
%TO.N,Net-(J7-Pad1)*%
%TA.AperFunction,SMDPad,CuDef*%
G36*
G01*
X141350000Y-94375000D02*
X141350000Y-94225000D01*
G75*
G02*
X141425000Y-94150000I75000J0D01*
G01*
X142075000Y-94150000D01*
G75*
G02*
X142150000Y-94225000I0J-75000D01*
G01*
X142150000Y-94375000D01*
G75*
G02*
X142075000Y-94450000I-75000J0D01*
G01*
X141425000Y-94450000D01*
G75*
G02*
X141350000Y-94375000I0J75000D01*
G01*
G37*
%TD.AperFunction*%
%TO.P,U5,4*%
%TO.N,Net-(R5-Pad2)*%
%TA.AperFunction,SMDPad,CuDef*%
G36*
G01*
X141350000Y-93725000D02*
X141350000Y-93575000D01*
G75*
G02*
X141425000Y-93500000I75000J0D01*
G01*
X142075000Y-93500000D01*
G75*
G02*
X142150000Y-93575000I0J-75000D01*
G01*
X142150000Y-93725000D01*
G75*
G02*
X142075000Y-93800000I-75000J0D01*
G01*
X141425000Y-93800000D01*
G75*
G02*
X141350000Y-93725000I0J75000D01*
G01*
G37*
%TD.AperFunction*%
%TO.P,U5,3*%
%TA.AperFunction,SMDPad,CuDef*%
G36*
G01*
X141350000Y-93075000D02*
X141350000Y-92925000D01*
G75*
G02*
X141425000Y-92850000I75000J0D01*
G01*
X142075000Y-92850000D01*
G75*
G02*
X142150000Y-92925000I0J-75000D01*
G01*
X142150000Y-93075000D01*
G75*
G02*
X142075000Y-93150000I-75000J0D01*
G01*
X141425000Y-93150000D01*
G75*
G02*
X141350000Y-93075000I0J75000D01*
G01*
G37*
%TD.AperFunction*%
%TO.P,U5,2*%
%TO.N,Net-(R5-Pad1)*%
%TA.AperFunction,SMDPad,CuDef*%
G36*
G01*
X141350000Y-92425000D02*
X141350000Y-92275000D01*
G75*
G02*
X141425000Y-92200000I75000J0D01*
G01*
X142075000Y-92200000D01*
G75*
G02*
X142150000Y-92275000I0J-75000D01*
G01*
X142150000Y-92425000D01*
G75*
G02*
X142075000Y-92500000I-75000J0D01*
G01*
X141425000Y-92500000D01*
G75*
G02*
X141350000Y-92425000I0J75000D01*
G01*
G37*
%TD.AperFunction*%
%TO.P,U5,1*%
%TA.AperFunction,SMDPad,CuDef*%
G36*
G01*
X141350000Y-91775000D02*
X141350000Y-91625000D01*
G75*
G02*
X141425000Y-91550000I75000J0D01*
G01*
X142075000Y-91550000D01*
G75*
G02*
X142150000Y-91625000I0J-75000D01*
G01*
X142150000Y-91775000D01*
G75*
G02*
X142075000Y-91850000I-75000J0D01*
G01*
X141425000Y-91850000D01*
G75*
G02*
X141350000Y-91775000I0J75000D01*
G01*
G37*
%TD.AperFunction*%
%TD*%
%TO.P,U6,1*%
%TO.N,Net-(R6-Pad1)*%
%TA.AperFunction,SMDPad,CuDef*%
G36*
G01*
X156350000Y-91775000D02*
X156350000Y-91625000D01*
G75*
G02*
X156425000Y-91550000I75000J0D01*
G01*
X157075000Y-91550000D01*
G75*
G02*
X157150000Y-91625000I0J-75000D01*
G01*
X157150000Y-91775000D01*
G75*
G02*
X157075000Y-91850000I-75000J0D01*
G01*
X156425000Y-91850000D01*
G75*
G02*
X156350000Y-91775000I0J75000D01*
G01*
G37*
%TD.AperFunction*%
%TO.P,U6,2*%
%TA.AperFunction,SMDPad,CuDef*%
G36*
G01*
X156350000Y-92425000D02*
X156350000Y-92275000D01*
G75*
G02*
X156425000Y-92200000I75000J0D01*
G01*
X157075000Y-92200000D01*
G75*
G02*
X157150000Y-92275000I0J-75000D01*
G01*
X157150000Y-92425000D01*
G75*
G02*
X157075000Y-92500000I-75000J0D01*
G01*
X156425000Y-92500000D01*
G75*
G02*
X156350000Y-92425000I0J75000D01*
G01*
G37*
%TD.AperFunction*%
%TO.P,U6,3*%
%TO.N,Net-(R6-Pad2)*%
%TA.AperFunction,SMDPad,CuDef*%
G36*
G01*
X156350000Y-93075000D02*
X156350000Y-92925000D01*
G75*
G02*
X156425000Y-92850000I75000J0D01*
G01*
X157075000Y-92850000D01*
G75*
G02*
X157150000Y-92925000I0J-75000D01*
G01*
X157150000Y-93075000D01*
G75*
G02*
X157075000Y-93150000I-75000J0D01*
G01*
X156425000Y-93150000D01*
G75*
G02*
X156350000Y-93075000I0J75000D01*
G01*
G37*
%TD.AperFunction*%
%TO.P,U6,4*%
%TA.AperFunction,SMDPad,CuDef*%
G36*
G01*
X156350000Y-93725000D02*
X156350000Y-93575000D01*
G75*
G02*
X156425000Y-93500000I75000J0D01*
G01*
X157075000Y-93500000D01*
G75*
G02*
X157150000Y-93575000I0J-75000D01*
G01*
X157150000Y-93725000D01*
G75*
G02*
X157075000Y-93800000I-75000J0D01*
G01*
X156425000Y-93800000D01*
G75*
G02*
X156350000Y-93725000I0J75000D01*
G01*
G37*
%TD.AperFunction*%
%TO.P,U6,5*%
%TO.N,Net-(J8-Pad1)*%
%TA.AperFunction,SMDPad,CuDef*%
G36*
G01*
X156350000Y-94375000D02*
X156350000Y-94225000D01*
G75*
G02*
X156425000Y-94150000I75000J0D01*
G01*
X157075000Y-94150000D01*
G75*
G02*
X157150000Y-94225000I0J-75000D01*
G01*
X157150000Y-94375000D01*
G75*
G02*
X157075000Y-94450000I-75000J0D01*
G01*
X156425000Y-94450000D01*
G75*
G02*
X156350000Y-94375000I0J75000D01*
G01*
G37*
%TD.AperFunction*%
%TO.P,U6,6*%
%TO.N,GND*%
%TA.AperFunction,SMDPad,CuDef*%
G36*
G01*
X157750000Y-95775000D02*
X157750000Y-95125000D01*
G75*
G02*
X157825000Y-95050000I75000J0D01*
G01*
X157975000Y-95050000D01*
G75*
G02*
X158050000Y-95125000I0J-75000D01*
G01*
X158050000Y-95775000D01*
G75*
G02*
X157975000Y-95850000I-75000J0D01*
G01*
X157825000Y-95850000D01*
G75*
G02*
X157750000Y-95775000I0J75000D01*
G01*
G37*
%TD.AperFunction*%
%TO.P,U6,7*%
%TO.N,Net-(C18-Pad2)*%
%TA.AperFunction,SMDPad,CuDef*%
G36*
G01*
X158400000Y-95775000D02*
X158400000Y-95125000D01*
G75*
G02*
X158475000Y-95050000I75000J0D01*
G01*
X158625000Y-95050000D01*
G75*
G02*
X158700000Y-95125000I0J-75000D01*
G01*
X158700000Y-95775000D01*
G75*
G02*
X158625000Y-95850000I-75000J0D01*
G01*
X158475000Y-95850000D01*
G75*
G02*
X158400000Y-95775000I0J75000D01*
G01*
G37*
%TD.AperFunction*%
%TO.P,U6,8*%
%TO.N,Net-(C18-Pad1)*%
%TA.AperFunction,SMDPad,CuDef*%
G36*
G01*
X159050000Y-95775000D02*
X159050000Y-95125000D01*
G75*
G02*
X159125000Y-95050000I75000J0D01*
G01*
X159275000Y-95050000D01*
G75*
G02*
X159350000Y-95125000I0J-75000D01*
G01*
X159350000Y-95775000D01*
G75*
G02*
X159275000Y-95850000I-75000J0D01*
G01*
X159125000Y-95850000D01*
G75*
G02*
X159050000Y-95775000I0J75000D01*
G01*
G37*
%TD.AperFunction*%
%TO.P,U6,9*%
%TO.N,Net-(J8-Pad4)*%
%TA.AperFunction,SMDPad,CuDef*%
G36*
G01*
X159700000Y-95775000D02*
X159700000Y-95125000D01*
G75*
G02*
X159775000Y-95050000I75000J0D01*
G01*
X159925000Y-95050000D01*
G75*
G02*
X160000000Y-95125000I0J-75000D01*
G01*
X160000000Y-95775000D01*
G75*
G02*
X159925000Y-95850000I-75000J0D01*
G01*
X159775000Y-95850000D01*
G75*
G02*
X159700000Y-95775000I0J75000D01*
G01*
G37*
%TD.AperFunction*%
%TO.P,U6,10*%
%TO.N,GND*%
%TA.AperFunction,SMDPad,CuDef*%
G36*
G01*
X160350000Y-95775000D02*
X160350000Y-95125000D01*
G75*
G02*
X160425000Y-95050000I75000J0D01*
G01*
X160575000Y-95050000D01*
G75*
G02*
X160650000Y-95125000I0J-75000D01*
G01*
X160650000Y-95775000D01*
G75*
G02*
X160575000Y-95850000I-75000J0D01*
G01*
X160425000Y-95850000D01*
G75*
G02*
X160350000Y-95775000I0J75000D01*
G01*
G37*
%TD.AperFunction*%
%TO.P,U6,11*%
%TO.N,/MOSI*%
%TA.AperFunction,SMDPad,CuDef*%
G36*
G01*
X161250000Y-94375000D02*
X161250000Y-94225000D01*
G75*
G02*
X161325000Y-94150000I75000J0D01*
G01*
X161975000Y-94150000D01*
G75*
G02*
X162050000Y-94225000I0J-75000D01*
G01*
X162050000Y-94375000D01*
G75*
G02*
X161975000Y-94450000I-75000J0D01*
G01*
X161325000Y-94450000D01*
G75*
G02*
X161250000Y-94375000I0J75000D01*
G01*
G37*
%TD.AperFunction*%
%TO.P,U6,12*%
%TO.N,/SCLK*%
%TA.AperFunction,SMDPad,CuDef*%
G36*
G01*
X161250000Y-93725000D02*
X161250000Y-93575000D01*
G75*
G02*
X161325000Y-93500000I75000J0D01*
G01*
X161975000Y-93500000D01*
G75*
G02*
X162050000Y-93575000I0J-75000D01*
G01*
X162050000Y-93725000D01*
G75*
G02*
X161975000Y-93800000I-75000J0D01*
G01*
X161325000Y-93800000D01*
G75*
G02*
X161250000Y-93725000I0J75000D01*
G01*
G37*
%TD.AperFunction*%
%TO.P,U6,13*%
%TO.N,/CS5*%
%TA.AperFunction,SMDPad,CuDef*%
G36*
G01*
X161250000Y-93075000D02*
X161250000Y-92925000D01*
G75*
G02*
X161325000Y-92850000I75000J0D01*
G01*
X161975000Y-92850000D01*
G75*
G02*
X162050000Y-92925000I0J-75000D01*
G01*
X162050000Y-93075000D01*
G75*
G02*
X161975000Y-93150000I-75000J0D01*
G01*
X161325000Y-93150000D01*
G75*
G02*
X161250000Y-93075000I0J75000D01*
G01*
G37*
%TD.AperFunction*%
%TO.P,U6,14*%
%TO.N,/MISO*%
%TA.AperFunction,SMDPad,CuDef*%
G36*
G01*
X161250000Y-92425000D02*
X161250000Y-92275000D01*
G75*
G02*
X161325000Y-92200000I75000J0D01*
G01*
X161975000Y-92200000D01*
G75*
G02*
X162050000Y-92275000I0J-75000D01*
G01*
X162050000Y-92425000D01*
G75*
G02*
X161975000Y-92500000I-75000J0D01*
G01*
X161325000Y-92500000D01*
G75*
G02*
X161250000Y-92425000I0J75000D01*
G01*
G37*
%TD.AperFunction*%
%TO.P,U6,15*%
%TO.N,GND*%
%TA.AperFunction,SMDPad,CuDef*%
G36*
G01*
X161250000Y-91775000D02*
X161250000Y-91625000D01*
G75*
G02*
X161325000Y-91550000I75000J0D01*
G01*
X161975000Y-91550000D01*
G75*
G02*
X162050000Y-91625000I0J-75000D01*
G01*
X162050000Y-91775000D01*
G75*
G02*
X161975000Y-91850000I-75000J0D01*
G01*
X161325000Y-91850000D01*
G75*
G02*
X161250000Y-91775000I0J75000D01*
G01*
G37*
%TD.AperFunction*%
%TO.P,U6,16*%
%TA.AperFunction,SMDPad,CuDef*%
G36*
G01*
X160350000Y-90875000D02*
X160350000Y-90225000D01*
G75*
G02*
X160425000Y-90150000I75000J0D01*
G01*
X160575000Y-90150000D01*
G75*
G02*
X160650000Y-90225000I0J-75000D01*
G01*
X160650000Y-90875000D01*
G75*
G02*
X160575000Y-90950000I-75000J0D01*
G01*
X160425000Y-90950000D01*
G75*
G02*
X160350000Y-90875000I0J75000D01*
G01*
G37*
%TD.AperFunction*%
%TO.P,U6,17*%
%TO.N,Net-(U6-Pad17)*%
%TA.AperFunction,SMDPad,CuDef*%
G36*
G01*
X159700000Y-90875000D02*
X159700000Y-90225000D01*
G75*
G02*
X159775000Y-90150000I75000J0D01*
G01*
X159925000Y-90150000D01*
G75*
G02*
X160000000Y-90225000I0J-75000D01*
G01*
X160000000Y-90875000D01*
G75*
G02*
X159925000Y-90950000I-75000J0D01*
G01*
X159775000Y-90950000D01*
G75*
G02*
X159700000Y-90875000I0J75000D01*
G01*
G37*
%TD.AperFunction*%
%TO.P,U6,18*%
%TO.N,/DRDY5*%
%TA.AperFunction,SMDPad,CuDef*%
G36*
G01*
X159050000Y-90875000D02*
X159050000Y-90225000D01*
G75*
G02*
X159125000Y-90150000I75000J0D01*
G01*
X159275000Y-90150000D01*
G75*
G02*
X159350000Y-90225000I0J-75000D01*
G01*
X159350000Y-90875000D01*
G75*
G02*
X159275000Y-90950000I-75000J0D01*
G01*
X159125000Y-90950000D01*
G75*
G02*
X159050000Y-90875000I0J75000D01*
G01*
G37*
%TD.AperFunction*%
%TO.P,U6,19*%
%TO.N,+3V3*%
%TA.AperFunction,SMDPad,CuDef*%
G36*
G01*
X158400000Y-90875000D02*
X158400000Y-90225000D01*
G75*
G02*
X158475000Y-90150000I75000J0D01*
G01*
X158625000Y-90150000D01*
G75*
G02*
X158700000Y-90225000I0J-75000D01*
G01*
X158700000Y-90875000D01*
G75*
G02*
X158625000Y-90950000I-75000J0D01*
G01*
X158475000Y-90950000D01*
G75*
G02*
X158400000Y-90875000I0J75000D01*
G01*
G37*
%TD.AperFunction*%
%TO.P,U6,20*%
%TA.AperFunction,SMDPad,CuDef*%
G36*
G01*
X157750000Y-90875000D02*
X157750000Y-90225000D01*
G75*
G02*
X157825000Y-90150000I75000J0D01*
G01*
X157975000Y-90150000D01*
G75*
G02*
X158050000Y-90225000I0J-75000D01*
G01*
X158050000Y-90875000D01*
G75*
G02*
X157975000Y-90950000I-75000J0D01*
G01*
X157825000Y-90950000D01*
G75*
G02*
X157750000Y-90875000I0J75000D01*
G01*
G37*
%TD.AperFunction*%
%TO.P,U6,21*%
%TO.N,GND*%
X159200000Y-93000000D03*
%TD*%
%TO.P,U7,1*%
%TO.N,Net-(R7-Pad1)*%
%TA.AperFunction,SMDPad,CuDef*%
G36*
G01*
X134150000Y-114275000D02*
X134150000Y-114125000D01*
G75*
G02*
X134225000Y-114050000I75000J0D01*
G01*
X134875000Y-114050000D01*
G75*
G02*
X134950000Y-114125000I0J-75000D01*
G01*
X134950000Y-114275000D01*
G75*
G02*
X134875000Y-114350000I-75000J0D01*
G01*
X134225000Y-114350000D01*
G75*
G02*
X134150000Y-114275000I0J75000D01*
G01*
G37*
%TD.AperFunction*%
%TO.P,U7,2*%
%TA.AperFunction,SMDPad,CuDef*%
G36*
G01*
X134150000Y-114925000D02*
X134150000Y-114775000D01*
G75*
G02*
X134225000Y-114700000I75000J0D01*
G01*
X134875000Y-114700000D01*
G75*
G02*
X134950000Y-114775000I0J-75000D01*
G01*
X134950000Y-114925000D01*
G75*
G02*
X134875000Y-115000000I-75000J0D01*
G01*
X134225000Y-115000000D01*
G75*
G02*
X134150000Y-114925000I0J75000D01*
G01*
G37*
%TD.AperFunction*%
%TO.P,U7,3*%
%TO.N,Net-(R7-Pad2)*%
%TA.AperFunction,SMDPad,CuDef*%
G36*
G01*
X134150000Y-115575000D02*
X134150000Y-115425000D01*
G75*
G02*
X134225000Y-115350000I75000J0D01*
G01*
X134875000Y-115350000D01*
G75*
G02*
X134950000Y-115425000I0J-75000D01*
G01*
X134950000Y-115575000D01*
G75*
G02*
X134875000Y-115650000I-75000J0D01*
G01*
X134225000Y-115650000D01*
G75*
G02*
X134150000Y-115575000I0J75000D01*
G01*
G37*
%TD.AperFunction*%
%TO.P,U7,4*%
%TA.AperFunction,SMDPad,CuDef*%
G36*
G01*
X134150000Y-116225000D02*
X134150000Y-116075000D01*
G75*
G02*
X134225000Y-116000000I75000J0D01*
G01*
X134875000Y-116000000D01*
G75*
G02*
X134950000Y-116075000I0J-75000D01*
G01*
X134950000Y-116225000D01*
G75*
G02*
X134875000Y-116300000I-75000J0D01*
G01*
X134225000Y-116300000D01*
G75*
G02*
X134150000Y-116225000I0J75000D01*
G01*
G37*
%TD.AperFunction*%
%TO.P,U7,5*%
%TO.N,Net-(J9-Pad1)*%
%TA.AperFunction,SMDPad,CuDef*%
G36*
G01*
X134150000Y-116875000D02*
X134150000Y-116725000D01*
G75*
G02*
X134225000Y-116650000I75000J0D01*
G01*
X134875000Y-116650000D01*
G75*
G02*
X134950000Y-116725000I0J-75000D01*
G01*
X134950000Y-116875000D01*
G75*
G02*
X134875000Y-116950000I-75000J0D01*
G01*
X134225000Y-116950000D01*
G75*
G02*
X134150000Y-116875000I0J75000D01*
G01*
G37*
%TD.AperFunction*%
%TO.P,U7,6*%
%TO.N,GND*%
%TA.AperFunction,SMDPad,CuDef*%
G36*
G01*
X135550000Y-118275000D02*
X135550000Y-117625000D01*
G75*
G02*
X135625000Y-117550000I75000J0D01*
G01*
X135775000Y-117550000D01*
G75*
G02*
X135850000Y-117625000I0J-75000D01*
G01*
X135850000Y-118275000D01*
G75*
G02*
X135775000Y-118350000I-75000J0D01*
G01*
X135625000Y-118350000D01*
G75*
G02*
X135550000Y-118275000I0J75000D01*
G01*
G37*
%TD.AperFunction*%
%TO.P,U7,7*%
%TO.N,Net-(C23-Pad2)*%
%TA.AperFunction,SMDPad,CuDef*%
G36*
G01*
X136200000Y-118275000D02*
X136200000Y-117625000D01*
G75*
G02*
X136275000Y-117550000I75000J0D01*
G01*
X136425000Y-117550000D01*
G75*
G02*
X136500000Y-117625000I0J-75000D01*
G01*
X136500000Y-118275000D01*
G75*
G02*
X136425000Y-118350000I-75000J0D01*
G01*
X136275000Y-118350000D01*
G75*
G02*
X136200000Y-118275000I0J75000D01*
G01*
G37*
%TD.AperFunction*%
%TO.P,U7,8*%
%TO.N,Net-(C23-Pad1)*%
%TA.AperFunction,SMDPad,CuDef*%
G36*
G01*
X136850000Y-118275000D02*
X136850000Y-117625000D01*
G75*
G02*
X136925000Y-117550000I75000J0D01*
G01*
X137075000Y-117550000D01*
G75*
G02*
X137150000Y-117625000I0J-75000D01*
G01*
X137150000Y-118275000D01*
G75*
G02*
X137075000Y-118350000I-75000J0D01*
G01*
X136925000Y-118350000D01*
G75*
G02*
X136850000Y-118275000I0J75000D01*
G01*
G37*
%TD.AperFunction*%
%TO.P,U7,9*%
%TO.N,Net-(J9-Pad4)*%
%TA.AperFunction,SMDPad,CuDef*%
G36*
G01*
X137500000Y-118275000D02*
X137500000Y-117625000D01*
G75*
G02*
X137575000Y-117550000I75000J0D01*
G01*
X137725000Y-117550000D01*
G75*
G02*
X137800000Y-117625000I0J-75000D01*
G01*
X137800000Y-118275000D01*
G75*
G02*
X137725000Y-118350000I-75000J0D01*
G01*
X137575000Y-118350000D01*
G75*
G02*
X137500000Y-118275000I0J75000D01*
G01*
G37*
%TD.AperFunction*%
%TO.P,U7,10*%
%TO.N,GND*%
%TA.AperFunction,SMDPad,CuDef*%
G36*
G01*
X138150000Y-118275000D02*
X138150000Y-117625000D01*
G75*
G02*
X138225000Y-117550000I75000J0D01*
G01*
X138375000Y-117550000D01*
G75*
G02*
X138450000Y-117625000I0J-75000D01*
G01*
X138450000Y-118275000D01*
G75*
G02*
X138375000Y-118350000I-75000J0D01*
G01*
X138225000Y-118350000D01*
G75*
G02*
X138150000Y-118275000I0J75000D01*
G01*
G37*
%TD.AperFunction*%
%TO.P,U7,11*%
%TO.N,/MOSI*%
%TA.AperFunction,SMDPad,CuDef*%
G36*
G01*
X139050000Y-116875000D02*
X139050000Y-116725000D01*
G75*
G02*
X139125000Y-116650000I75000J0D01*
G01*
X139775000Y-116650000D01*
G75*
G02*
X139850000Y-116725000I0J-75000D01*
G01*
X139850000Y-116875000D01*
G75*
G02*
X139775000Y-116950000I-75000J0D01*
G01*
X139125000Y-116950000D01*
G75*
G02*
X139050000Y-116875000I0J75000D01*
G01*
G37*
%TD.AperFunction*%
%TO.P,U7,12*%
%TO.N,/SCLK*%
%TA.AperFunction,SMDPad,CuDef*%
G36*
G01*
X139050000Y-116225000D02*
X139050000Y-116075000D01*
G75*
G02*
X139125000Y-116000000I75000J0D01*
G01*
X139775000Y-116000000D01*
G75*
G02*
X139850000Y-116075000I0J-75000D01*
G01*
X139850000Y-116225000D01*
G75*
G02*
X139775000Y-116300000I-75000J0D01*
G01*
X139125000Y-116300000D01*
G75*
G02*
X139050000Y-116225000I0J75000D01*
G01*
G37*
%TD.AperFunction*%
%TO.P,U7,13*%
%TO.N,/CS3*%
%TA.AperFunction,SMDPad,CuDef*%
G36*
G01*
X139050000Y-115575000D02*
X139050000Y-115425000D01*
G75*
G02*
X139125000Y-115350000I75000J0D01*
G01*
X139775000Y-115350000D01*
G75*
G02*
X139850000Y-115425000I0J-75000D01*
G01*
X139850000Y-115575000D01*
G75*
G02*
X139775000Y-115650000I-75000J0D01*
G01*
X139125000Y-115650000D01*
G75*
G02*
X139050000Y-115575000I0J75000D01*
G01*
G37*
%TD.AperFunction*%
%TO.P,U7,14*%
%TO.N,/MISO*%
%TA.AperFunction,SMDPad,CuDef*%
G36*
G01*
X139050000Y-114925000D02*
X139050000Y-114775000D01*
G75*
G02*
X139125000Y-114700000I75000J0D01*
G01*
X139775000Y-114700000D01*
G75*
G02*
X139850000Y-114775000I0J-75000D01*
G01*
X139850000Y-114925000D01*
G75*
G02*
X139775000Y-115000000I-75000J0D01*
G01*
X139125000Y-115000000D01*
G75*
G02*
X139050000Y-114925000I0J75000D01*
G01*
G37*
%TD.AperFunction*%
%TO.P,U7,15*%
%TO.N,GND*%
%TA.AperFunction,SMDPad,CuDef*%
G36*
G01*
X139050000Y-114275000D02*
X139050000Y-114125000D01*
G75*
G02*
X139125000Y-114050000I75000J0D01*
G01*
X139775000Y-114050000D01*
G75*
G02*
X139850000Y-114125000I0J-75000D01*
G01*
X139850000Y-114275000D01*
G75*
G02*
X139775000Y-114350000I-75000J0D01*
G01*
X139125000Y-114350000D01*
G75*
G02*
X139050000Y-114275000I0J75000D01*
G01*
G37*
%TD.AperFunction*%
%TO.P,U7,16*%
%TA.AperFunction,SMDPad,CuDef*%
G36*
G01*
X138150000Y-113375000D02*
X138150000Y-112725000D01*
G75*
G02*
X138225000Y-112650000I75000J0D01*
G01*
X138375000Y-112650000D01*
G75*
G02*
X138450000Y-112725000I0J-75000D01*
G01*
X138450000Y-113375000D01*
G75*
G02*
X138375000Y-113450000I-75000J0D01*
G01*
X138225000Y-113450000D01*
G75*
G02*
X138150000Y-113375000I0J75000D01*
G01*
G37*
%TD.AperFunction*%
%TO.P,U7,17*%
%TO.N,Net-(U7-Pad17)*%
%TA.AperFunction,SMDPad,CuDef*%
G36*
G01*
X137500000Y-113375000D02*
X137500000Y-112725000D01*
G75*
G02*
X137575000Y-112650000I75000J0D01*
G01*
X137725000Y-112650000D01*
G75*
G02*
X137800000Y-112725000I0J-75000D01*
G01*
X137800000Y-113375000D01*
G75*
G02*
X137725000Y-113450000I-75000J0D01*
G01*
X137575000Y-113450000D01*
G75*
G02*
X137500000Y-113375000I0J75000D01*
G01*
G37*
%TD.AperFunction*%
%TO.P,U7,18*%
%TO.N,/DRDY3*%
%TA.AperFunction,SMDPad,CuDef*%
G36*
G01*
X136850000Y-113375000D02*
X136850000Y-112725000D01*
G75*
G02*
X136925000Y-112650000I75000J0D01*
G01*
X137075000Y-112650000D01*
G75*
G02*
X137150000Y-112725000I0J-75000D01*
G01*
X137150000Y-113375000D01*
G75*
G02*
X137075000Y-113450000I-75000J0D01*
G01*
X136925000Y-113450000D01*
G75*
G02*
X136850000Y-113375000I0J75000D01*
G01*
G37*
%TD.AperFunction*%
%TO.P,U7,19*%
%TO.N,+3V3*%
%TA.AperFunction,SMDPad,CuDef*%
G36*
G01*
X136200000Y-113375000D02*
X136200000Y-112725000D01*
G75*
G02*
X136275000Y-112650000I75000J0D01*
G01*
X136425000Y-112650000D01*
G75*
G02*
X136500000Y-112725000I0J-75000D01*
G01*
X136500000Y-113375000D01*
G75*
G02*
X136425000Y-113450000I-75000J0D01*
G01*
X136275000Y-113450000D01*
G75*
G02*
X136200000Y-113375000I0J75000D01*
G01*
G37*
%TD.AperFunction*%
%TO.P,U7,20*%
%TA.AperFunction,SMDPad,CuDef*%
G36*
G01*
X135550000Y-113375000D02*
X135550000Y-112725000D01*
G75*
G02*
X135625000Y-112650000I75000J0D01*
G01*
X135775000Y-112650000D01*
G75*
G02*
X135850000Y-112725000I0J-75000D01*
G01*
X135850000Y-113375000D01*
G75*
G02*
X135775000Y-113450000I-75000J0D01*
G01*
X135625000Y-113450000D01*
G75*
G02*
X135550000Y-113375000I0J75000D01*
G01*
G37*
%TD.AperFunction*%
%TO.P,U7,21*%
%TO.N,GND*%
X137000000Y-115500000D03*
%TD*%
%TO.P,U8,21*%
%TO.N,GND*%
X157000000Y-115500000D03*
%TO.P,U8,20*%
%TO.N,+3V3*%
%TA.AperFunction,SMDPad,CuDef*%
G36*
G01*
X155550000Y-113375000D02*
X155550000Y-112725000D01*
G75*
G02*
X155625000Y-112650000I75000J0D01*
G01*
X155775000Y-112650000D01*
G75*
G02*
X155850000Y-112725000I0J-75000D01*
G01*
X155850000Y-113375000D01*
G75*
G02*
X155775000Y-113450000I-75000J0D01*
G01*
X155625000Y-113450000D01*
G75*
G02*
X155550000Y-113375000I0J75000D01*
G01*
G37*
%TD.AperFunction*%
%TO.P,U8,19*%
%TA.AperFunction,SMDPad,CuDef*%
G36*
G01*
X156200000Y-113375000D02*
X156200000Y-112725000D01*
G75*
G02*
X156275000Y-112650000I75000J0D01*
G01*
X156425000Y-112650000D01*
G75*
G02*
X156500000Y-112725000I0J-75000D01*
G01*
X156500000Y-113375000D01*
G75*
G02*
X156425000Y-113450000I-75000J0D01*
G01*
X156275000Y-113450000D01*
G75*
G02*
X156200000Y-113375000I0J75000D01*
G01*
G37*
%TD.AperFunction*%
%TO.P,U8,18*%
%TO.N,/DRDY6*%
%TA.AperFunction,SMDPad,CuDef*%
G36*
G01*
X156850000Y-113375000D02*
X156850000Y-112725000D01*
G75*
G02*
X156925000Y-112650000I75000J0D01*
G01*
X157075000Y-112650000D01*
G75*
G02*
X157150000Y-112725000I0J-75000D01*
G01*
X157150000Y-113375000D01*
G75*
G02*
X157075000Y-113450000I-75000J0D01*
G01*
X156925000Y-113450000D01*
G75*
G02*
X156850000Y-113375000I0J75000D01*
G01*
G37*
%TD.AperFunction*%
%TO.P,U8,17*%
%TO.N,Net-(U8-Pad17)*%
%TA.AperFunction,SMDPad,CuDef*%
G36*
G01*
X157500000Y-113375000D02*
X157500000Y-112725000D01*
G75*
G02*
X157575000Y-112650000I75000J0D01*
G01*
X157725000Y-112650000D01*
G75*
G02*
X157800000Y-112725000I0J-75000D01*
G01*
X157800000Y-113375000D01*
G75*
G02*
X157725000Y-113450000I-75000J0D01*
G01*
X157575000Y-113450000D01*
G75*
G02*
X157500000Y-113375000I0J75000D01*
G01*
G37*
%TD.AperFunction*%
%TO.P,U8,16*%
%TO.N,GND*%
%TA.AperFunction,SMDPad,CuDef*%
G36*
G01*
X158150000Y-113375000D02*
X158150000Y-112725000D01*
G75*
G02*
X158225000Y-112650000I75000J0D01*
G01*
X158375000Y-112650000D01*
G75*
G02*
X158450000Y-112725000I0J-75000D01*
G01*
X158450000Y-113375000D01*
G75*
G02*
X158375000Y-113450000I-75000J0D01*
G01*
X158225000Y-113450000D01*
G75*
G02*
X158150000Y-113375000I0J75000D01*
G01*
G37*
%TD.AperFunction*%
%TO.P,U8,15*%
%TA.AperFunction,SMDPad,CuDef*%
G36*
G01*
X159050000Y-114275000D02*
X159050000Y-114125000D01*
G75*
G02*
X159125000Y-114050000I75000J0D01*
G01*
X159775000Y-114050000D01*
G75*
G02*
X159850000Y-114125000I0J-75000D01*
G01*
X159850000Y-114275000D01*
G75*
G02*
X159775000Y-114350000I-75000J0D01*
G01*
X159125000Y-114350000D01*
G75*
G02*
X159050000Y-114275000I0J75000D01*
G01*
G37*
%TD.AperFunction*%
%TO.P,U8,14*%
%TO.N,/MISO*%
%TA.AperFunction,SMDPad,CuDef*%
G36*
G01*
X159050000Y-114925000D02*
X159050000Y-114775000D01*
G75*
G02*
X159125000Y-114700000I75000J0D01*
G01*
X159775000Y-114700000D01*
G75*
G02*
X159850000Y-114775000I0J-75000D01*
G01*
X159850000Y-114925000D01*
G75*
G02*
X159775000Y-115000000I-75000J0D01*
G01*
X159125000Y-115000000D01*
G75*
G02*
X159050000Y-114925000I0J75000D01*
G01*
G37*
%TD.AperFunction*%
%TO.P,U8,13*%
%TO.N,/CS6*%
%TA.AperFunction,SMDPad,CuDef*%
G36*
G01*
X159050000Y-115575000D02*
X159050000Y-115425000D01*
G75*
G02*
X159125000Y-115350000I75000J0D01*
G01*
X159775000Y-115350000D01*
G75*
G02*
X159850000Y-115425000I0J-75000D01*
G01*
X159850000Y-115575000D01*
G75*
G02*
X159775000Y-115650000I-75000J0D01*
G01*
X159125000Y-115650000D01*
G75*
G02*
X159050000Y-115575000I0J75000D01*
G01*
G37*
%TD.AperFunction*%
%TO.P,U8,12*%
%TO.N,/SCLK*%
%TA.AperFunction,SMDPad,CuDef*%
G36*
G01*
X159050000Y-116225000D02*
X159050000Y-116075000D01*
G75*
G02*
X159125000Y-116000000I75000J0D01*
G01*
X159775000Y-116000000D01*
G75*
G02*
X159850000Y-116075000I0J-75000D01*
G01*
X159850000Y-116225000D01*
G75*
G02*
X159775000Y-116300000I-75000J0D01*
G01*
X159125000Y-116300000D01*
G75*
G02*
X159050000Y-116225000I0J75000D01*
G01*
G37*
%TD.AperFunction*%
%TO.P,U8,11*%
%TO.N,/MOSI*%
%TA.AperFunction,SMDPad,CuDef*%
G36*
G01*
X159050000Y-116875000D02*
X159050000Y-116725000D01*
G75*
G02*
X159125000Y-116650000I75000J0D01*
G01*
X159775000Y-116650000D01*
G75*
G02*
X159850000Y-116725000I0J-75000D01*
G01*
X159850000Y-116875000D01*
G75*
G02*
X159775000Y-116950000I-75000J0D01*
G01*
X159125000Y-116950000D01*
G75*
G02*
X159050000Y-116875000I0J75000D01*
G01*
G37*
%TD.AperFunction*%
%TO.P,U8,10*%
%TO.N,GND*%
%TA.AperFunction,SMDPad,CuDef*%
G36*
G01*
X158150000Y-118275000D02*
X158150000Y-117625000D01*
G75*
G02*
X158225000Y-117550000I75000J0D01*
G01*
X158375000Y-117550000D01*
G75*
G02*
X158450000Y-117625000I0J-75000D01*
G01*
X158450000Y-118275000D01*
G75*
G02*
X158375000Y-118350000I-75000J0D01*
G01*
X158225000Y-118350000D01*
G75*
G02*
X158150000Y-118275000I0J75000D01*
G01*
G37*
%TD.AperFunction*%
%TO.P,U8,9*%
%TO.N,Net-(J10-Pad4)*%
%TA.AperFunction,SMDPad,CuDef*%
G36*
G01*
X157500000Y-118275000D02*
X157500000Y-117625000D01*
G75*
G02*
X157575000Y-117550000I75000J0D01*
G01*
X157725000Y-117550000D01*
G75*
G02*
X157800000Y-117625000I0J-75000D01*
G01*
X157800000Y-118275000D01*
G75*
G02*
X157725000Y-118350000I-75000J0D01*
G01*
X157575000Y-118350000D01*
G75*
G02*
X157500000Y-118275000I0J75000D01*
G01*
G37*
%TD.AperFunction*%
%TO.P,U8,8*%
%TO.N,Net-(C24-Pad1)*%
%TA.AperFunction,SMDPad,CuDef*%
G36*
G01*
X156850000Y-118275000D02*
X156850000Y-117625000D01*
G75*
G02*
X156925000Y-117550000I75000J0D01*
G01*
X157075000Y-117550000D01*
G75*
G02*
X157150000Y-117625000I0J-75000D01*
G01*
X157150000Y-118275000D01*
G75*
G02*
X157075000Y-118350000I-75000J0D01*
G01*
X156925000Y-118350000D01*
G75*
G02*
X156850000Y-118275000I0J75000D01*
G01*
G37*
%TD.AperFunction*%
%TO.P,U8,7*%
%TO.N,Net-(C24-Pad2)*%
%TA.AperFunction,SMDPad,CuDef*%
G36*
G01*
X156200000Y-118275000D02*
X156200000Y-117625000D01*
G75*
G02*
X156275000Y-117550000I75000J0D01*
G01*
X156425000Y-117550000D01*
G75*
G02*
X156500000Y-117625000I0J-75000D01*
G01*
X156500000Y-118275000D01*
G75*
G02*
X156425000Y-118350000I-75000J0D01*
G01*
X156275000Y-118350000D01*
G75*
G02*
X156200000Y-118275000I0J75000D01*
G01*
G37*
%TD.AperFunction*%
%TO.P,U8,6*%
%TO.N,GND*%
%TA.AperFunction,SMDPad,CuDef*%
G36*
G01*
X155550000Y-118275000D02*
X155550000Y-117625000D01*
G75*
G02*
X155625000Y-117550000I75000J0D01*
G01*
X155775000Y-117550000D01*
G75*
G02*
X155850000Y-117625000I0J-75000D01*
G01*
X155850000Y-118275000D01*
G75*
G02*
X155775000Y-118350000I-75000J0D01*
G01*
X155625000Y-118350000D01*
G75*
G02*
X155550000Y-118275000I0J75000D01*
G01*
G37*
%TD.AperFunction*%
%TO.P,U8,5*%
%TO.N,Net-(J10-Pad1)*%
%TA.AperFunction,SMDPad,CuDef*%
G36*
G01*
X154150000Y-116875000D02*
X154150000Y-116725000D01*
G75*
G02*
X154225000Y-116650000I75000J0D01*
G01*
X154875000Y-116650000D01*
G75*
G02*
X154950000Y-116725000I0J-75000D01*
G01*
X154950000Y-116875000D01*
G75*
G02*
X154875000Y-116950000I-75000J0D01*
G01*
X154225000Y-116950000D01*
G75*
G02*
X154150000Y-116875000I0J75000D01*
G01*
G37*
%TD.AperFunction*%
%TO.P,U8,4*%
%TO.N,Net-(R8-Pad2)*%
%TA.AperFunction,SMDPad,CuDef*%
G36*
G01*
X154150000Y-116225000D02*
X154150000Y-116075000D01*
G75*
G02*
X154225000Y-116000000I75000J0D01*
G01*
X154875000Y-116000000D01*
G75*
G02*
X154950000Y-116075000I0J-75000D01*
G01*
X154950000Y-116225000D01*
G75*
G02*
X154875000Y-116300000I-75000J0D01*
G01*
X154225000Y-116300000D01*
G75*
G02*
X154150000Y-116225000I0J75000D01*
G01*
G37*
%TD.AperFunction*%
%TO.P,U8,3*%
%TA.AperFunction,SMDPad,CuDef*%
G36*
G01*
X154150000Y-115575000D02*
X154150000Y-115425000D01*
G75*
G02*
X154225000Y-115350000I75000J0D01*
G01*
X154875000Y-115350000D01*
G75*
G02*
X154950000Y-115425000I0J-75000D01*
G01*
X154950000Y-115575000D01*
G75*
G02*
X154875000Y-115650000I-75000J0D01*
G01*
X154225000Y-115650000D01*
G75*
G02*
X154150000Y-115575000I0J75000D01*
G01*
G37*
%TD.AperFunction*%
%TO.P,U8,2*%
%TO.N,Net-(R8-Pad1)*%
%TA.AperFunction,SMDPad,CuDef*%
G36*
G01*
X154150000Y-114925000D02*
X154150000Y-114775000D01*
G75*
G02*
X154225000Y-114700000I75000J0D01*
G01*
X154875000Y-114700000D01*
G75*
G02*
X154950000Y-114775000I0J-75000D01*
G01*
X154950000Y-114925000D01*
G75*
G02*
X154875000Y-115000000I-75000J0D01*
G01*
X154225000Y-115000000D01*
G75*
G02*
X154150000Y-114925000I0J75000D01*
G01*
G37*
%TD.AperFunction*%
%TO.P,U8,1*%
%TA.AperFunction,SMDPad,CuDef*%
G36*
G01*
X154150000Y-114275000D02*
X154150000Y-114125000D01*
G75*
G02*
X154225000Y-114050000I75000J0D01*
G01*
X154875000Y-114050000D01*
G75*
G02*
X154950000Y-114125000I0J-75000D01*
G01*
X154950000Y-114275000D01*
G75*
G02*
X154875000Y-114350000I-75000J0D01*
G01*
X154225000Y-114350000D01*
G75*
G02*
X154150000Y-114275000I0J75000D01*
G01*
G37*
%TD.AperFunction*%
%TD*%
D16*
%TO.N,+3V3*%
X156192000Y-88867500D03*
X140926000Y-88867500D03*
X126448000Y-88867500D03*
X111437000Y-88867500D03*
X109513000Y-111368000D03*
X121525000Y-111368000D03*
X133923000Y-111368000D03*
X153808000Y-111368000D03*
%TO.N,/CS8*%
X129057000Y-115545000D03*
%TO.N,/CS3*%
X116340800Y-81285900D03*
X141443000Y-115554000D03*
%TO.N,/CS4*%
X136573700Y-89675600D03*
X134645000Y-93040200D03*
X136575800Y-86360000D03*
%TO.N,/CS5*%
X164172000Y-93054000D03*
%TO.N,/MOSI*%
X164821000Y-117069000D03*
X163474000Y-114122000D03*
X125362000Y-88353900D03*
X163188000Y-116985000D03*
X142730000Y-116985000D03*
X130295000Y-116960000D03*
X151918000Y-94462000D03*
X136608000Y-94480800D03*
X120846000Y-94480800D03*
X117551200Y-117119400D03*
X163169600Y-94742000D03*
%TO.N,/MISO*%
X135763000Y-88341200D03*
X161129000Y-114850000D03*
X140903000Y-114850000D03*
X128388000Y-114850000D03*
X116118000Y-114768000D03*
X163479000Y-92350000D03*
X149128000Y-92350000D03*
X133405000Y-92350000D03*
X118394000Y-92350000D03*
%TO.N,/CS6*%
X138140200Y-88313900D03*
X140982200Y-95182200D03*
X161900000Y-115570000D03*
%TO.N,/SCLK*%
X162611000Y-116281000D03*
X142138000Y-116281000D03*
X129642000Y-116256000D03*
X117170000Y-116205000D03*
X164922000Y-93802200D03*
X150869000Y-93758000D03*
X135712000Y-93776800D03*
X120117000Y-93776800D03*
%TO.N,/CS1*%
X123662900Y-88838500D03*
X119304000Y-93065600D03*
%TO.N,/CS2*%
X143699900Y-83996700D03*
X139606800Y-86589600D03*
X138864000Y-89695400D03*
X138136200Y-92757000D03*
X149999000Y-93054000D03*
%TO.N,/CS7*%
X116684000Y-115472000D03*
X125039650Y-80564250D03*
%TO.N,/DRDY1*%
X114200000Y-89358800D03*
%TO.N,/DRDY2*%
X144221000Y-89230200D03*
%TO.N,/DRDY3*%
X137000000Y-111945000D03*
%TO.N,/DRDY4*%
X129200000Y-89449000D03*
%TO.N,/DRDY5*%
X159200000Y-89415200D03*
%TO.N,/DRDY6*%
X157000000Y-111966000D03*
%TO.N,/DRDY7*%
X112217000Y-111963000D03*
%TO.N,/DRDY8*%
X124500000Y-111949000D03*
%TD*%
D17*
%TO.N,GND*%
X110908000Y-110148500D02*
X110920000Y-110160500D01*
X110920000Y-110160500D02*
X110920000Y-110232000D01*
X110908000Y-110148500D02*
X110846000Y-110211000D01*
X113568000Y-110645000D02*
X113568000Y-110490000D01*
X113568000Y-110490000D02*
X113163000Y-110086000D01*
X113163000Y-110086000D02*
X110970000Y-110086000D01*
X110970000Y-110086000D02*
X110908000Y-110148500D01*
X125798500Y-110800000D02*
X125806000Y-110807500D01*
X125806000Y-110807500D02*
X125806000Y-110820000D01*
X125798000Y-110645000D02*
X125798500Y-110645500D01*
X125798500Y-110645500D02*
X125798500Y-110800000D01*
X110920000Y-110232000D02*
X110020500Y-109332500D01*
X123190000Y-110211000D02*
X123190000Y-110232000D01*
X125174000Y-110086000D02*
X123315000Y-110086000D01*
X123315000Y-110086000D02*
X123190000Y-110211000D01*
X123190000Y-110211000D02*
X123165000Y-110236000D01*
X112917700Y-87706200D02*
X112903000Y-87691500D01*
X112903000Y-87691500D02*
X112903000Y-87655400D01*
X112917700Y-87706200D02*
X112929300Y-87706200D01*
X112906000Y-87706200D02*
X112917700Y-87706200D01*
X135712000Y-110232500D02*
X135712000Y-110232000D01*
X135661000Y-110160000D02*
X135650500Y-110170500D01*
X137615000Y-110086000D02*
X135735000Y-110086000D01*
X135735000Y-110086000D02*
X135661000Y-110160000D01*
X135650500Y-110170500D02*
X135566000Y-110086000D01*
X135566000Y-110086000D02*
X125394000Y-110086000D01*
X135712000Y-110232000D02*
X135650500Y-110170500D01*
X112988500Y-87671500D02*
X112964000Y-87671500D01*
X112964000Y-87671500D02*
X112929300Y-87706200D01*
X112988500Y-87671500D02*
X112903000Y-87757000D01*
X114942000Y-87586000D02*
X113074000Y-87586000D01*
X113074000Y-87586000D02*
X112988500Y-87671500D01*
X127888100Y-87706500D02*
X127778000Y-87596000D01*
X127778000Y-87596000D02*
X115117000Y-87596000D01*
X127914000Y-87732500D02*
X127888100Y-87706500D01*
X127961500Y-87633400D02*
X127961200Y-87633400D01*
X127961200Y-87633400D02*
X127888100Y-87706500D01*
X127961500Y-87633400D02*
X127914000Y-87680800D01*
X130110000Y-87586000D02*
X128009000Y-87586000D01*
X128009000Y-87586000D02*
X127961500Y-87633400D01*
X113563000Y-110731000D02*
X113563000Y-110820000D01*
X123121500Y-110164000D02*
X123053000Y-110096000D01*
X123053000Y-110096000D02*
X114110000Y-110096000D01*
X114110000Y-110096000D02*
X113563000Y-110642000D01*
X113563000Y-110642000D02*
X113563000Y-110731000D01*
X113567500Y-110731000D02*
X113567500Y-110800000D01*
X113568000Y-110645000D02*
X113567500Y-110645500D01*
X113567500Y-110645500D02*
X113567500Y-110731000D01*
X113563000Y-110731000D02*
X113567500Y-110731000D01*
X142989000Y-87642700D02*
X142900000Y-87731700D01*
X142900000Y-87731700D02*
X142900000Y-87732500D01*
X142989000Y-87642700D02*
X142900000Y-87731600D01*
X145500000Y-88299600D02*
X145500000Y-87990000D01*
X145500000Y-87990000D02*
X145064000Y-87553800D01*
X145064000Y-87553800D02*
X143078000Y-87553800D01*
X143078000Y-87553800D02*
X142989000Y-87642700D01*
X158086000Y-87658800D02*
X157959700Y-87658800D01*
X157959700Y-87658800D02*
X157886000Y-87732500D01*
X158086000Y-87658800D02*
X158013000Y-87731600D01*
X160511000Y-88145000D02*
X160511000Y-87990000D01*
X160511000Y-87990000D02*
X160107000Y-87586000D01*
X160107000Y-87586000D02*
X158159000Y-87586000D01*
X158159000Y-87586000D02*
X158086000Y-87658800D01*
X138300000Y-110762500D02*
X138300000Y-110741000D01*
X138300000Y-110741000D02*
X138278000Y-110719000D01*
X138278000Y-110719000D02*
X138278000Y-110717000D01*
X138278000Y-110717000D02*
X137646000Y-110086000D01*
X137646000Y-110086000D02*
X137615000Y-110086000D01*
X138300000Y-113050000D02*
X138300000Y-110762500D01*
X138337500Y-110800000D02*
X138300000Y-110762500D01*
X155789500Y-110148500D02*
X155786000Y-110148500D01*
X155786000Y-110148500D02*
X155702000Y-110232500D01*
X155789500Y-110148500D02*
X155727000Y-110211000D01*
X158302000Y-110645000D02*
X158302000Y-110490000D01*
X158302000Y-110490000D02*
X157897000Y-110086000D01*
X157897000Y-110086000D02*
X155852000Y-110086000D01*
X155852000Y-110086000D02*
X155789500Y-110148500D01*
X113383200Y-114174900D02*
X112014000Y-115545000D01*
X113517000Y-112968000D02*
X113517000Y-114041000D01*
X113517000Y-114041000D02*
X113383200Y-114174900D01*
X113267200Y-114240800D02*
X113317300Y-114240800D01*
X113317300Y-114240800D02*
X113383200Y-114174900D01*
X113267200Y-114240800D02*
X112676500Y-114831500D01*
X114667000Y-114118000D02*
X113390000Y-114118000D01*
X113390000Y-114118000D02*
X113267200Y-114240800D01*
X124549300Y-115430600D02*
X124435000Y-115545000D01*
X124435000Y-115545000D02*
X125800000Y-114179000D01*
X125800000Y-114179000D02*
X125800000Y-113050000D01*
X126950000Y-114200000D02*
X125779000Y-114200000D01*
X125779000Y-114200000D02*
X124549300Y-115430600D01*
X124871500Y-115752500D02*
X124871200Y-115752500D01*
X124871200Y-115752500D02*
X124549300Y-115430600D01*
X124871500Y-115752500D02*
X124562000Y-115443000D01*
X125181000Y-116062000D02*
X124871500Y-115752500D01*
X159296000Y-92913200D02*
X159309000Y-92913200D01*
X158638000Y-93558500D02*
X159283000Y-92913200D01*
X159283000Y-92913200D02*
X159296000Y-92913200D01*
X159238900Y-92856100D02*
X159131000Y-92964000D01*
X159763000Y-92332000D02*
X159238900Y-92856100D01*
X159296000Y-92913200D02*
X159238900Y-92856100D01*
X137466700Y-115033300D02*
X137000000Y-115500000D01*
X137518700Y-115033300D02*
X137466700Y-115033300D01*
X137466700Y-115033300D02*
X137466700Y-115007300D01*
X137466700Y-115007300D02*
X137455200Y-114995800D01*
X137455200Y-114995800D02*
X137008000Y-115443000D01*
X138300000Y-113050000D02*
X138300000Y-114151000D01*
X138300000Y-114151000D02*
X137455200Y-114995800D01*
X115500000Y-89175700D02*
X115511500Y-89164200D01*
X115511500Y-89164200D02*
X115511500Y-88300000D01*
X115500000Y-89175700D02*
X115500000Y-88296600D01*
X115500000Y-88296600D02*
X115494000Y-88290400D01*
X115500000Y-90550000D02*
X115500000Y-89175700D01*
X114846000Y-93637100D02*
X114837100Y-93637100D01*
X114837100Y-93637100D02*
X114200000Y-93000000D01*
X114846000Y-93637100D02*
X115494000Y-94284800D01*
X115494000Y-94284800D02*
X115494000Y-95213300D01*
X114198000Y-92989400D02*
X114846000Y-93637100D01*
X130477000Y-88338600D02*
X130513500Y-88302100D01*
X130513500Y-88302100D02*
X130513500Y-88300000D01*
X130477000Y-88338600D02*
X130454000Y-88315800D01*
X130500000Y-90550000D02*
X130500000Y-88361400D01*
X130500000Y-88361400D02*
X130477000Y-88338600D01*
X144196000Y-93065600D02*
X144196000Y-93040200D01*
X144196000Y-93128400D02*
X144196000Y-93065600D01*
X144200000Y-93000000D02*
X144200000Y-93124400D01*
X144200000Y-93124400D02*
X144196000Y-93128400D01*
X158300000Y-113081400D02*
X158300000Y-113050000D01*
X159450000Y-114200000D02*
X159418600Y-114200000D01*
X114855500Y-92357400D02*
X114842600Y-92357400D01*
X114842600Y-92357400D02*
X114200000Y-93000000D01*
X114855500Y-92357400D02*
X114198000Y-93014800D01*
X116650000Y-91700000D02*
X115513000Y-91700000D01*
X115513000Y-91700000D02*
X114855500Y-92357400D01*
X129210000Y-92831800D02*
X129200000Y-92841800D01*
X129200000Y-92841800D02*
X129200000Y-93000000D01*
X129210000Y-92831800D02*
X129210000Y-93014800D01*
X129210000Y-92648800D02*
X129210000Y-92831800D01*
X130500000Y-90550000D02*
X130500000Y-91358600D01*
X130500000Y-91358600D02*
X129210000Y-92648800D01*
X129225000Y-92633800D02*
X129210000Y-92648800D01*
X131650000Y-91700000D02*
X130779000Y-91700000D01*
X130779000Y-91700000D02*
X129845000Y-92633800D01*
X129845000Y-92633800D02*
X129225000Y-92633800D01*
X129225000Y-92633800D02*
X129210000Y-92633800D01*
X129200000Y-93214700D02*
X129200000Y-93000000D01*
X129184000Y-93230700D02*
X129200000Y-93214700D01*
X129842000Y-93672600D02*
X129384100Y-93214700D01*
X129384100Y-93214700D02*
X129200000Y-93214700D01*
X129842000Y-93672600D02*
X129184000Y-93014800D01*
X130500000Y-95450000D02*
X130500000Y-94330400D01*
X130500000Y-94330400D02*
X129842000Y-93672600D01*
X129184000Y-93230700D02*
X129184000Y-93040200D01*
X127900000Y-95450000D02*
X127900000Y-94705600D01*
X127900000Y-94705600D02*
X129184000Y-93421200D01*
X129184000Y-93421200D02*
X129184000Y-93230700D01*
X144751500Y-92281500D02*
X144196000Y-92837000D01*
X144196000Y-92837000D02*
X144196000Y-93040200D01*
X145500000Y-90550000D02*
X145500000Y-91532800D01*
X145500000Y-91532800D02*
X144751500Y-92281500D01*
X144738500Y-92268500D02*
X144751500Y-92281500D01*
X144738500Y-92268500D02*
X144170000Y-92837000D01*
X146650000Y-91700000D02*
X145307000Y-91700000D01*
X145307000Y-91700000D02*
X144738500Y-92268500D01*
X144196000Y-93472000D02*
X144196000Y-93128400D01*
X142900000Y-95450000D02*
X142900000Y-94767800D01*
X142900000Y-94767800D02*
X144196000Y-93472000D01*
X145000500Y-93997100D02*
X144721100Y-93997100D01*
X144721100Y-93997100D02*
X144196000Y-93472000D01*
X145000500Y-93997100D02*
X144501000Y-93497400D01*
X144501000Y-93497400D02*
X144551000Y-93497400D01*
X145500000Y-95450000D02*
X145500000Y-94496800D01*
X145500000Y-94496800D02*
X145000500Y-93997100D01*
X160511000Y-88145000D02*
X160511500Y-88145500D01*
X160511500Y-88145500D02*
X160511500Y-88300000D01*
X160511000Y-88300000D02*
X160511000Y-88145000D01*
X160553000Y-88303100D02*
X160514600Y-88303100D01*
X160514600Y-88303100D02*
X160511500Y-88300000D01*
X160553000Y-88303100D02*
X160553000Y-88290400D01*
X160500000Y-90550000D02*
X160500000Y-88369200D01*
X160500000Y-88369200D02*
X160553000Y-88315800D01*
X160553000Y-88315800D02*
X160553000Y-88303100D01*
X159775600Y-92344600D02*
X159207000Y-92913200D01*
X160500000Y-90550000D02*
X160500000Y-91620400D01*
X160500000Y-91620400D02*
X159775600Y-92344600D01*
X159763000Y-92332000D02*
X159775600Y-92344600D01*
X161650000Y-91700000D02*
X160395000Y-91700000D01*
X160395000Y-91700000D02*
X159763000Y-92332000D01*
X159879000Y-93635800D02*
X159835800Y-93635800D01*
X159835800Y-93635800D02*
X159200000Y-93000000D01*
X159879000Y-93635800D02*
X159258000Y-93014800D01*
X160500000Y-95450000D02*
X160500000Y-94256800D01*
X160500000Y-94256800D02*
X159879000Y-93635800D01*
X158638000Y-93558500D02*
X158641500Y-93558500D01*
X158641500Y-93558500D02*
X159200000Y-93000000D01*
X157993000Y-94203800D02*
X158638000Y-93558500D01*
X159233000Y-93180800D02*
X159200000Y-93147800D01*
X159200000Y-93147800D02*
X159200000Y-93000000D01*
X159233000Y-93180800D02*
X159233000Y-93065600D01*
X157900000Y-95450000D02*
X157900000Y-94628600D01*
X157900000Y-94628600D02*
X159233000Y-93296000D01*
X159233000Y-93296000D02*
X159233000Y-93180800D01*
X113568000Y-110800000D02*
X113568000Y-110645000D01*
X113567500Y-110841500D02*
X113567500Y-110800000D01*
X113567500Y-110841500D02*
X113589000Y-110820000D01*
X113517000Y-112968000D02*
X113517000Y-110892000D01*
X113517000Y-110892000D02*
X113567500Y-110841500D01*
X112676500Y-114831500D02*
X112668700Y-114831500D01*
X112668700Y-114831500D02*
X111999800Y-115500400D01*
X112676500Y-114831500D02*
X111963000Y-115545000D01*
X111389500Y-116017000D02*
X111466000Y-116017000D01*
X111466000Y-116017000D02*
X111989000Y-115494000D01*
X111389500Y-116017000D02*
X111862000Y-115545000D01*
X110917000Y-117868000D02*
X110917000Y-116489000D01*
X110917000Y-116489000D02*
X111389500Y-116017000D01*
X111999800Y-115504800D02*
X111999800Y-115500400D01*
X113517000Y-117868000D02*
X113517000Y-117022000D01*
X113517000Y-117022000D02*
X111999800Y-115504800D01*
X111999800Y-115504800D02*
X111989000Y-115494000D01*
X123799500Y-116129000D02*
X123871000Y-116129000D01*
X123871000Y-116129000D02*
X124500000Y-115500000D01*
X123799500Y-116129000D02*
X124384000Y-115545000D01*
X123200000Y-117950000D02*
X123200000Y-117523000D01*
X123200000Y-117523000D02*
X123215000Y-117507000D01*
X123215000Y-117507000D02*
X123215000Y-116713000D01*
X123215000Y-116713000D02*
X123799500Y-116129000D01*
X125181000Y-116062000D02*
X125062000Y-116062000D01*
X125062000Y-116062000D02*
X124500000Y-115500000D01*
X125800000Y-117950000D02*
X125800000Y-116681000D01*
X125800000Y-116681000D02*
X125181000Y-116062000D01*
X136957000Y-115621000D02*
X137000000Y-115578000D01*
X137000000Y-115578000D02*
X137000000Y-115500000D01*
X136957000Y-115621000D02*
X136957000Y-115748000D01*
X136957000Y-115748000D02*
X135700000Y-117005000D01*
X135700000Y-117005000D02*
X135700000Y-117950000D01*
X138300000Y-117950000D02*
X138300000Y-116837000D01*
X138300000Y-116837000D02*
X136957000Y-115494000D01*
X136957000Y-115494000D02*
X136957000Y-115621000D01*
X137518700Y-115033300D02*
X137058000Y-115494000D01*
X139450000Y-114200000D02*
X138352000Y-114200000D01*
X138352000Y-114200000D02*
X137518700Y-115033300D01*
X158300000Y-111649800D02*
X158301500Y-111648300D01*
X158301500Y-111648300D02*
X158301500Y-110800000D01*
X158300000Y-111649800D02*
X158300000Y-110777000D01*
X158300000Y-110777000D02*
X158293000Y-110769000D01*
X158300000Y-113050000D02*
X158300000Y-111649800D01*
X158302000Y-110645000D02*
X158301500Y-110645500D01*
X158301500Y-110645500D02*
X158301500Y-110800000D01*
X158302000Y-110800000D02*
X158302000Y-110645000D01*
X145838500Y-87917800D02*
X145491000Y-88265300D01*
X145491000Y-88265300D02*
X145491000Y-88290400D01*
X145838500Y-87917800D02*
X145517000Y-88239600D01*
X157750000Y-87596000D02*
X146160000Y-87596000D01*
X146160000Y-87596000D02*
X145838500Y-87917800D01*
X157886000Y-87732500D02*
X157750000Y-87596000D01*
X157861000Y-87147400D02*
X157750000Y-87258400D01*
X157750000Y-87258400D02*
X157750000Y-87596000D01*
X157861000Y-87147400D02*
X157861000Y-87680800D01*
X148107000Y-83337400D02*
X154584000Y-83337400D01*
X154584000Y-83337400D02*
X157861000Y-86614000D01*
X157861000Y-86614000D02*
X157861000Y-87147400D01*
X155417500Y-109947500D02*
X155417500Y-109948000D01*
X155417500Y-109948000D02*
X155702000Y-110232500D01*
X155417500Y-109947500D02*
X155133000Y-109663000D01*
X155133000Y-109663000D02*
X138038000Y-109663000D01*
X138038000Y-109663000D02*
X137615000Y-110086000D01*
X155702000Y-110232000D02*
X155417500Y-109947500D01*
X123121500Y-110164000D02*
X123190000Y-110232500D01*
X123190000Y-110232000D02*
X123121500Y-110164000D01*
X112929300Y-87706200D02*
X112903000Y-87732500D01*
X112929300Y-87706200D02*
X113132000Y-87706200D01*
X110020500Y-109332500D02*
X110020500Y-109333000D01*
X110020500Y-109333000D02*
X110920000Y-110232500D01*
X110020500Y-109332500D02*
X109121000Y-108433000D01*
X109121000Y-108433000D02*
X109121000Y-89329200D01*
X109121000Y-89329200D02*
X110795000Y-87655400D01*
X110795000Y-87655400D02*
X112903000Y-87655400D01*
X125798000Y-110645000D02*
X125798000Y-110490000D01*
X125798000Y-110490000D02*
X125394000Y-110086000D01*
X125798000Y-110800000D02*
X125798000Y-110645000D01*
X115511000Y-88145000D02*
X115511500Y-88145500D01*
X115511500Y-88145500D02*
X115511500Y-88300000D01*
X115511000Y-88145000D02*
X115511000Y-87990000D01*
X115511000Y-87990000D02*
X115117000Y-87596000D01*
X115511000Y-88300000D02*
X115511000Y-88145000D01*
X130514000Y-88145000D02*
X130513500Y-88145500D01*
X130513500Y-88145500D02*
X130513500Y-88300000D01*
X130514000Y-88145000D02*
X130514000Y-87990000D01*
X130514000Y-87990000D02*
X130120000Y-87596000D01*
X130514000Y-88300000D02*
X130514000Y-88145000D01*
X145500000Y-88299600D02*
X145499900Y-88299600D01*
X145499900Y-88299600D02*
X145499500Y-88300000D01*
X145500000Y-88300000D02*
X145500000Y-88299600D01*
X145500000Y-88299600D02*
X145500000Y-88299200D01*
X145500000Y-88299200D02*
X145491000Y-88290400D01*
X145500000Y-88300000D02*
X145500000Y-88299600D01*
X115494000Y-95213300D02*
X115500000Y-95219300D01*
X115500000Y-95219300D02*
X115500000Y-95450000D01*
X115494000Y-95213300D02*
X115494000Y-95504000D01*
X112900000Y-95450000D02*
X112900000Y-94287800D01*
X112900000Y-94287800D02*
X114198000Y-92989400D01*
X145500000Y-90550000D02*
X145500000Y-88300000D01*
X130120000Y-87596000D02*
X130110000Y-87586000D01*
X142900000Y-87732500D02*
X142764000Y-87596000D01*
X142764000Y-87596000D02*
X130120000Y-87596000D01*
X130120000Y-87596000D02*
X130110000Y-87586000D01*
X115117000Y-87596000D02*
X115107000Y-87586000D01*
X115107000Y-87586000D02*
X114942000Y-87586000D01*
X125394000Y-110086000D02*
X125174000Y-110086000D01*
X125394000Y-110086000D02*
X125174000Y-110086000D01*
X115117000Y-87596000D02*
X114952000Y-87596000D01*
X114952000Y-87596000D02*
X114942000Y-87586000D01*
X125800000Y-113050000D02*
X125800000Y-110826000D01*
X125800000Y-110826000D02*
X125806000Y-110820000D01*
X157900000Y-95450000D02*
X157915000Y-95450000D01*
X115500000Y-90550000D02*
X115500000Y-91687800D01*
X115500000Y-91687800D02*
X114198000Y-92989400D01*
X155700000Y-117950000D02*
X155700000Y-116791200D01*
X155700000Y-116791200D02*
X156997400Y-115493800D01*
X158300000Y-117950000D02*
X158300000Y-116771000D01*
X158300000Y-116771000D02*
X157010100Y-115481100D01*
X159450000Y-114200000D02*
X158659500Y-114200000D01*
X158659500Y-114200000D02*
X157353000Y-115506500D01*
X157353000Y-115506500D02*
X157022800Y-115506500D01*
X158300000Y-113050000D02*
X158300000Y-114192900D01*
X158300000Y-114192900D02*
X157365700Y-115127200D01*
X157365700Y-115127200D02*
X157365700Y-115493800D01*
%TO.N,+3V3*%
X124582500Y-110719000D02*
X124663500Y-110800000D01*
X124582500Y-110719000D02*
X124149000Y-110719000D01*
X124149000Y-110719000D02*
X123500000Y-111368000D01*
X123500000Y-111368000D02*
X123190000Y-111368000D01*
X124714000Y-110719000D02*
X124582500Y-110719000D01*
X110920000Y-111368000D02*
X110959000Y-111368000D01*
X110959000Y-111368000D02*
X110973000Y-111354000D01*
X110917000Y-111741700D02*
X110920000Y-111738700D01*
X110920000Y-111738700D02*
X110920000Y-111368000D01*
X110917000Y-111741700D02*
X110917000Y-111333000D01*
X110917000Y-111333000D02*
X110922000Y-111328000D01*
X110917000Y-112968000D02*
X110917000Y-111741700D01*
X113027200Y-88950800D02*
X112978000Y-89000000D01*
X113538000Y-88950800D02*
X113027200Y-88950800D01*
X113027200Y-88950800D02*
X112903000Y-88950800D01*
X123190000Y-111368000D02*
X123190000Y-111367500D01*
X123190000Y-111368000D02*
X121525000Y-111368000D01*
X123200000Y-111595000D02*
X123190000Y-111585000D01*
X123190000Y-111585000D02*
X123190000Y-111368000D01*
X157900000Y-88855100D02*
X157898400Y-88855100D01*
X157898400Y-88855100D02*
X157886000Y-88867500D01*
X157900000Y-88855100D02*
X157900000Y-88784800D01*
X157900000Y-88784800D02*
X157912000Y-88773000D01*
X157900000Y-88925400D02*
X157900000Y-88855100D01*
X135763000Y-111359500D02*
X135720000Y-111359500D01*
X135720000Y-111359500D02*
X135712000Y-111367500D01*
X135763000Y-111359500D02*
X135763000Y-111379000D01*
X137202000Y-110800000D02*
X136303000Y-110800000D01*
X136303000Y-110800000D02*
X135763000Y-111340000D01*
X135763000Y-111340000D02*
X135763000Y-111359500D01*
X155727000Y-111384500D02*
X155718500Y-111384500D01*
X155718500Y-111384500D02*
X155702000Y-111368000D01*
X155727000Y-111384500D02*
X155727000Y-111404000D01*
X157166000Y-110800000D02*
X156293000Y-110800000D01*
X156293000Y-110800000D02*
X155727000Y-111365000D01*
X155727000Y-111365000D02*
X155727000Y-111384500D01*
X113550000Y-90258900D02*
X113550000Y-90550000D01*
X113538000Y-88950800D02*
X113538000Y-88978900D01*
X113538000Y-88978900D02*
X113496000Y-89020900D01*
X113496000Y-89020900D02*
X113496000Y-89645400D01*
X113496000Y-89645400D02*
X113550000Y-89699400D01*
X113550000Y-89699400D02*
X113550000Y-90258900D01*
X113538000Y-90258900D02*
X113550000Y-90258900D01*
X113538000Y-90258900D02*
X113538000Y-90373200D01*
X113538000Y-90144600D02*
X113538000Y-90258900D01*
X112901500Y-88876100D02*
X112901500Y-88869000D01*
X112901500Y-88869000D02*
X112903000Y-88867500D01*
X112901500Y-88876100D02*
X112903000Y-88874600D01*
X112900000Y-88878000D02*
X112900000Y-88877600D01*
X112900000Y-88877600D02*
X112901500Y-88876100D01*
X112900000Y-88878000D02*
X112878000Y-88900000D01*
X112900000Y-90550000D02*
X112900000Y-88878000D01*
X127920000Y-88919900D02*
X127914000Y-88913900D01*
X127914000Y-88913900D02*
X127914000Y-88867500D01*
X127920000Y-88919900D02*
X127940000Y-88900000D01*
X127900000Y-90550000D02*
X127900000Y-88939800D01*
X127900000Y-88939800D02*
X127920000Y-88919900D01*
X143002000Y-88925400D02*
X143002000Y-88874600D01*
X143550000Y-90550000D02*
X143550000Y-89575000D01*
X143002000Y-89027000D02*
X143002000Y-88925400D01*
X143002000Y-88874600D02*
X143027000Y-88874600D01*
X143027000Y-88874600D02*
X143602000Y-88300000D01*
X143602000Y-88300000D02*
X144364500Y-88300000D01*
X142976500Y-88874600D02*
X143002000Y-88874600D01*
X157900000Y-90550000D02*
X157900000Y-88925400D01*
X157900000Y-88925400D02*
X157886000Y-88925400D01*
X159376000Y-88300000D02*
X158563000Y-88300000D01*
X158563000Y-88300000D02*
X157937000Y-88925400D01*
X157937000Y-88925400D02*
X157900000Y-88925400D01*
X159376000Y-88300000D02*
X159376500Y-88300000D01*
X157886000Y-88925400D02*
X157886000Y-88874600D01*
X158550000Y-90550000D02*
X158550000Y-89785800D01*
X157886000Y-89122200D02*
X157886000Y-88925400D01*
X157886000Y-88925400D02*
X157861000Y-88925400D01*
X110920000Y-111368000D02*
X110920000Y-111367500D01*
X112432000Y-110800000D02*
X112432500Y-110800000D01*
X112432000Y-110800000D02*
X111552000Y-110800000D01*
X111552000Y-110800000D02*
X110998000Y-111354000D01*
X110998000Y-111354000D02*
X110973000Y-111354000D01*
X111567000Y-112968000D02*
X111567000Y-112385000D01*
X111567000Y-112385000D02*
X111582000Y-112370000D01*
X123200000Y-111595000D02*
X123200000Y-111364000D01*
X123200000Y-111364000D02*
X123165000Y-111328000D01*
X123292000Y-111595000D02*
X123200000Y-111595000D01*
X123200000Y-113050000D02*
X123200000Y-111595000D01*
X123292000Y-111595000D02*
X123292000Y-111379000D01*
X123850000Y-113050000D02*
X123850000Y-112369000D01*
X135700000Y-112195500D02*
X135712000Y-112183500D01*
X135712000Y-112183500D02*
X135712000Y-111368000D01*
X135700000Y-112195500D02*
X135700000Y-111341000D01*
X135700000Y-111341000D02*
X135661000Y-111303000D01*
X135700000Y-113050000D02*
X135700000Y-112195500D01*
X135712000Y-111368000D02*
X135712000Y-111367500D01*
X135763000Y-111656000D02*
X135712000Y-111605000D01*
X135712000Y-111605000D02*
X135712000Y-111368000D01*
X135763000Y-111656000D02*
X135763000Y-111608000D01*
X136350000Y-113050000D02*
X136350000Y-112291000D01*
X135763000Y-111704000D02*
X135763000Y-111656000D01*
X137202000Y-110800000D02*
X137202500Y-110800000D01*
X157166000Y-110800000D02*
X157166500Y-110800000D01*
X142976500Y-88874600D02*
X142907100Y-88874600D01*
X142907100Y-88874600D02*
X142900000Y-88867500D01*
X142900000Y-90550000D02*
X142900000Y-88900400D01*
X142900000Y-88900400D02*
X142926000Y-88874600D01*
X142926000Y-88874600D02*
X142976500Y-88874600D01*
X154755000Y-111368000D02*
X154755500Y-111367500D01*
X154755500Y-111367500D02*
X155702000Y-111367500D01*
X154755000Y-111368000D02*
X153808000Y-111368000D01*
X155702000Y-111368000D02*
X154755000Y-111368000D01*
X114376000Y-88300000D02*
X114376500Y-88300000D01*
X114376000Y-88300000D02*
X114189000Y-88300000D01*
X114189000Y-88300000D02*
X113538000Y-88950800D01*
X129378500Y-88300000D02*
X128792000Y-88300000D01*
X128792000Y-88300000D02*
X128307000Y-88784800D01*
X129379000Y-88300000D02*
X129378500Y-88300000D01*
X144365000Y-88300000D02*
X144364500Y-88300000D01*
X157886000Y-88867500D02*
X156192000Y-88867500D01*
X142900000Y-88867500D02*
X140926000Y-88867500D01*
X127914000Y-88867500D02*
X126448000Y-88867500D01*
X112903000Y-88867500D02*
X111437000Y-88867500D01*
X110920000Y-111368000D02*
X109513000Y-111368000D01*
X135712000Y-111368000D02*
X133923000Y-111368000D01*
X156350000Y-113050000D02*
X156350000Y-112433000D01*
X156350000Y-112433000D02*
X156286000Y-112370000D01*
X156286000Y-112370000D02*
X156286000Y-111989000D01*
X155727000Y-111430000D02*
X155727000Y-111404000D01*
X155700000Y-113050000D02*
X155700000Y-111432000D01*
X155700000Y-111432000D02*
X155727000Y-111404000D01*
X128307000Y-88784800D02*
X128224000Y-88867500D01*
X128224000Y-88867500D02*
X127914000Y-88867500D01*
X128550000Y-90550000D02*
X128550000Y-89738800D01*
X112978000Y-89000000D02*
X112878000Y-88900000D01*
X156286000Y-111643998D02*
X157109798Y-110820200D01*
X156286000Y-111989000D02*
X156286000Y-111643998D01*
X157109798Y-110820200D02*
X157175200Y-110820200D01*
X136299999Y-112240999D02*
X136350000Y-112291000D01*
X136299999Y-111335001D02*
X136299999Y-112240999D01*
X136835000Y-110800000D02*
X136299999Y-111335001D01*
X137202500Y-110800000D02*
X136835000Y-110800000D01*
X123799999Y-112285001D02*
X123799999Y-111632601D01*
X123850000Y-112335002D02*
X123799999Y-112285001D01*
X123850000Y-112369000D02*
X123850000Y-112335002D01*
X123799999Y-111632601D02*
X124625100Y-110807500D01*
X111516999Y-111626999D02*
X112361898Y-110782100D01*
X111567000Y-112349002D02*
X111516999Y-112299001D01*
X111516999Y-112299001D02*
X111516999Y-111626999D01*
X111567000Y-112385000D02*
X111567000Y-112349002D01*
X112361898Y-110782100D02*
X112433100Y-110782100D01*
X128550000Y-89738800D02*
X128511900Y-89738800D01*
X128511900Y-89738800D02*
X128485900Y-89712800D01*
X128485900Y-89127098D02*
X129322598Y-88290400D01*
X128485900Y-89712800D02*
X128485900Y-89127098D01*
X129322598Y-88290400D02*
X129387600Y-88290400D01*
X143550000Y-89575000D02*
X143550000Y-89486100D01*
X143550000Y-89486100D02*
X143471900Y-89408000D01*
X143471900Y-88943298D02*
X144099398Y-88315800D01*
X143471900Y-89408000D02*
X143471900Y-88943298D01*
X144099398Y-88315800D02*
X144360900Y-88315800D01*
X158550000Y-89785800D02*
X158550000Y-89741400D01*
X158550000Y-89741400D02*
X158445200Y-89636600D01*
X158445200Y-89133998D02*
X159276098Y-88303100D01*
X158445200Y-89636600D02*
X158445200Y-89133998D01*
X159276098Y-88303100D02*
X159410400Y-88303100D01*
%TO.N,Net-(C3-Pad1)*%
X113675000Y-120500000D02*
X113663000Y-120500000D01*
X113663000Y-120500000D02*
X113640000Y-120523000D01*
X113640000Y-120574000D02*
X112827000Y-121387000D01*
X112827000Y-121387000D02*
X112827000Y-123266000D01*
X112827000Y-123266000D02*
X112835000Y-123274000D01*
X112835000Y-123274000D02*
X112835000Y-127246000D01*
X112835000Y-127246000D02*
X112831000Y-127250000D01*
X113614000Y-120574000D02*
X113640000Y-120574000D01*
X113675000Y-120500000D02*
X113640000Y-120535000D01*
X113640000Y-120535000D02*
X113640000Y-120574000D01*
X112217000Y-117868000D02*
X112217000Y-119101000D01*
X112217000Y-119101000D02*
X113640000Y-120523000D01*
X112831000Y-127250000D02*
X112835000Y-127254000D01*
X112835000Y-127254000D02*
X112835000Y-127270000D01*
X112831000Y-127250000D02*
X112827000Y-127254000D01*
%TO.N,Net-(C3-Pad2)*%
X111125000Y-124333000D02*
X111168000Y-124333000D01*
X111168000Y-124333000D02*
X111565000Y-124730000D01*
X111125000Y-124333000D02*
X111557000Y-124765000D01*
X110693000Y-122148500D02*
X110693000Y-123901000D01*
X110693000Y-123901000D02*
X111125000Y-124333000D01*
X110744000Y-120472000D02*
X110725000Y-120491000D01*
X110725000Y-120491000D02*
X110725000Y-120500000D01*
X111567000Y-117868000D02*
X111567000Y-119649000D01*
X111567000Y-119649000D02*
X110744000Y-120472000D01*
X110693000Y-122148500D02*
X110725000Y-122116500D01*
X110725000Y-122116500D02*
X110725000Y-120500000D01*
X110744000Y-120345000D02*
X110693000Y-120396000D01*
X110693000Y-120396000D02*
X110693000Y-122148500D01*
%TO.N,Net-(C10-Pad1)*%
X126175000Y-120500000D02*
X126134000Y-120500000D01*
X126134000Y-120500000D02*
X126086000Y-120548000D01*
X124511000Y-118358500D02*
X124500000Y-118347500D01*
X124500000Y-118347500D02*
X124500000Y-117950000D01*
X124511000Y-118358500D02*
X124511000Y-117881000D01*
X126175000Y-120500000D02*
X124511000Y-118836000D01*
X124511000Y-118836000D02*
X124511000Y-118358500D01*
X125329500Y-127273500D02*
X125331500Y-127273500D01*
X125331500Y-127273500D02*
X125335000Y-127270000D01*
X125329500Y-127273500D02*
X125324000Y-127279000D01*
X126086000Y-120548000D02*
X125335000Y-121299000D01*
X125335000Y-121299000D02*
X125335000Y-127268000D01*
X125335000Y-127268000D02*
X125329500Y-127273500D01*
%TO.N,Net-(C10-Pad2)*%
X123225000Y-120500000D02*
X123190000Y-120535000D01*
X123190000Y-120535000D02*
X123190000Y-120548000D01*
X123225000Y-120500000D02*
X123850000Y-119875000D01*
X123850000Y-119875000D02*
X123850000Y-117983000D01*
X123850000Y-117983000D02*
X123863000Y-117970500D01*
X123863000Y-117970500D02*
X123850000Y-117957500D01*
X123850000Y-117957500D02*
X123850000Y-117950000D01*
X123863000Y-117970500D02*
X123876000Y-117958000D01*
X123647500Y-124358500D02*
X123693500Y-124358500D01*
X123693500Y-124358500D02*
X124065000Y-124730000D01*
X123647500Y-124358500D02*
X124054000Y-124765000D01*
X123190000Y-120548000D02*
X123241000Y-120599000D01*
X123241000Y-120599000D02*
X123241000Y-123952000D01*
X123241000Y-123952000D02*
X123647500Y-124358500D01*
%TO.N,Net-(C11-Pad2)*%
X112928000Y-97997000D02*
X112928000Y-98120200D01*
X112928000Y-97997000D02*
X113538000Y-97387000D01*
X113538000Y-97387000D02*
X113538000Y-95700100D01*
X112925000Y-98000000D02*
X112928000Y-97997000D01*
X113538000Y-95700100D02*
X113550000Y-95688100D01*
X113550000Y-95688100D02*
X113550000Y-95450000D01*
X113538000Y-95700100D02*
X113538000Y-95453200D01*
X113765000Y-102158000D02*
X113765000Y-102230000D01*
X113765000Y-102158000D02*
X113817000Y-102210000D01*
X112928000Y-98120200D02*
X112928000Y-101321000D01*
X112928000Y-101321000D02*
X113765000Y-102158000D01*
%TO.N,Net-(C11-Pad1)*%
X115010500Y-104674500D02*
X115035000Y-104699000D01*
X115035000Y-104699000D02*
X115035000Y-104770000D01*
X115010500Y-104674500D02*
X114986000Y-104699000D01*
X115035000Y-103770000D02*
X115035000Y-104650000D01*
X115035000Y-104650000D02*
X115010500Y-104674500D01*
X114198000Y-95875600D02*
X114200000Y-95873600D01*
X114200000Y-95873600D02*
X114200000Y-95450000D01*
X114198000Y-95875600D02*
X114198000Y-95427800D01*
X115875000Y-98000000D02*
X114198000Y-96323400D01*
X114198000Y-96323400D02*
X114198000Y-95875600D01*
X115455000Y-98413100D02*
X115461900Y-98413100D01*
X115461900Y-98413100D02*
X115875000Y-98000000D01*
X115455000Y-98413100D02*
X115875000Y-97993200D01*
X115035000Y-103580000D02*
X115035000Y-98833000D01*
X115035000Y-98833000D02*
X115455000Y-98413100D01*
X115035000Y-103580000D02*
X115035000Y-103770000D01*
X115035000Y-103770000D02*
X115035000Y-103580000D01*
%TO.N,Net-(C12-Pad2)*%
X127925000Y-97957200D02*
X127925000Y-98000000D01*
X128550000Y-95450000D02*
X128550000Y-97332200D01*
X128550000Y-97332200D02*
X127925000Y-97957200D01*
X127925000Y-97957200D02*
X127889000Y-97993200D01*
X128452200Y-101985200D02*
X128520200Y-101985200D01*
X128520200Y-101985200D02*
X128765000Y-102230000D01*
X128452200Y-101985200D02*
X128727000Y-102260000D01*
X127925000Y-100417000D02*
X127925000Y-101458000D01*
X127925000Y-101458000D02*
X128452200Y-101985200D01*
X127925000Y-100188000D02*
X127925000Y-100417000D01*
X127925000Y-100188000D02*
X127925000Y-100417000D01*
X127925000Y-98000000D02*
X127925000Y-100188000D01*
%TO.N,Net-(C12-Pad1)*%
X130875000Y-98000000D02*
X130791200Y-98000000D01*
X130791200Y-98000000D02*
X130759000Y-97967800D01*
X130384500Y-98418800D02*
X130456200Y-98418800D01*
X130456200Y-98418800D02*
X130875000Y-98000000D01*
X130384500Y-98418800D02*
X130035000Y-98768200D01*
X130035000Y-98768200D02*
X130035000Y-104661000D01*
X130035000Y-104661000D02*
X129978000Y-104718000D01*
X130734000Y-98069400D02*
X130384500Y-98418800D01*
X129200000Y-95450000D02*
X129200000Y-96408600D01*
X129200000Y-96408600D02*
X130759000Y-97967800D01*
X129978000Y-104718000D02*
X129983000Y-104718000D01*
X129983000Y-104718000D02*
X130035000Y-104770000D01*
X129978000Y-104718000D02*
X129921000Y-104775000D01*
%TO.N,Net-(C17-Pad1)*%
X145415500Y-98373700D02*
X145501300Y-98373700D01*
X145501300Y-98373700D02*
X145775400Y-98099600D01*
X145775400Y-98099600D02*
X145796000Y-98120200D01*
X144200000Y-95450000D02*
X144200000Y-96524200D01*
X144200000Y-96524200D02*
X145775400Y-98099600D01*
X145875000Y-98000000D02*
X145775400Y-98099600D01*
X145415500Y-98373700D02*
X145796000Y-97993200D01*
X145035000Y-104770000D02*
X145035000Y-98754200D01*
X145035000Y-98754200D02*
X145415500Y-98373700D01*
X145035000Y-104770000D02*
X145035000Y-104774000D01*
X145035000Y-104774000D02*
X145034000Y-104775000D01*
%TO.N,Net-(C17-Pad2)*%
X143212500Y-97757300D02*
X143167700Y-97757300D01*
X143167700Y-97757300D02*
X142925000Y-98000000D01*
X143212500Y-97757300D02*
X142875000Y-98094800D01*
X143550000Y-95450000D02*
X143550000Y-97419800D01*
X143550000Y-97419800D02*
X143212500Y-97757300D01*
X143470700Y-101966700D02*
X143501700Y-101966700D01*
X143501700Y-101966700D02*
X143765000Y-102230000D01*
X143470700Y-101966700D02*
X143764000Y-102260000D01*
X142925000Y-98000000D02*
X142925000Y-101421000D01*
X142925000Y-101421000D02*
X143470700Y-101966700D01*
%TO.N,Net-(C18-Pad2)*%
X158356500Y-101816000D02*
X158765000Y-102224500D01*
X158765000Y-102224500D02*
X158765000Y-102230000D01*
X158356500Y-101816000D02*
X158750000Y-102210000D01*
X157950000Y-98031300D02*
X157963000Y-98044000D01*
X157963000Y-98044000D02*
X157963000Y-101422000D01*
X157963000Y-101422000D02*
X158356500Y-101816000D01*
X158547000Y-96415700D02*
X158550000Y-96412700D01*
X158550000Y-96412700D02*
X158550000Y-95450000D01*
X158547000Y-96415700D02*
X158547000Y-95453200D01*
X157925000Y-98000000D02*
X158547000Y-97378200D01*
X158547000Y-97378200D02*
X158547000Y-96415700D01*
X157950000Y-98031300D02*
X157925000Y-98006300D01*
X157925000Y-98006300D02*
X157925000Y-98000000D01*
X157937000Y-98018600D02*
X157950000Y-98031300D01*
%TO.N,Net-(C18-Pad1)*%
X160850400Y-97975400D02*
X160035000Y-98791000D01*
X160035000Y-98791000D02*
X160035000Y-104760000D01*
X160035000Y-104760000D02*
X160015000Y-104780000D01*
X160858000Y-97967800D02*
X160850400Y-97975400D01*
X160875000Y-98000000D02*
X160850400Y-97975400D01*
X159182000Y-95880000D02*
X159200000Y-95862000D01*
X159200000Y-95862000D02*
X159200000Y-95450000D01*
X159182000Y-95880000D02*
X159182000Y-95453200D01*
X160875000Y-98000000D02*
X159182000Y-96306800D01*
X159182000Y-96306800D02*
X159182000Y-95880000D01*
X160015000Y-104780000D02*
X160025000Y-104780000D01*
X160025000Y-104780000D02*
X160035000Y-104770000D01*
X160015000Y-104780000D02*
X159995000Y-104800000D01*
%TO.N,Net-(C23-Pad2)*%
X135712000Y-120523000D02*
X135712000Y-120599000D01*
X136005500Y-120229500D02*
X135712000Y-120523000D01*
X135712000Y-120523000D02*
X135661000Y-120574000D01*
X136005500Y-120229500D02*
X135995500Y-120229500D01*
X135995500Y-120229500D02*
X135725000Y-120500000D01*
X136350000Y-117950000D02*
X136350000Y-119885000D01*
X136350000Y-119885000D02*
X136005500Y-120229500D01*
X136263700Y-124452700D02*
X136287700Y-124452700D01*
X136287700Y-124452700D02*
X136565000Y-124730000D01*
X136263700Y-124452700D02*
X136550000Y-124739000D01*
X135712000Y-120599000D02*
X135738000Y-120625000D01*
X135738000Y-120625000D02*
X135738000Y-123927000D01*
X135738000Y-123927000D02*
X136263700Y-124452700D01*
%TO.N,Net-(C23-Pad1)*%
X138675000Y-120500000D02*
X138630000Y-120500000D01*
X138630000Y-120500000D02*
X138582000Y-120548000D01*
X138675000Y-120362000D02*
X138675000Y-120500000D01*
X138675000Y-120362000D02*
X138760000Y-120447000D01*
X137000000Y-117950000D02*
X137000000Y-118687000D01*
X137000000Y-118687000D02*
X138675000Y-120362000D01*
X137827500Y-127246500D02*
X137835000Y-127254000D01*
X137835000Y-127254000D02*
X137835000Y-127270000D01*
X137827500Y-127246500D02*
X137820000Y-127254000D01*
X138582000Y-120548000D02*
X137835000Y-121296000D01*
X137835000Y-121296000D02*
X137835000Y-127239000D01*
X137835000Y-127239000D02*
X137827500Y-127246500D01*
%TO.N,Net-(C24-Pad1)*%
X156997000Y-118491500D02*
X157000000Y-118488500D01*
X157000000Y-118488500D02*
X157000000Y-117950000D01*
X156997000Y-118491500D02*
X156997000Y-117983000D01*
X158498000Y-120500000D02*
X156997000Y-119000000D01*
X156997000Y-119000000D02*
X156997000Y-118491500D01*
X158471000Y-120498000D02*
X158496000Y-120498000D01*
X158496000Y-120498000D02*
X158498000Y-120500000D01*
X154788000Y-127270000D02*
X154788000Y-123274000D01*
X154788000Y-123274000D02*
X157564000Y-120498000D01*
X157564000Y-120498000D02*
X158471000Y-120498000D01*
X154788000Y-127270000D02*
X154788000Y-127330000D01*
%TO.N,Net-(C24-Pad2)*%
X156350000Y-117950000D02*
X156362000Y-117962000D01*
X156362000Y-117962000D02*
X156362000Y-117983000D01*
X153518000Y-124714000D02*
X153518000Y-124730000D01*
X154584500Y-121463000D02*
X153518000Y-122530000D01*
X153518000Y-122530000D02*
X153518000Y-124714000D01*
X154584500Y-121463000D02*
X154585000Y-121463000D01*
X154585000Y-121463000D02*
X155548000Y-120500000D01*
X155651000Y-120396000D02*
X154584500Y-121463000D01*
X155548000Y-120500000D02*
X156362000Y-119685000D01*
X156362000Y-119685000D02*
X156362000Y-117983000D01*
%TO.N,/CS8*%
X129007000Y-119964000D02*
X129000000Y-119971000D01*
X129000000Y-119971000D02*
X129000000Y-120000000D01*
X129057000Y-115545000D02*
X129972000Y-115545000D01*
X129972000Y-115545000D02*
X130999000Y-116571000D01*
X130999000Y-116571000D02*
X130999000Y-117972000D01*
X130999000Y-117972000D02*
X129007000Y-119964000D01*
X126950000Y-115500000D02*
X127996000Y-115500000D01*
X127996000Y-115500000D02*
X128066000Y-115570000D01*
X128066000Y-115570000D02*
X128710000Y-115570000D01*
X128710000Y-115570000D02*
X128736000Y-115545000D01*
X128736000Y-115545000D02*
X129057000Y-115545000D01*
%TO.N,/CS3*%
X124357800Y-81285900D02*
X116340800Y-81285900D01*
X142507000Y-119037000D02*
X142463000Y-119037000D01*
X142463000Y-119037000D02*
X141500000Y-120000000D01*
X142507000Y-119037000D02*
X141580000Y-119964000D01*
X141443000Y-115554000D02*
X142961000Y-115554000D01*
X142961000Y-115554000D02*
X143434000Y-116027000D01*
X143434000Y-116027000D02*
X143434000Y-118110000D01*
X143434000Y-118110000D02*
X142507000Y-119037000D01*
X139450000Y-115500000D02*
X140511000Y-115500000D01*
X140511000Y-115500000D02*
X140565000Y-115554000D01*
X140565000Y-115554000D02*
X141443000Y-115554000D01*
X127203200Y-78435200D02*
X127914400Y-78435200D01*
X124357800Y-81285900D02*
X125851100Y-81285900D01*
X125851100Y-81285900D02*
X127939800Y-79197200D01*
X127939800Y-79197200D02*
X127939800Y-78511400D01*
%TO.N,/CS4*%
X135454600Y-93040200D02*
X136573700Y-91921100D01*
X136573700Y-91921100D02*
X136573700Y-89675600D01*
X129199600Y-77915300D02*
X129199600Y-78981200D01*
X129199600Y-78981200D02*
X136066000Y-85847600D01*
X135454600Y-93040200D02*
X136210000Y-93040200D01*
X136210000Y-93040200D02*
X137312000Y-94142900D01*
X137312000Y-94142900D02*
X137312000Y-94818700D01*
X137312000Y-94818700D02*
X134621000Y-97510600D01*
X134621000Y-97510600D02*
X133710600Y-97510600D01*
X134645000Y-93040200D02*
X135454600Y-93040200D01*
X133710600Y-97510600D02*
X133700000Y-97500000D01*
X133710600Y-97510600D02*
X133680000Y-97510600D01*
X131650000Y-93000000D02*
X133013000Y-93000000D01*
X133013000Y-93000000D02*
X133079000Y-93065600D01*
X133079000Y-93065600D02*
X134620000Y-93065600D01*
X134620000Y-93065600D02*
X134645000Y-93040200D01*
X127914000Y-75895200D02*
X129209800Y-77191000D01*
X129209800Y-77905100D02*
X129199600Y-77915300D01*
X129209800Y-77191000D02*
X129209800Y-77905100D01*
X136066000Y-85847600D02*
X136066000Y-85850200D01*
X136066000Y-85850200D02*
X136575800Y-86360000D01*
X136575800Y-86360000D02*
X136575800Y-86360000D01*
%TO.N,/CS5*%
X132413800Y-77149500D02*
X133535500Y-77149500D01*
X133535500Y-77149500D02*
X134264000Y-77878000D01*
X134264000Y-77878000D02*
X134264000Y-78950100D01*
X134264000Y-78950100D02*
X136482300Y-81168400D01*
X136482300Y-81168400D02*
X154559400Y-81168400D01*
X154559400Y-81168400D02*
X161728900Y-88337900D01*
X161728900Y-88337900D02*
X161728900Y-89032700D01*
X161728900Y-89032700D02*
X165001500Y-92305300D01*
X165001500Y-92305300D02*
X165001500Y-93054000D01*
X165001500Y-93054000D02*
X164172000Y-93054000D01*
X165216000Y-93054000D02*
X165001500Y-93054000D01*
X161650000Y-93000000D02*
X163087000Y-93000000D01*
X163087000Y-93000000D02*
X163141000Y-93054000D01*
X163141000Y-93054000D02*
X164172000Y-93054000D01*
X132413800Y-77149500D02*
X131937300Y-77149500D01*
X131937300Y-77149500D02*
X130683000Y-75895200D01*
X130683000Y-75895200D02*
X130479800Y-75895200D01*
X165622001Y-93460107D02*
X165582847Y-93420953D01*
X165622001Y-95577999D02*
X165622001Y-93460107D01*
X163700000Y-97500000D02*
X165622001Y-95577999D01*
X165582847Y-93420953D02*
X165216000Y-93054000D01*
%TO.N,/MOSI*%
X125362000Y-88353900D02*
X125374000Y-88341200D01*
X120846000Y-94480800D02*
X124155000Y-91171600D01*
X124155000Y-91171600D02*
X124155000Y-89560400D01*
X124155000Y-89560400D02*
X125362000Y-88353900D01*
X163474000Y-114122000D02*
X164821000Y-115468000D01*
X164821000Y-115468000D02*
X164821000Y-117069000D01*
X159450000Y-116800000D02*
X160238000Y-116800000D01*
X160238000Y-116800000D02*
X160423000Y-116985000D01*
X160423000Y-116985000D02*
X163188000Y-116985000D01*
X139450000Y-116800000D02*
X139635000Y-116985000D01*
X139635000Y-116985000D02*
X142730000Y-116985000D01*
X126950000Y-116800000D02*
X127824000Y-116800000D01*
X127824000Y-116800000D02*
X127983000Y-116960000D01*
X127983000Y-116960000D02*
X130295000Y-116960000D01*
X161650000Y-94300000D02*
X162092000Y-94742000D01*
X146650000Y-94300000D02*
X146812000Y-94462000D01*
X146812000Y-94462000D02*
X151918000Y-94462000D01*
X131650000Y-94300000D02*
X131831000Y-94480800D01*
X131831000Y-94480800D02*
X136608000Y-94480800D01*
X116650000Y-94300000D02*
X116831000Y-94480800D01*
X116831000Y-94480800D02*
X120846000Y-94480800D01*
X114667000Y-116718000D02*
X115195400Y-117246400D01*
X115195400Y-117246400D02*
X117409800Y-117246400D01*
X117409800Y-117246400D02*
X117424200Y-117246400D01*
X117424200Y-117246400D02*
X117551200Y-117119400D01*
X117551200Y-117119400D02*
X117551200Y-117119400D01*
X162092000Y-94742000D02*
X163169600Y-94742000D01*
%TO.N,/MISO*%
X161129000Y-114850000D02*
X161129000Y-114801000D01*
X161129000Y-114801000D02*
X159973000Y-113646000D01*
X158672000Y-107974000D02*
X155524000Y-104826000D01*
X155524000Y-104826000D02*
X155524000Y-95678400D01*
X155524000Y-95678400D02*
X152196000Y-92350000D01*
X152196000Y-92350000D02*
X149128000Y-92350000D01*
X133405000Y-92350000D02*
X133405000Y-91867400D01*
X133405000Y-91867400D02*
X135763000Y-89509600D01*
X135763000Y-89509600D02*
X135763000Y-88341200D01*
X159450000Y-114850000D02*
X161129000Y-114850000D01*
X139450000Y-114850000D02*
X140903000Y-114850000D01*
X126950000Y-114850000D02*
X128388000Y-114850000D01*
X114667000Y-114768000D02*
X116118000Y-114768000D01*
X161650000Y-92350000D02*
X163479000Y-92350000D01*
X146650000Y-92350000D02*
X149128000Y-92350000D01*
X131650000Y-92350000D02*
X133405000Y-92350000D01*
X116650000Y-92350000D02*
X118394000Y-92350000D01*
X158685100Y-107974000D02*
X159973000Y-109261900D01*
X158672000Y-107974000D02*
X158685100Y-107974000D01*
X159973000Y-113646000D02*
X159973000Y-109261900D01*
%TO.N,/CS6*%
X138140200Y-88313900D02*
X138531000Y-88313900D01*
X138531000Y-88313900D02*
X139568400Y-89351300D01*
X139568400Y-89351300D02*
X139568400Y-91231300D01*
X139568400Y-91231300D02*
X139083100Y-91716600D01*
X139083100Y-91716600D02*
X139083100Y-94351400D01*
X139083100Y-94351400D02*
X139913900Y-95182200D01*
X139913900Y-95182200D02*
X140982200Y-95182200D01*
X161620000Y-119817500D02*
X161500000Y-119937500D01*
X161500000Y-119937500D02*
X161500000Y-120000000D01*
X161620000Y-119817500D02*
X161620000Y-120040000D01*
X161900000Y-115570000D02*
X162942000Y-115570000D01*
X162942000Y-115570000D02*
X163982000Y-116611000D01*
X163982000Y-116611000D02*
X163982000Y-117233000D01*
X163982000Y-117233000D02*
X161620000Y-119595000D01*
X161620000Y-119595000D02*
X161620000Y-119817500D01*
X159450000Y-115500000D02*
X160737000Y-115500000D01*
X160737000Y-115500000D02*
X160807000Y-115570000D01*
X160807000Y-115570000D02*
X161900000Y-115570000D01*
%TO.N,/SCLK*%
X159450000Y-116150000D02*
X161438000Y-116150000D01*
X161438000Y-116150000D02*
X161569000Y-116281000D01*
X161569000Y-116281000D02*
X162611000Y-116281000D01*
X139450000Y-116150000D02*
X140997000Y-116150000D01*
X140997000Y-116150000D02*
X141128000Y-116281000D01*
X141128000Y-116281000D02*
X142138000Y-116281000D01*
X126950000Y-116150000D02*
X128621000Y-116150000D01*
X128621000Y-116150000D02*
X128727000Y-116256000D01*
X128727000Y-116256000D02*
X129642000Y-116256000D01*
X114667000Y-116068000D02*
X116238000Y-116068000D01*
X116238000Y-116068000D02*
X116376000Y-116205000D01*
X116376000Y-116205000D02*
X117170000Y-116205000D01*
X161650000Y-93650000D02*
X163726000Y-93650000D01*
X163726000Y-93650000D02*
X163878000Y-93802200D01*
X163878000Y-93802200D02*
X164922000Y-93802200D01*
X146650000Y-93650000D02*
X149553000Y-93650000D01*
X149553000Y-93650000D02*
X149661000Y-93758000D01*
X149661000Y-93758000D02*
X150869000Y-93758000D01*
X131650000Y-93650000D02*
X134213000Y-93650000D01*
X134213000Y-93650000D02*
X134340000Y-93776800D01*
X134340000Y-93776800D02*
X135712000Y-93776800D01*
X116650000Y-93650000D02*
X117077000Y-93650000D01*
X117077000Y-93650000D02*
X117204000Y-93776800D01*
X117204000Y-93776800D02*
X120117000Y-93776800D01*
%TO.N,/CS1*%
X119304000Y-93065600D02*
X123531100Y-88838500D01*
X123531100Y-88838500D02*
X123662900Y-88838500D01*
X118700000Y-97510600D02*
X118618000Y-97510600D01*
X118858000Y-97510600D02*
X118700000Y-97510600D01*
X118700000Y-97500000D02*
X118700000Y-97510600D01*
X116650000Y-93000000D02*
X118002000Y-93000000D01*
X118002000Y-93000000D02*
X118067000Y-93065600D01*
X118067000Y-93065600D02*
X119304000Y-93065600D01*
%TO.N,/CS2*%
X138864000Y-89695400D02*
X138136200Y-90423200D01*
X138136200Y-90423200D02*
X138136200Y-92757000D01*
X139606800Y-86589600D02*
X141107000Y-86589600D01*
X141107000Y-86589600D02*
X143699900Y-83996700D01*
X148700000Y-97500000D02*
X150114000Y-97500000D01*
X150114000Y-97500000D02*
X152622000Y-94992200D01*
X152622000Y-94992200D02*
X152622000Y-94124100D01*
X152622000Y-94124100D02*
X151552000Y-93054000D01*
X151552000Y-93054000D02*
X149999000Y-93054000D01*
X146650000Y-93000000D02*
X146704000Y-93054000D01*
X146704000Y-93054000D02*
X149999000Y-93054000D01*
%TO.N,/CS7*%
X117404500Y-119196500D02*
X117303500Y-119196500D01*
X117303500Y-119196500D02*
X116500000Y-120000000D01*
X117404500Y-119196500D02*
X116561000Y-120040000D01*
X114667000Y-115418000D02*
X115726000Y-115418000D01*
X115726000Y-115418000D02*
X115780000Y-115472000D01*
X115780000Y-115472000D02*
X116684000Y-115472000D01*
X125100872Y-80564250D02*
X125039650Y-80564250D01*
X126644000Y-79021122D02*
X125100872Y-80564250D01*
X126644000Y-75350700D02*
X126644000Y-79021122D01*
X127378300Y-74616400D02*
X126644000Y-75350700D01*
X136043300Y-74616400D02*
X127378300Y-74616400D01*
X136788400Y-76436800D02*
X136788400Y-75361500D01*
X137516800Y-77165200D02*
X136788400Y-76436800D01*
X154584000Y-77165200D02*
X137516800Y-77165200D01*
X136788400Y-75361500D02*
X136043300Y-74616400D01*
X155854000Y-78435200D02*
X154584000Y-77165200D01*
X117479000Y-115472000D02*
X116684000Y-115472000D01*
X118139000Y-115472000D02*
X117479000Y-115472000D01*
X118719600Y-116052600D02*
X118139000Y-115472000D01*
X118719600Y-117881400D02*
X118719600Y-116052600D01*
X117404500Y-119196500D02*
X118719600Y-117881400D01*
D18*
%TO.N,Net-(J2-Pad1)*%
X107975000Y-86791800D02*
X109214800Y-84237100D01*
X105549000Y-89662000D02*
X108026000Y-86842600D01*
X109214800Y-84237100D02*
X109220000Y-84226400D01*
D17*
X109245000Y-84251800D02*
X109229500Y-84251800D01*
X109229500Y-84251800D02*
X109214800Y-84237100D01*
D18*
%TO.N,Net-(J2-Pad3)*%
X106694900Y-84246800D02*
X106705000Y-84226400D01*
X105435000Y-86791800D02*
X106694900Y-84246800D01*
D17*
X106705000Y-84251800D02*
X106699900Y-84251800D01*
X106699900Y-84251800D02*
X106694900Y-84246800D01*
D18*
X103899000Y-89662000D02*
X105435000Y-86791800D01*
D17*
%TO.N,Net-(J3-Pad1)*%
X109767000Y-116718000D02*
X109703000Y-116782000D01*
X109703000Y-116782000D02*
X109703000Y-116789000D01*
X110295000Y-127262000D02*
X110295000Y-127270000D01*
X110295000Y-127262000D02*
X110338000Y-127305000D01*
X109703000Y-116789000D02*
X109703000Y-126670000D01*
X109703000Y-126670000D02*
X110295000Y-127262000D01*
%TO.N,Net-(J3-Pad4)*%
X114362500Y-124448000D02*
X114105000Y-124705500D01*
X114105000Y-124705500D02*
X114105000Y-124730000D01*
X114362500Y-124448000D02*
X114071000Y-124739000D01*
X112867000Y-117868000D02*
X112867000Y-118295000D01*
X112867000Y-118295000D02*
X113768000Y-119196000D01*
X113768000Y-119196000D02*
X114271000Y-119196000D01*
X114271000Y-119196000D02*
X114654000Y-119579000D01*
X114654000Y-119579000D02*
X114654000Y-124157000D01*
X114654000Y-124157000D02*
X114362500Y-124448000D01*
%TO.N,Net-(J4-Pad1)*%
X111735000Y-94318600D02*
X111735000Y-104013000D01*
X111735000Y-104013000D02*
X112141000Y-104419500D01*
X111735000Y-94284800D02*
X111735000Y-94318600D01*
X111750000Y-94300000D02*
X111750000Y-94303600D01*
X111750000Y-94303600D02*
X111735000Y-94318600D01*
X112141000Y-104419500D02*
X112144500Y-104419500D01*
X112144500Y-104419500D02*
X112495000Y-104770000D01*
X112141000Y-104419500D02*
X112547000Y-104826000D01*
%TO.N,Net-(J4-Pad4)*%
X116555000Y-101987000D02*
X116548000Y-101987000D01*
X116548000Y-101987000D02*
X116305000Y-102230000D01*
X116555000Y-101987000D02*
X116256000Y-102286000D01*
X114850000Y-95450000D02*
X114850000Y-95877400D01*
X114850000Y-95877400D02*
X115669000Y-96696000D01*
X115669000Y-96696000D02*
X116471000Y-96696000D01*
X116471000Y-96696000D02*
X116854000Y-97079100D01*
X116854000Y-97079100D02*
X116854000Y-101688000D01*
X116854000Y-101688000D02*
X116555000Y-101987000D01*
%TO.N,Net-(J5-Pad4)*%
X131718000Y-101962000D02*
X131573000Y-101962000D01*
X131573000Y-101962000D02*
X131305000Y-102230000D01*
X131718000Y-101962000D02*
X131369000Y-102311000D01*
X129845000Y-95675400D02*
X129845000Y-95872200D01*
X129845000Y-95872200D02*
X130442000Y-96469200D01*
X130442000Y-96469200D02*
X131244000Y-96469200D01*
X131244000Y-96469200D02*
X132067000Y-97292100D01*
X132067000Y-97292100D02*
X132067000Y-101613000D01*
X132067000Y-101613000D02*
X131718000Y-101962000D01*
X129845000Y-95675400D02*
X129850000Y-95670400D01*
X129850000Y-95670400D02*
X129850000Y-95450000D01*
X129845000Y-95478600D02*
X129845000Y-95675400D01*
%TO.N,Net-(J5-Pad1)*%
X127076000Y-104445000D02*
X127170000Y-104445000D01*
X127170000Y-104445000D02*
X127495000Y-104770000D01*
X127076000Y-104445000D02*
X127457000Y-104826000D01*
X126695000Y-96003300D02*
X126695000Y-104064000D01*
X126695000Y-104064000D02*
X127076000Y-104445000D01*
X126695000Y-96003300D02*
X126750000Y-95948300D01*
X126750000Y-95948300D02*
X126750000Y-94300000D01*
X126695000Y-94284800D02*
X126695000Y-96003300D01*
%TO.N,Net-(J6-Pad4)*%
X127018500Y-124390500D02*
X126944500Y-124390500D01*
X126944500Y-124390500D02*
X126605000Y-124730000D01*
X127018500Y-124390500D02*
X126670000Y-124739000D01*
X125171000Y-118140000D02*
X125171000Y-118399000D01*
X125171000Y-118399000D02*
X125527000Y-118754000D01*
X125527000Y-118754000D02*
X126329000Y-118754000D01*
X126329000Y-118754000D02*
X127367000Y-119792000D01*
X127367000Y-119792000D02*
X127367000Y-124042000D01*
X127367000Y-124042000D02*
X127018500Y-124390500D01*
X125171000Y-118140000D02*
X125150000Y-118119000D01*
X125150000Y-118119000D02*
X125150000Y-117950000D01*
X125171000Y-117881000D02*
X125171000Y-118140000D01*
%TO.N,Net-(J6-Pad1)*%
X122415500Y-126936500D02*
X122461500Y-126936500D01*
X122461500Y-126936500D02*
X122795000Y-127270000D01*
X122415500Y-126936500D02*
X122784000Y-127305000D01*
X122047000Y-118466900D02*
X122047000Y-126568000D01*
X122047000Y-126568000D02*
X122415500Y-126936500D01*
X122047000Y-118466900D02*
X122050000Y-118463900D01*
X122050000Y-118463900D02*
X122050000Y-116800000D01*
X122047000Y-116764000D02*
X122047000Y-118466900D01*
%TO.N,Net-(J7-Pad4)*%
X146591500Y-101998000D02*
X146537000Y-101998000D01*
X146537000Y-101998000D02*
X146305000Y-102230000D01*
X146591500Y-101998000D02*
X146329000Y-102260000D01*
X144850000Y-95450000D02*
X144850000Y-95877400D01*
X144850000Y-95877400D02*
X145669000Y-96696000D01*
X145669000Y-96696000D02*
X146471000Y-96696000D01*
X146471000Y-96696000D02*
X146854000Y-97079100D01*
X146854000Y-97079100D02*
X146854000Y-101736000D01*
X146854000Y-101736000D02*
X146591500Y-101998000D01*
%TO.N,Net-(J7-Pad1)*%
X141750000Y-94300000D02*
X141707000Y-94343000D01*
X141707000Y-94343000D02*
X141707000Y-94386400D01*
X142126000Y-104407000D02*
X142132000Y-104407000D01*
X142132000Y-104407000D02*
X142495000Y-104770000D01*
X142126000Y-104407000D02*
X142519000Y-104800000D01*
X141707000Y-94386400D02*
X141733000Y-94412800D01*
X141733000Y-94412800D02*
X141733000Y-104014000D01*
X141733000Y-104014000D02*
X142126000Y-104407000D01*
%TO.N,Net-(J8-Pad1)*%
X156750000Y-94300000D02*
X156728600Y-94300000D01*
X156728600Y-94300000D02*
X156693000Y-94335600D01*
X157099000Y-104368500D02*
X157495000Y-104764500D01*
X157495000Y-104764500D02*
X157495000Y-104770000D01*
X157099000Y-104368500D02*
X157505000Y-104775000D01*
X156693000Y-94335600D02*
X156693000Y-103962000D01*
X156693000Y-103962000D02*
X157099000Y-104368500D01*
%TO.N,Net-(J8-Pad4)*%
X161704000Y-101872000D02*
X161663000Y-101872000D01*
X161663000Y-101872000D02*
X161305000Y-102230000D01*
X161704000Y-101872000D02*
X161341000Y-102235000D01*
X159868000Y-95661400D02*
X159868000Y-95895000D01*
X159868000Y-95895000D02*
X160467000Y-96494600D01*
X160467000Y-96494600D02*
X161849000Y-96494600D01*
X161849000Y-96494600D02*
X162067000Y-96712800D01*
X162067000Y-96712800D02*
X162067000Y-101509000D01*
X162067000Y-101509000D02*
X161704000Y-101872000D01*
X159868000Y-95661400D02*
X159850000Y-95643400D01*
X159850000Y-95643400D02*
X159850000Y-95450000D01*
X159868000Y-95427800D02*
X159868000Y-95661400D01*
%TO.N,Net-(J9-Pad1)*%
X134886500Y-126911000D02*
X134936000Y-126911000D01*
X134936000Y-126911000D02*
X135295000Y-127270000D01*
X134886500Y-126911000D02*
X135280000Y-127305000D01*
X134493000Y-118493900D02*
X134493000Y-126517000D01*
X134493000Y-126517000D02*
X134886500Y-126911000D01*
X134493000Y-118493900D02*
X134550000Y-118436900D01*
X134550000Y-118436900D02*
X134550000Y-116800000D01*
X134493000Y-116764000D02*
X134493000Y-118493900D01*
%TO.N,Net-(J9-Pad4)*%
X139491500Y-124363500D02*
X139471500Y-124363500D01*
X139471500Y-124363500D02*
X139105000Y-124730000D01*
X139491500Y-124363500D02*
X139116000Y-124739000D01*
X137668000Y-118163500D02*
X137668000Y-118395000D01*
X137668000Y-118395000D02*
X138027000Y-118754000D01*
X138027000Y-118754000D02*
X138829000Y-118754000D01*
X138829000Y-118754000D02*
X139867000Y-119792000D01*
X139867000Y-119792000D02*
X139867000Y-123988000D01*
X139867000Y-123988000D02*
X139491500Y-124363500D01*
X137668000Y-118163500D02*
X137650000Y-118145500D01*
X137650000Y-118145500D02*
X137650000Y-117950000D01*
X137668000Y-117932000D02*
X137668000Y-118163500D01*
%TO.N,Net-(J10-Pad4)*%
X156074000Y-124714000D02*
X156058000Y-124730000D01*
X157658000Y-118250000D02*
X157658000Y-118542000D01*
X157658000Y-118542000D02*
X157870000Y-118754000D01*
X157870000Y-118754000D02*
X158652000Y-118754000D01*
X158652000Y-118754000D02*
X159477000Y-119579000D01*
X159477000Y-119579000D02*
X159477000Y-121421000D01*
X159477000Y-121421000D02*
X157168000Y-123730000D01*
X157168000Y-123730000D02*
X157168000Y-123731000D01*
X157168000Y-123731000D02*
X156185000Y-124714000D01*
X156185000Y-124714000D02*
X156074000Y-124714000D01*
X156074000Y-124714000D02*
X156058000Y-124714000D01*
X157658000Y-118250000D02*
X157650000Y-118242000D01*
X157650000Y-118242000D02*
X157650000Y-117950000D01*
X157658000Y-117958000D02*
X157658000Y-118250000D01*
%TO.N,Net-(J10-Pad1)*%
X153705000Y-117542000D02*
X153808000Y-117542000D01*
X153808000Y-117542000D02*
X154550000Y-116800000D01*
X153705000Y-117542000D02*
X154407000Y-116840000D01*
X152248000Y-127270000D02*
X152248000Y-118999000D01*
X152248000Y-118999000D02*
X153705000Y-117542000D01*
X152248000Y-127270000D02*
X152248000Y-127279000D01*
%TO.N,Net-(R1-Pad2)*%
X109760000Y-116020000D02*
X109767000Y-116027000D01*
X109767000Y-116027000D02*
X109767000Y-116068000D01*
X109760000Y-116020000D02*
X109753000Y-116027000D01*
X109767000Y-115418000D02*
X109767000Y-116013000D01*
X109767000Y-116013000D02*
X109760000Y-116020000D01*
X108133000Y-116225500D02*
X108099500Y-116225500D01*
X108099500Y-116225500D02*
X108000000Y-116325000D01*
X108133000Y-116225500D02*
X107975000Y-116383000D01*
X109767000Y-116068000D02*
X108291000Y-116068000D01*
X108291000Y-116068000D02*
X108133000Y-116225500D01*
%TO.N,Net-(R1-Pad1)*%
X108026000Y-114732000D02*
X108000000Y-114706000D01*
X108000000Y-114706000D02*
X108000000Y-114675000D01*
X109767000Y-114768000D02*
X108062000Y-114768000D01*
X108062000Y-114768000D02*
X108026000Y-114732000D01*
X109773000Y-114153500D02*
X109767000Y-114147500D01*
X109767000Y-114147500D02*
X109767000Y-114118000D01*
X109773000Y-114153500D02*
X109779000Y-114148000D01*
X109767000Y-114768000D02*
X109767000Y-114159000D01*
X109767000Y-114159000D02*
X109773000Y-114153500D01*
%TO.N,Net-(R2-Pad2)*%
X120000000Y-116220000D02*
X120000000Y-116325000D01*
X122050000Y-116150000D02*
X120070000Y-116150000D01*
X120070000Y-116150000D02*
X120000000Y-116220000D01*
X120000000Y-116220000D02*
X119964000Y-116256000D01*
X122050000Y-116150000D02*
X122050000Y-116151000D01*
X122050000Y-116151000D02*
X122047000Y-116154000D01*
X122050000Y-115500000D02*
X122050000Y-116150000D01*
%TO.N,Net-(R2-Pad1)*%
X119947000Y-114740000D02*
X120000000Y-114687000D01*
X120000000Y-114687000D02*
X120000000Y-114675000D01*
X119947000Y-114740000D02*
X119837000Y-114630000D01*
X122050000Y-114850000D02*
X120057000Y-114850000D01*
X120057000Y-114850000D02*
X119947000Y-114740000D01*
X122050000Y-114850000D02*
X122050000Y-114881000D01*
X122050000Y-114881000D02*
X122022000Y-114910000D01*
X122050000Y-114200000D02*
X122050000Y-114850000D01*
%TO.N,Net-(R3-Pad1)*%
X111750000Y-92350000D02*
X110602000Y-92253900D01*
X110602000Y-92253900D02*
X110078900Y-92253900D01*
X110078900Y-92253900D02*
X110000000Y-92175000D01*
X110602000Y-92253900D02*
X109982000Y-92202000D01*
X111755000Y-92034700D02*
X111750000Y-92029700D01*
X111750000Y-92029700D02*
X111750000Y-91700000D01*
X111755000Y-92034700D02*
X111760000Y-91719400D01*
X111750000Y-92350000D02*
X111755000Y-92034700D01*
%TO.N,Net-(R3-Pad2)*%
X111750000Y-93650000D02*
X110564300Y-93764200D01*
X110564300Y-93764200D02*
X110060800Y-93764200D01*
X110060800Y-93764200D02*
X110000000Y-93825000D01*
X110564300Y-93764200D02*
X109906000Y-93827600D01*
X111755000Y-93319700D02*
X111750000Y-93314700D01*
X111750000Y-93314700D02*
X111750000Y-93000000D01*
X111755000Y-93319700D02*
X111760000Y-92989400D01*
X111750000Y-93650000D02*
X111755000Y-93319700D01*
%TO.N,Net-(R4-Pad1)*%
X126750000Y-91700000D02*
X126746000Y-91704000D01*
X126746000Y-91704000D02*
X126746000Y-91719400D01*
X125054500Y-92263300D02*
X125000000Y-92208800D01*
X125000000Y-92208800D02*
X125000000Y-92175000D01*
X125054500Y-92263300D02*
X124968000Y-92176600D01*
X126750000Y-92350000D02*
X125141000Y-92350000D01*
X125141000Y-92350000D02*
X125054500Y-92263300D01*
X126750000Y-92350000D02*
X126750000Y-91723400D01*
X126750000Y-91723400D02*
X126746000Y-91719400D01*
%TO.N,Net-(R4-Pad2)*%
X125031500Y-93738800D02*
X125000000Y-93770300D01*
X125000000Y-93770300D02*
X125000000Y-93825000D01*
X125031500Y-93738800D02*
X124943000Y-93827600D01*
X126750000Y-93650000D02*
X125120000Y-93650000D01*
X125120000Y-93650000D02*
X125031500Y-93738800D01*
X126750000Y-93000000D02*
X126750000Y-92993400D01*
X126750000Y-92993400D02*
X126746000Y-92989400D01*
X126750000Y-93650000D02*
X126750000Y-93000000D01*
%TO.N,Net-(R5-Pad1)*%
X141750000Y-91700000D02*
X141757000Y-91707000D01*
X141757000Y-91707000D02*
X141757000Y-91719400D01*
X140091500Y-92263300D02*
X140088300Y-92263300D01*
X140088300Y-92263300D02*
X140000000Y-92175000D01*
X140091500Y-92263300D02*
X140005000Y-92176600D01*
X141750000Y-92350000D02*
X140178000Y-92350000D01*
X140178000Y-92350000D02*
X140091500Y-92263300D01*
X141750000Y-92350000D02*
X141750000Y-91726800D01*
X141750000Y-91726800D02*
X141757000Y-91719400D01*
%TO.N,Net-(R5-Pad2)*%
X141733600Y-93016400D02*
X141732000Y-93014800D01*
X141750000Y-93650000D02*
X141750000Y-93032800D01*
X141750000Y-93032800D02*
X141733600Y-93016400D01*
X141750000Y-93000000D02*
X141733600Y-93016400D01*
X140068000Y-93738800D02*
X140068000Y-93757000D01*
X140068000Y-93757000D02*
X140000000Y-93825000D01*
X140068000Y-93738800D02*
X139979000Y-93827600D01*
X141750000Y-93650000D02*
X140157000Y-93650000D01*
X140157000Y-93650000D02*
X140068000Y-93738800D01*
%TO.N,Net-(R6-Pad1)*%
X156772000Y-92281500D02*
X156750000Y-92303500D01*
X156750000Y-92303500D02*
X156750000Y-92350000D01*
X156772000Y-92281500D02*
X156794000Y-92303600D01*
X156750000Y-91700000D02*
X156750000Y-92259400D01*
X156750000Y-92259400D02*
X156772000Y-92281500D01*
X155090500Y-92250600D02*
X155075600Y-92250600D01*
X155075600Y-92250600D02*
X155000000Y-92175000D01*
X155090500Y-92250600D02*
X154991000Y-92151200D01*
X156750000Y-92350000D02*
X155190000Y-92350000D01*
X155190000Y-92350000D02*
X155090500Y-92250600D01*
%TO.N,Net-(R6-Pad2)*%
X155067000Y-93726100D02*
X155000000Y-93793100D01*
X155000000Y-93793100D02*
X155000000Y-93825000D01*
X155067000Y-93726100D02*
X154991000Y-93802200D01*
X156750000Y-93650000D02*
X155143000Y-93650000D01*
X155143000Y-93650000D02*
X155067000Y-93726100D01*
X156750000Y-93650000D02*
X156750000Y-93668600D01*
X156750000Y-93668600D02*
X156743000Y-93675200D01*
X156750000Y-93000000D02*
X156750000Y-93650000D01*
%TO.N,Net-(R7-Pad2)*%
X134550000Y-115500000D02*
X134569000Y-115519000D01*
X132606000Y-116289000D02*
X132536000Y-116289000D01*
X132536000Y-116289000D02*
X132500000Y-116325000D01*
X132606000Y-116289000D02*
X132563000Y-116332000D01*
X132649000Y-116246000D02*
X132606000Y-116289000D01*
X132590000Y-116228500D02*
X132500000Y-116318500D01*
X132500000Y-116318500D02*
X132500000Y-116325000D01*
X132590000Y-116228500D02*
X132512000Y-116307000D01*
X134548000Y-116150000D02*
X132668000Y-116150000D01*
X132668000Y-116150000D02*
X132590000Y-116228500D01*
X134550000Y-116150000D02*
X134548000Y-116150000D01*
X134550000Y-116150000D02*
X134550000Y-115538000D01*
X134550000Y-115538000D02*
X134569000Y-115519000D01*
X134550000Y-116150000D02*
X134548000Y-116150000D01*
%TO.N,Net-(R7-Pad1)*%
X134550000Y-114200000D02*
X134544000Y-114206000D01*
X134544000Y-114206000D02*
X134544000Y-114224000D01*
X132500000Y-114695000D02*
X132500000Y-114675000D01*
X134550000Y-114850000D02*
X132655000Y-114850000D01*
X132655000Y-114850000D02*
X132500000Y-114695000D01*
X132500000Y-114695000D02*
X132461000Y-114656000D01*
X134550000Y-114850000D02*
X134550000Y-114230000D01*
X134550000Y-114230000D02*
X134544000Y-114224000D01*
%TO.N,Net-(R8-Pad2)*%
X154550000Y-115500000D02*
X154559000Y-115509000D01*
X154559000Y-115509000D02*
X154559000Y-115519000D01*
X152491000Y-116241000D02*
X152484000Y-116241000D01*
X152484000Y-116241000D02*
X152400000Y-116325000D01*
X152491000Y-116241000D02*
X152400000Y-116332000D01*
X154550000Y-116150000D02*
X152582000Y-116150000D01*
X152582000Y-116150000D02*
X152491000Y-116241000D01*
X154550000Y-116150000D02*
X154550000Y-115528000D01*
X154550000Y-115528000D02*
X154559000Y-115519000D01*
%TO.N,Net-(R8-Pad1)*%
X152400000Y-114706000D02*
X152400000Y-114675000D01*
X154550000Y-114850000D02*
X152544000Y-114850000D01*
X152544000Y-114850000D02*
X152400000Y-114706000D01*
X154554500Y-114202500D02*
X154552500Y-114202500D01*
X154552500Y-114202500D02*
X154550000Y-114200000D01*
X154554500Y-114202500D02*
X154559000Y-114198000D01*
X154550000Y-114850000D02*
X154550000Y-114207000D01*
X154550000Y-114207000D02*
X154554500Y-114202500D01*
%TO.N,/DRDY1*%
X114200000Y-90550000D02*
X114200000Y-89358800D01*
%TO.N,/DRDY2*%
X144200000Y-90550000D02*
X144200000Y-89251400D01*
X144200000Y-89251400D02*
X144221000Y-89230200D01*
%TO.N,/DRDY3*%
X137000000Y-113050000D02*
X137000000Y-111945000D01*
%TO.N,/DRDY4*%
X129200000Y-90550000D02*
X129200000Y-89449000D01*
%TO.N,/DRDY5*%
X159200000Y-90550000D02*
X159200000Y-89415200D01*
%TO.N,/DRDY6*%
X157000000Y-113050000D02*
X157000000Y-111966000D01*
%TO.N,/DRDY7*%
X112217000Y-112968000D02*
X112217000Y-111963000D01*
%TO.N,/DRDY8*%
X124500000Y-113050000D02*
X124500000Y-111949000D01*
%TD*%
M02*
