%TF.GenerationSoftware,KiCad,Pcbnew,(5.1.10)-1*%
%TF.CreationDate,2021-10-18T20:40:58-05:00*%
%TF.ProjectId,Pt100Hat,50743130-3048-4617-942e-6b696361645f,1*%
%TF.SameCoordinates,Original*%
%TF.FileFunction,Soldermask,Top*%
%TF.FilePolarity,Negative*%
%FSLAX46Y46*%
G04 Gerber Fmt 4.6, Leading zero omitted, Abs format (unit mm)*
G04 Created by KiCad (PCBNEW (5.1.10)-1) date 2021-10-18 20:40:58*
%MOMM*%
%LPD*%
G01*
G04 APERTURE LIST*
%TA.AperFunction,Profile*%
%ADD10C,0.100000*%
%TD*%
%ADD11R,3.350000X3.350000*%
%ADD12C,1.524000*%
%ADD13C,1.500000*%
%ADD14O,2.000000X17.000000*%
%ADD15C,2.750000*%
%ADD16R,1.700000X1.700000*%
%ADD17O,1.700000X1.700000*%
%ADD18C,2.000000*%
G04 APERTURE END LIST*
D10*
X104800400Y-129997200D02*
X163982400Y-129997200D01*
X163728400Y-73101200D02*
X104800400Y-73101200D01*
X166776400Y-76149200D02*
G75*
G03*
X163728400Y-73101200I-3048000J0D01*
G01*
X101752400Y-111455200D02*
X101752400Y-126949200D01*
X102768400Y-110439200D02*
X105816400Y-110439200D01*
X106832400Y-94437200D02*
X106832400Y-109423200D01*
X102768400Y-93421200D02*
X105816400Y-93421200D01*
X101752400Y-76149200D02*
X101752400Y-92405200D01*
X104800400Y-73101200D02*
G75*
G03*
X101752400Y-76149200I0J-3048000D01*
G01*
X166776400Y-126695200D02*
X166776400Y-76149200D01*
X106832400Y-94437200D02*
G75*
G03*
X105816400Y-93421200I-1016000J0D01*
G01*
X105816400Y-110439200D02*
G75*
G03*
X106832400Y-109423200I0J1016000D01*
G01*
X102768400Y-110439200D02*
G75*
G03*
X101752400Y-111455200I0J-1016000D01*
G01*
X101752400Y-92405200D02*
G75*
G03*
X102768400Y-93421200I1016000J0D01*
G01*
X101752400Y-126949200D02*
G75*
G03*
X104800400Y-129997200I3048000J0D01*
G01*
X163982400Y-129997200D02*
G75*
G03*
X166776400Y-126695200I-254000J3048000D01*
G01*
D11*
%TO.C,U1*%
X112217000Y-115418000D03*
G36*
G01*
X110767000Y-113293000D02*
X110767000Y-112643000D01*
G75*
G02*
X110842000Y-112568000I75000J0D01*
G01*
X110992000Y-112568000D01*
G75*
G02*
X111067000Y-112643000I0J-75000D01*
G01*
X111067000Y-113293000D01*
G75*
G02*
X110992000Y-113368000I-75000J0D01*
G01*
X110842000Y-113368000D01*
G75*
G02*
X110767000Y-113293000I0J75000D01*
G01*
G37*
G36*
G01*
X111417000Y-113293000D02*
X111417000Y-112643000D01*
G75*
G02*
X111492000Y-112568000I75000J0D01*
G01*
X111642000Y-112568000D01*
G75*
G02*
X111717000Y-112643000I0J-75000D01*
G01*
X111717000Y-113293000D01*
G75*
G02*
X111642000Y-113368000I-75000J0D01*
G01*
X111492000Y-113368000D01*
G75*
G02*
X111417000Y-113293000I0J75000D01*
G01*
G37*
G36*
G01*
X112067000Y-113293000D02*
X112067000Y-112643000D01*
G75*
G02*
X112142000Y-112568000I75000J0D01*
G01*
X112292000Y-112568000D01*
G75*
G02*
X112367000Y-112643000I0J-75000D01*
G01*
X112367000Y-113293000D01*
G75*
G02*
X112292000Y-113368000I-75000J0D01*
G01*
X112142000Y-113368000D01*
G75*
G02*
X112067000Y-113293000I0J75000D01*
G01*
G37*
G36*
G01*
X112717000Y-113293000D02*
X112717000Y-112643000D01*
G75*
G02*
X112792000Y-112568000I75000J0D01*
G01*
X112942000Y-112568000D01*
G75*
G02*
X113017000Y-112643000I0J-75000D01*
G01*
X113017000Y-113293000D01*
G75*
G02*
X112942000Y-113368000I-75000J0D01*
G01*
X112792000Y-113368000D01*
G75*
G02*
X112717000Y-113293000I0J75000D01*
G01*
G37*
G36*
G01*
X113367000Y-113293000D02*
X113367000Y-112643000D01*
G75*
G02*
X113442000Y-112568000I75000J0D01*
G01*
X113592000Y-112568000D01*
G75*
G02*
X113667000Y-112643000I0J-75000D01*
G01*
X113667000Y-113293000D01*
G75*
G02*
X113592000Y-113368000I-75000J0D01*
G01*
X113442000Y-113368000D01*
G75*
G02*
X113367000Y-113293000I0J75000D01*
G01*
G37*
G36*
G01*
X114267000Y-114193000D02*
X114267000Y-114043000D01*
G75*
G02*
X114342000Y-113968000I75000J0D01*
G01*
X114992000Y-113968000D01*
G75*
G02*
X115067000Y-114043000I0J-75000D01*
G01*
X115067000Y-114193000D01*
G75*
G02*
X114992000Y-114268000I-75000J0D01*
G01*
X114342000Y-114268000D01*
G75*
G02*
X114267000Y-114193000I0J75000D01*
G01*
G37*
G36*
G01*
X114267000Y-114843000D02*
X114267000Y-114693000D01*
G75*
G02*
X114342000Y-114618000I75000J0D01*
G01*
X114992000Y-114618000D01*
G75*
G02*
X115067000Y-114693000I0J-75000D01*
G01*
X115067000Y-114843000D01*
G75*
G02*
X114992000Y-114918000I-75000J0D01*
G01*
X114342000Y-114918000D01*
G75*
G02*
X114267000Y-114843000I0J75000D01*
G01*
G37*
G36*
G01*
X114267000Y-115493000D02*
X114267000Y-115343000D01*
G75*
G02*
X114342000Y-115268000I75000J0D01*
G01*
X114992000Y-115268000D01*
G75*
G02*
X115067000Y-115343000I0J-75000D01*
G01*
X115067000Y-115493000D01*
G75*
G02*
X114992000Y-115568000I-75000J0D01*
G01*
X114342000Y-115568000D01*
G75*
G02*
X114267000Y-115493000I0J75000D01*
G01*
G37*
G36*
G01*
X114267000Y-116143000D02*
X114267000Y-115993000D01*
G75*
G02*
X114342000Y-115918000I75000J0D01*
G01*
X114992000Y-115918000D01*
G75*
G02*
X115067000Y-115993000I0J-75000D01*
G01*
X115067000Y-116143000D01*
G75*
G02*
X114992000Y-116218000I-75000J0D01*
G01*
X114342000Y-116218000D01*
G75*
G02*
X114267000Y-116143000I0J75000D01*
G01*
G37*
G36*
G01*
X114267000Y-116793000D02*
X114267000Y-116643000D01*
G75*
G02*
X114342000Y-116568000I75000J0D01*
G01*
X114992000Y-116568000D01*
G75*
G02*
X115067000Y-116643000I0J-75000D01*
G01*
X115067000Y-116793000D01*
G75*
G02*
X114992000Y-116868000I-75000J0D01*
G01*
X114342000Y-116868000D01*
G75*
G02*
X114267000Y-116793000I0J75000D01*
G01*
G37*
G36*
G01*
X113367000Y-118193000D02*
X113367000Y-117543000D01*
G75*
G02*
X113442000Y-117468000I75000J0D01*
G01*
X113592000Y-117468000D01*
G75*
G02*
X113667000Y-117543000I0J-75000D01*
G01*
X113667000Y-118193000D01*
G75*
G02*
X113592000Y-118268000I-75000J0D01*
G01*
X113442000Y-118268000D01*
G75*
G02*
X113367000Y-118193000I0J75000D01*
G01*
G37*
G36*
G01*
X112717000Y-118193000D02*
X112717000Y-117543000D01*
G75*
G02*
X112792000Y-117468000I75000J0D01*
G01*
X112942000Y-117468000D01*
G75*
G02*
X113017000Y-117543000I0J-75000D01*
G01*
X113017000Y-118193000D01*
G75*
G02*
X112942000Y-118268000I-75000J0D01*
G01*
X112792000Y-118268000D01*
G75*
G02*
X112717000Y-118193000I0J75000D01*
G01*
G37*
G36*
G01*
X112067000Y-118193000D02*
X112067000Y-117543000D01*
G75*
G02*
X112142000Y-117468000I75000J0D01*
G01*
X112292000Y-117468000D01*
G75*
G02*
X112367000Y-117543000I0J-75000D01*
G01*
X112367000Y-118193000D01*
G75*
G02*
X112292000Y-118268000I-75000J0D01*
G01*
X112142000Y-118268000D01*
G75*
G02*
X112067000Y-118193000I0J75000D01*
G01*
G37*
G36*
G01*
X111417000Y-118193000D02*
X111417000Y-117543000D01*
G75*
G02*
X111492000Y-117468000I75000J0D01*
G01*
X111642000Y-117468000D01*
G75*
G02*
X111717000Y-117543000I0J-75000D01*
G01*
X111717000Y-118193000D01*
G75*
G02*
X111642000Y-118268000I-75000J0D01*
G01*
X111492000Y-118268000D01*
G75*
G02*
X111417000Y-118193000I0J75000D01*
G01*
G37*
G36*
G01*
X110767000Y-118193000D02*
X110767000Y-117543000D01*
G75*
G02*
X110842000Y-117468000I75000J0D01*
G01*
X110992000Y-117468000D01*
G75*
G02*
X111067000Y-117543000I0J-75000D01*
G01*
X111067000Y-118193000D01*
G75*
G02*
X110992000Y-118268000I-75000J0D01*
G01*
X110842000Y-118268000D01*
G75*
G02*
X110767000Y-118193000I0J75000D01*
G01*
G37*
G36*
G01*
X109367000Y-116793000D02*
X109367000Y-116643000D01*
G75*
G02*
X109442000Y-116568000I75000J0D01*
G01*
X110092000Y-116568000D01*
G75*
G02*
X110167000Y-116643000I0J-75000D01*
G01*
X110167000Y-116793000D01*
G75*
G02*
X110092000Y-116868000I-75000J0D01*
G01*
X109442000Y-116868000D01*
G75*
G02*
X109367000Y-116793000I0J75000D01*
G01*
G37*
G36*
G01*
X109367000Y-116143000D02*
X109367000Y-115993000D01*
G75*
G02*
X109442000Y-115918000I75000J0D01*
G01*
X110092000Y-115918000D01*
G75*
G02*
X110167000Y-115993000I0J-75000D01*
G01*
X110167000Y-116143000D01*
G75*
G02*
X110092000Y-116218000I-75000J0D01*
G01*
X109442000Y-116218000D01*
G75*
G02*
X109367000Y-116143000I0J75000D01*
G01*
G37*
G36*
G01*
X109367000Y-115493000D02*
X109367000Y-115343000D01*
G75*
G02*
X109442000Y-115268000I75000J0D01*
G01*
X110092000Y-115268000D01*
G75*
G02*
X110167000Y-115343000I0J-75000D01*
G01*
X110167000Y-115493000D01*
G75*
G02*
X110092000Y-115568000I-75000J0D01*
G01*
X109442000Y-115568000D01*
G75*
G02*
X109367000Y-115493000I0J75000D01*
G01*
G37*
G36*
G01*
X109367000Y-114843000D02*
X109367000Y-114693000D01*
G75*
G02*
X109442000Y-114618000I75000J0D01*
G01*
X110092000Y-114618000D01*
G75*
G02*
X110167000Y-114693000I0J-75000D01*
G01*
X110167000Y-114843000D01*
G75*
G02*
X110092000Y-114918000I-75000J0D01*
G01*
X109442000Y-114918000D01*
G75*
G02*
X109367000Y-114843000I0J75000D01*
G01*
G37*
G36*
G01*
X109367000Y-114193000D02*
X109367000Y-114043000D01*
G75*
G02*
X109442000Y-113968000I75000J0D01*
G01*
X110092000Y-113968000D01*
G75*
G02*
X110167000Y-114043000I0J-75000D01*
G01*
X110167000Y-114193000D01*
G75*
G02*
X110092000Y-114268000I-75000J0D01*
G01*
X109442000Y-114268000D01*
G75*
G02*
X109367000Y-114193000I0J75000D01*
G01*
G37*
%TD*%
D12*
%TO.C,J4*%
X112495000Y-104770000D03*
X113765000Y-102230000D03*
X115035000Y-104770000D03*
X116305000Y-102230000D03*
D13*
X117705000Y-104030000D03*
%TD*%
D14*
%TO.C,RPiCameraFlexSlot*%
X146583000Y-118567000D03*
%TD*%
D15*
%TO.C,RPiHATMountHole3*%
X105308000Y-126060000D03*
%TD*%
%TO.C,RPiHATMountHole4*%
X163220000Y-126060000D03*
%TD*%
%TO.C,RPiHATMountHole2*%
X163220000Y-77038200D03*
%TD*%
%TO.C,RPiHATMountHole1*%
X105308000Y-77038200D03*
%TD*%
%TO.C,C1*%
G36*
G01*
X113200000Y-110955000D02*
X113200000Y-110645000D01*
G75*
G02*
X113355000Y-110490000I155000J0D01*
G01*
X113780000Y-110490000D01*
G75*
G02*
X113935000Y-110645000I0J-155000D01*
G01*
X113935000Y-110955000D01*
G75*
G02*
X113780000Y-111110000I-155000J0D01*
G01*
X113355000Y-111110000D01*
G75*
G02*
X113200000Y-110955000I0J155000D01*
G01*
G37*
G36*
G01*
X112065000Y-110955000D02*
X112065000Y-110645000D01*
G75*
G02*
X112220000Y-110490000I155000J0D01*
G01*
X112645000Y-110490000D01*
G75*
G02*
X112800000Y-110645000I0J-155000D01*
G01*
X112800000Y-110955000D01*
G75*
G02*
X112645000Y-111110000I-155000J0D01*
G01*
X112220000Y-111110000D01*
G75*
G02*
X112065000Y-110955000I0J155000D01*
G01*
G37*
%TD*%
%TO.C,C2*%
G36*
G01*
X110765000Y-111000000D02*
X111075000Y-111000000D01*
G75*
G02*
X111230000Y-111155000I0J-155000D01*
G01*
X111230000Y-111580000D01*
G75*
G02*
X111075000Y-111735000I-155000J0D01*
G01*
X110765000Y-111735000D01*
G75*
G02*
X110610000Y-111580000I0J155000D01*
G01*
X110610000Y-111155000D01*
G75*
G02*
X110765000Y-111000000I155000J0D01*
G01*
G37*
G36*
G01*
X110765000Y-109865000D02*
X111075000Y-109865000D01*
G75*
G02*
X111230000Y-110020000I0J-155000D01*
G01*
X111230000Y-110445000D01*
G75*
G02*
X111075000Y-110600000I-155000J0D01*
G01*
X110765000Y-110600000D01*
G75*
G02*
X110610000Y-110445000I0J155000D01*
G01*
X110610000Y-110020000D01*
G75*
G02*
X110765000Y-109865000I155000J0D01*
G01*
G37*
%TD*%
%TO.C,C3*%
G36*
G01*
X114250000Y-119849999D02*
X114250000Y-121150001D01*
G75*
G02*
X114000001Y-121400000I-249999J0D01*
G01*
X113349999Y-121400000D01*
G75*
G02*
X113100000Y-121150001I0J249999D01*
G01*
X113100000Y-119849999D01*
G75*
G02*
X113349999Y-119600000I249999J0D01*
G01*
X114000001Y-119600000D01*
G75*
G02*
X114250000Y-119849999I0J-249999D01*
G01*
G37*
G36*
G01*
X111300000Y-119849999D02*
X111300000Y-121150001D01*
G75*
G02*
X111050001Y-121400000I-249999J0D01*
G01*
X110399999Y-121400000D01*
G75*
G02*
X110150000Y-121150001I0J249999D01*
G01*
X110150000Y-119849999D01*
G75*
G02*
X110399999Y-119600000I249999J0D01*
G01*
X111050001Y-119600000D01*
G75*
G02*
X111300000Y-119849999I0J-249999D01*
G01*
G37*
%TD*%
%TO.C,C4*%
G36*
G01*
X125431000Y-110955000D02*
X125431000Y-110645000D01*
G75*
G02*
X125586000Y-110490000I155000J0D01*
G01*
X126011000Y-110490000D01*
G75*
G02*
X126166000Y-110645000I0J-155000D01*
G01*
X126166000Y-110955000D01*
G75*
G02*
X126011000Y-111110000I-155000J0D01*
G01*
X125586000Y-111110000D01*
G75*
G02*
X125431000Y-110955000I0J155000D01*
G01*
G37*
G36*
G01*
X124296000Y-110955000D02*
X124296000Y-110645000D01*
G75*
G02*
X124451000Y-110490000I155000J0D01*
G01*
X124876000Y-110490000D01*
G75*
G02*
X125031000Y-110645000I0J-155000D01*
G01*
X125031000Y-110955000D01*
G75*
G02*
X124876000Y-111110000I-155000J0D01*
G01*
X124451000Y-111110000D01*
G75*
G02*
X124296000Y-110955000I0J155000D01*
G01*
G37*
%TD*%
%TO.C,C5*%
G36*
G01*
X114009000Y-88455000D02*
X114009000Y-88145000D01*
G75*
G02*
X114164000Y-87990000I155000J0D01*
G01*
X114589000Y-87990000D01*
G75*
G02*
X114744000Y-88145000I0J-155000D01*
G01*
X114744000Y-88455000D01*
G75*
G02*
X114589000Y-88610000I-155000J0D01*
G01*
X114164000Y-88610000D01*
G75*
G02*
X114009000Y-88455000I0J155000D01*
G01*
G37*
G36*
G01*
X115144000Y-88455000D02*
X115144000Y-88145000D01*
G75*
G02*
X115299000Y-87990000I155000J0D01*
G01*
X115724000Y-87990000D01*
G75*
G02*
X115879000Y-88145000I0J-155000D01*
G01*
X115879000Y-88455000D01*
G75*
G02*
X115724000Y-88610000I-155000J0D01*
G01*
X115299000Y-88610000D01*
G75*
G02*
X115144000Y-88455000I0J155000D01*
G01*
G37*
%TD*%
%TO.C,C6*%
G36*
G01*
X129011000Y-88455000D02*
X129011000Y-88145000D01*
G75*
G02*
X129166000Y-87990000I155000J0D01*
G01*
X129591000Y-87990000D01*
G75*
G02*
X129746000Y-88145000I0J-155000D01*
G01*
X129746000Y-88455000D01*
G75*
G02*
X129591000Y-88610000I-155000J0D01*
G01*
X129166000Y-88610000D01*
G75*
G02*
X129011000Y-88455000I0J155000D01*
G01*
G37*
G36*
G01*
X130146000Y-88455000D02*
X130146000Y-88145000D01*
G75*
G02*
X130301000Y-87990000I155000J0D01*
G01*
X130726000Y-87990000D01*
G75*
G02*
X130881000Y-88145000I0J-155000D01*
G01*
X130881000Y-88455000D01*
G75*
G02*
X130726000Y-88610000I-155000J0D01*
G01*
X130301000Y-88610000D01*
G75*
G02*
X130146000Y-88455000I0J155000D01*
G01*
G37*
%TD*%
%TO.C,C7*%
G36*
G01*
X123035000Y-109865000D02*
X123345000Y-109865000D01*
G75*
G02*
X123500000Y-110020000I0J-155000D01*
G01*
X123500000Y-110445000D01*
G75*
G02*
X123345000Y-110600000I-155000J0D01*
G01*
X123035000Y-110600000D01*
G75*
G02*
X122880000Y-110445000I0J155000D01*
G01*
X122880000Y-110020000D01*
G75*
G02*
X123035000Y-109865000I155000J0D01*
G01*
G37*
G36*
G01*
X123035000Y-111000000D02*
X123345000Y-111000000D01*
G75*
G02*
X123500000Y-111155000I0J-155000D01*
G01*
X123500000Y-111580000D01*
G75*
G02*
X123345000Y-111735000I-155000J0D01*
G01*
X123035000Y-111735000D01*
G75*
G02*
X122880000Y-111580000I0J155000D01*
G01*
X122880000Y-111155000D01*
G75*
G02*
X123035000Y-111000000I155000J0D01*
G01*
G37*
%TD*%
%TO.C,C8*%
G36*
G01*
X112748000Y-88500000D02*
X113058000Y-88500000D01*
G75*
G02*
X113213000Y-88655000I0J-155000D01*
G01*
X113213000Y-89080000D01*
G75*
G02*
X113058000Y-89235000I-155000J0D01*
G01*
X112748000Y-89235000D01*
G75*
G02*
X112593000Y-89080000I0J155000D01*
G01*
X112593000Y-88655000D01*
G75*
G02*
X112748000Y-88500000I155000J0D01*
G01*
G37*
G36*
G01*
X112748000Y-87365000D02*
X113058000Y-87365000D01*
G75*
G02*
X113213000Y-87520000I0J-155000D01*
G01*
X113213000Y-87945000D01*
G75*
G02*
X113058000Y-88100000I-155000J0D01*
G01*
X112748000Y-88100000D01*
G75*
G02*
X112593000Y-87945000I0J155000D01*
G01*
X112593000Y-87520000D01*
G75*
G02*
X112748000Y-87365000I155000J0D01*
G01*
G37*
%TD*%
%TO.C,C9*%
G36*
G01*
X127759000Y-87365000D02*
X128069000Y-87365000D01*
G75*
G02*
X128224000Y-87520000I0J-155000D01*
G01*
X128224000Y-87945000D01*
G75*
G02*
X128069000Y-88100000I-155000J0D01*
G01*
X127759000Y-88100000D01*
G75*
G02*
X127604000Y-87945000I0J155000D01*
G01*
X127604000Y-87520000D01*
G75*
G02*
X127759000Y-87365000I155000J0D01*
G01*
G37*
G36*
G01*
X127759000Y-88500000D02*
X128069000Y-88500000D01*
G75*
G02*
X128224000Y-88655000I0J-155000D01*
G01*
X128224000Y-89080000D01*
G75*
G02*
X128069000Y-89235000I-155000J0D01*
G01*
X127759000Y-89235000D01*
G75*
G02*
X127604000Y-89080000I0J155000D01*
G01*
X127604000Y-88655000D01*
G75*
G02*
X127759000Y-88500000I155000J0D01*
G01*
G37*
%TD*%
%TO.C,C10*%
G36*
G01*
X126750000Y-119849999D02*
X126750000Y-121150001D01*
G75*
G02*
X126500001Y-121400000I-249999J0D01*
G01*
X125849999Y-121400000D01*
G75*
G02*
X125600000Y-121150001I0J249999D01*
G01*
X125600000Y-119849999D01*
G75*
G02*
X125849999Y-119600000I249999J0D01*
G01*
X126500001Y-119600000D01*
G75*
G02*
X126750000Y-119849999I0J-249999D01*
G01*
G37*
G36*
G01*
X123800000Y-119849999D02*
X123800000Y-121150001D01*
G75*
G02*
X123550001Y-121400000I-249999J0D01*
G01*
X122899999Y-121400000D01*
G75*
G02*
X122650000Y-121150001I0J249999D01*
G01*
X122650000Y-119849999D01*
G75*
G02*
X122899999Y-119600000I249999J0D01*
G01*
X123550001Y-119600000D01*
G75*
G02*
X123800000Y-119849999I0J-249999D01*
G01*
G37*
%TD*%
%TO.C,C11*%
G36*
G01*
X113500000Y-97349999D02*
X113500000Y-98650001D01*
G75*
G02*
X113250001Y-98900000I-249999J0D01*
G01*
X112599999Y-98900000D01*
G75*
G02*
X112350000Y-98650001I0J249999D01*
G01*
X112350000Y-97349999D01*
G75*
G02*
X112599999Y-97100000I249999J0D01*
G01*
X113250001Y-97100000D01*
G75*
G02*
X113500000Y-97349999I0J-249999D01*
G01*
G37*
G36*
G01*
X116450000Y-97349999D02*
X116450000Y-98650001D01*
G75*
G02*
X116200001Y-98900000I-249999J0D01*
G01*
X115549999Y-98900000D01*
G75*
G02*
X115300000Y-98650001I0J249999D01*
G01*
X115300000Y-97349999D01*
G75*
G02*
X115549999Y-97100000I249999J0D01*
G01*
X116200001Y-97100000D01*
G75*
G02*
X116450000Y-97349999I0J-249999D01*
G01*
G37*
%TD*%
%TO.C,C12*%
G36*
G01*
X128500000Y-97349999D02*
X128500000Y-98650001D01*
G75*
G02*
X128250001Y-98900000I-249999J0D01*
G01*
X127599999Y-98900000D01*
G75*
G02*
X127350000Y-98650001I0J249999D01*
G01*
X127350000Y-97349999D01*
G75*
G02*
X127599999Y-97100000I249999J0D01*
G01*
X128250001Y-97100000D01*
G75*
G02*
X128500000Y-97349999I0J-249999D01*
G01*
G37*
G36*
G01*
X131450000Y-97349999D02*
X131450000Y-98650001D01*
G75*
G02*
X131200001Y-98900000I-249999J0D01*
G01*
X130549999Y-98900000D01*
G75*
G02*
X130300000Y-98650001I0J249999D01*
G01*
X130300000Y-97349999D01*
G75*
G02*
X130549999Y-97100000I249999J0D01*
G01*
X131200001Y-97100000D01*
G75*
G02*
X131450000Y-97349999I0J-249999D01*
G01*
G37*
%TD*%
%TO.C,C13*%
G36*
G01*
X143997000Y-88455000D02*
X143997000Y-88145000D01*
G75*
G02*
X144152000Y-87990000I155000J0D01*
G01*
X144577000Y-87990000D01*
G75*
G02*
X144732000Y-88145000I0J-155000D01*
G01*
X144732000Y-88455000D01*
G75*
G02*
X144577000Y-88610000I-155000J0D01*
G01*
X144152000Y-88610000D01*
G75*
G02*
X143997000Y-88455000I0J155000D01*
G01*
G37*
G36*
G01*
X145132000Y-88455000D02*
X145132000Y-88145000D01*
G75*
G02*
X145287000Y-87990000I155000J0D01*
G01*
X145712000Y-87990000D01*
G75*
G02*
X145867000Y-88145000I0J-155000D01*
G01*
X145867000Y-88455000D01*
G75*
G02*
X145712000Y-88610000I-155000J0D01*
G01*
X145287000Y-88610000D01*
G75*
G02*
X145132000Y-88455000I0J155000D01*
G01*
G37*
%TD*%
%TO.C,C14*%
G36*
G01*
X159009000Y-88455000D02*
X159009000Y-88145000D01*
G75*
G02*
X159164000Y-87990000I155000J0D01*
G01*
X159589000Y-87990000D01*
G75*
G02*
X159744000Y-88145000I0J-155000D01*
G01*
X159744000Y-88455000D01*
G75*
G02*
X159589000Y-88610000I-155000J0D01*
G01*
X159164000Y-88610000D01*
G75*
G02*
X159009000Y-88455000I0J155000D01*
G01*
G37*
G36*
G01*
X160144000Y-88455000D02*
X160144000Y-88145000D01*
G75*
G02*
X160299000Y-87990000I155000J0D01*
G01*
X160724000Y-87990000D01*
G75*
G02*
X160879000Y-88145000I0J-155000D01*
G01*
X160879000Y-88455000D01*
G75*
G02*
X160724000Y-88610000I-155000J0D01*
G01*
X160299000Y-88610000D01*
G75*
G02*
X160144000Y-88455000I0J155000D01*
G01*
G37*
%TD*%
%TO.C,C15*%
G36*
G01*
X142745000Y-88500000D02*
X143055000Y-88500000D01*
G75*
G02*
X143210000Y-88655000I0J-155000D01*
G01*
X143210000Y-89080000D01*
G75*
G02*
X143055000Y-89235000I-155000J0D01*
G01*
X142745000Y-89235000D01*
G75*
G02*
X142590000Y-89080000I0J155000D01*
G01*
X142590000Y-88655000D01*
G75*
G02*
X142745000Y-88500000I155000J0D01*
G01*
G37*
G36*
G01*
X142745000Y-87365000D02*
X143055000Y-87365000D01*
G75*
G02*
X143210000Y-87520000I0J-155000D01*
G01*
X143210000Y-87945000D01*
G75*
G02*
X143055000Y-88100000I-155000J0D01*
G01*
X142745000Y-88100000D01*
G75*
G02*
X142590000Y-87945000I0J155000D01*
G01*
X142590000Y-87520000D01*
G75*
G02*
X142745000Y-87365000I155000J0D01*
G01*
G37*
%TD*%
%TO.C,C16*%
G36*
G01*
X157731000Y-88500000D02*
X158041000Y-88500000D01*
G75*
G02*
X158196000Y-88655000I0J-155000D01*
G01*
X158196000Y-89080000D01*
G75*
G02*
X158041000Y-89235000I-155000J0D01*
G01*
X157731000Y-89235000D01*
G75*
G02*
X157576000Y-89080000I0J155000D01*
G01*
X157576000Y-88655000D01*
G75*
G02*
X157731000Y-88500000I155000J0D01*
G01*
G37*
G36*
G01*
X157731000Y-87365000D02*
X158041000Y-87365000D01*
G75*
G02*
X158196000Y-87520000I0J-155000D01*
G01*
X158196000Y-87945000D01*
G75*
G02*
X158041000Y-88100000I-155000J0D01*
G01*
X157731000Y-88100000D01*
G75*
G02*
X157576000Y-87945000I0J155000D01*
G01*
X157576000Y-87520000D01*
G75*
G02*
X157731000Y-87365000I155000J0D01*
G01*
G37*
%TD*%
%TO.C,C17*%
G36*
G01*
X146450000Y-97349999D02*
X146450000Y-98650001D01*
G75*
G02*
X146200001Y-98900000I-249999J0D01*
G01*
X145549999Y-98900000D01*
G75*
G02*
X145300000Y-98650001I0J249999D01*
G01*
X145300000Y-97349999D01*
G75*
G02*
X145549999Y-97100000I249999J0D01*
G01*
X146200001Y-97100000D01*
G75*
G02*
X146450000Y-97349999I0J-249999D01*
G01*
G37*
G36*
G01*
X143500000Y-97349999D02*
X143500000Y-98650001D01*
G75*
G02*
X143250001Y-98900000I-249999J0D01*
G01*
X142599999Y-98900000D01*
G75*
G02*
X142350000Y-98650001I0J249999D01*
G01*
X142350000Y-97349999D01*
G75*
G02*
X142599999Y-97100000I249999J0D01*
G01*
X143250001Y-97100000D01*
G75*
G02*
X143500000Y-97349999I0J-249999D01*
G01*
G37*
%TD*%
%TO.C,C18*%
G36*
G01*
X158500000Y-97349999D02*
X158500000Y-98650001D01*
G75*
G02*
X158250001Y-98900000I-249999J0D01*
G01*
X157599999Y-98900000D01*
G75*
G02*
X157350000Y-98650001I0J249999D01*
G01*
X157350000Y-97349999D01*
G75*
G02*
X157599999Y-97100000I249999J0D01*
G01*
X158250001Y-97100000D01*
G75*
G02*
X158500000Y-97349999I0J-249999D01*
G01*
G37*
G36*
G01*
X161450000Y-97349999D02*
X161450000Y-98650001D01*
G75*
G02*
X161200001Y-98900000I-249999J0D01*
G01*
X160549999Y-98900000D01*
G75*
G02*
X160300000Y-98650001I0J249999D01*
G01*
X160300000Y-97349999D01*
G75*
G02*
X160549999Y-97100000I249999J0D01*
G01*
X161200001Y-97100000D01*
G75*
G02*
X161450000Y-97349999I0J-249999D01*
G01*
G37*
%TD*%
%TO.C,C19*%
G36*
G01*
X136835000Y-110955000D02*
X136835000Y-110645000D01*
G75*
G02*
X136990000Y-110490000I155000J0D01*
G01*
X137415000Y-110490000D01*
G75*
G02*
X137570000Y-110645000I0J-155000D01*
G01*
X137570000Y-110955000D01*
G75*
G02*
X137415000Y-111110000I-155000J0D01*
G01*
X136990000Y-111110000D01*
G75*
G02*
X136835000Y-110955000I0J155000D01*
G01*
G37*
G36*
G01*
X137970000Y-110955000D02*
X137970000Y-110645000D01*
G75*
G02*
X138125000Y-110490000I155000J0D01*
G01*
X138550000Y-110490000D01*
G75*
G02*
X138705000Y-110645000I0J-155000D01*
G01*
X138705000Y-110955000D01*
G75*
G02*
X138550000Y-111110000I-155000J0D01*
G01*
X138125000Y-111110000D01*
G75*
G02*
X137970000Y-110955000I0J155000D01*
G01*
G37*
%TD*%
%TO.C,C20*%
G36*
G01*
X156799000Y-110955000D02*
X156799000Y-110645000D01*
G75*
G02*
X156954000Y-110490000I155000J0D01*
G01*
X157379000Y-110490000D01*
G75*
G02*
X157534000Y-110645000I0J-155000D01*
G01*
X157534000Y-110955000D01*
G75*
G02*
X157379000Y-111110000I-155000J0D01*
G01*
X156954000Y-111110000D01*
G75*
G02*
X156799000Y-110955000I0J155000D01*
G01*
G37*
G36*
G01*
X157934000Y-110955000D02*
X157934000Y-110645000D01*
G75*
G02*
X158089000Y-110490000I155000J0D01*
G01*
X158514000Y-110490000D01*
G75*
G02*
X158669000Y-110645000I0J-155000D01*
G01*
X158669000Y-110955000D01*
G75*
G02*
X158514000Y-111110000I-155000J0D01*
G01*
X158089000Y-111110000D01*
G75*
G02*
X157934000Y-110955000I0J155000D01*
G01*
G37*
%TD*%
%TO.C,C21*%
G36*
G01*
X135557000Y-111000000D02*
X135867000Y-111000000D01*
G75*
G02*
X136022000Y-111155000I0J-155000D01*
G01*
X136022000Y-111580000D01*
G75*
G02*
X135867000Y-111735000I-155000J0D01*
G01*
X135557000Y-111735000D01*
G75*
G02*
X135402000Y-111580000I0J155000D01*
G01*
X135402000Y-111155000D01*
G75*
G02*
X135557000Y-111000000I155000J0D01*
G01*
G37*
G36*
G01*
X135557000Y-109865000D02*
X135867000Y-109865000D01*
G75*
G02*
X136022000Y-110020000I0J-155000D01*
G01*
X136022000Y-110445000D01*
G75*
G02*
X135867000Y-110600000I-155000J0D01*
G01*
X135557000Y-110600000D01*
G75*
G02*
X135402000Y-110445000I0J155000D01*
G01*
X135402000Y-110020000D01*
G75*
G02*
X135557000Y-109865000I155000J0D01*
G01*
G37*
%TD*%
%TO.C,C22*%
G36*
G01*
X155547000Y-111000000D02*
X155857000Y-111000000D01*
G75*
G02*
X156012000Y-111155000I0J-155000D01*
G01*
X156012000Y-111580000D01*
G75*
G02*
X155857000Y-111735000I-155000J0D01*
G01*
X155547000Y-111735000D01*
G75*
G02*
X155392000Y-111580000I0J155000D01*
G01*
X155392000Y-111155000D01*
G75*
G02*
X155547000Y-111000000I155000J0D01*
G01*
G37*
G36*
G01*
X155547000Y-109865000D02*
X155857000Y-109865000D01*
G75*
G02*
X156012000Y-110020000I0J-155000D01*
G01*
X156012000Y-110445000D01*
G75*
G02*
X155857000Y-110600000I-155000J0D01*
G01*
X155547000Y-110600000D01*
G75*
G02*
X155392000Y-110445000I0J155000D01*
G01*
X155392000Y-110020000D01*
G75*
G02*
X155547000Y-109865000I155000J0D01*
G01*
G37*
%TD*%
%TO.C,C23*%
G36*
G01*
X136300000Y-119849999D02*
X136300000Y-121150001D01*
G75*
G02*
X136050001Y-121400000I-249999J0D01*
G01*
X135399999Y-121400000D01*
G75*
G02*
X135150000Y-121150001I0J249999D01*
G01*
X135150000Y-119849999D01*
G75*
G02*
X135399999Y-119600000I249999J0D01*
G01*
X136050001Y-119600000D01*
G75*
G02*
X136300000Y-119849999I0J-249999D01*
G01*
G37*
G36*
G01*
X139250000Y-119849999D02*
X139250000Y-121150001D01*
G75*
G02*
X139000001Y-121400000I-249999J0D01*
G01*
X138349999Y-121400000D01*
G75*
G02*
X138100000Y-121150001I0J249999D01*
G01*
X138100000Y-119849999D01*
G75*
G02*
X138349999Y-119600000I249999J0D01*
G01*
X139000001Y-119600000D01*
G75*
G02*
X139250000Y-119849999I0J-249999D01*
G01*
G37*
%TD*%
%TO.C,C24*%
G36*
G01*
X159073000Y-119849999D02*
X159073000Y-121150001D01*
G75*
G02*
X158823001Y-121400000I-249999J0D01*
G01*
X158172999Y-121400000D01*
G75*
G02*
X157923000Y-121150001I0J249999D01*
G01*
X157923000Y-119849999D01*
G75*
G02*
X158172999Y-119600000I249999J0D01*
G01*
X158823001Y-119600000D01*
G75*
G02*
X159073000Y-119849999I0J-249999D01*
G01*
G37*
G36*
G01*
X156123000Y-119849999D02*
X156123000Y-121150001D01*
G75*
G02*
X155873001Y-121400000I-249999J0D01*
G01*
X155222999Y-121400000D01*
G75*
G02*
X154973000Y-121150001I0J249999D01*
G01*
X154973000Y-119849999D01*
G75*
G02*
X155222999Y-119600000I249999J0D01*
G01*
X155873001Y-119600000D01*
G75*
G02*
X156123000Y-119849999I0J-249999D01*
G01*
G37*
%TD*%
D16*
%TO.C,J1*%
X110134000Y-78435200D03*
D17*
X110134000Y-75895200D03*
X112674000Y-78435200D03*
X112674000Y-75895200D03*
X115214000Y-78435200D03*
X115214000Y-75895200D03*
X117754000Y-78435200D03*
X117754000Y-75895200D03*
X120294000Y-78435200D03*
X120294000Y-75895200D03*
X122834000Y-78435200D03*
X122834000Y-75895200D03*
X125374000Y-78435200D03*
X125374000Y-75895200D03*
X127914000Y-78435200D03*
X127914000Y-75895200D03*
X130454000Y-78435200D03*
X130454000Y-75895200D03*
X132994000Y-78435200D03*
X132994000Y-75895200D03*
X135534000Y-78435200D03*
X135534000Y-75895200D03*
X138074000Y-78435200D03*
X138074000Y-75895200D03*
X140614000Y-78435200D03*
X140614000Y-75895200D03*
X143154000Y-78435200D03*
X143154000Y-75895200D03*
X145694000Y-78435200D03*
X145694000Y-75895200D03*
X148234000Y-78435200D03*
X148234000Y-75895200D03*
X150774000Y-78435200D03*
X150774000Y-75895200D03*
X153314000Y-78435200D03*
X153314000Y-75895200D03*
X155854000Y-78435200D03*
X155854000Y-75895200D03*
X158394000Y-78435200D03*
X158394000Y-75895200D03*
%TD*%
D12*
%TO.C,J2*%
X109245000Y-84251800D03*
X107975000Y-86791800D03*
X106705000Y-84251800D03*
X105435000Y-86791800D03*
D13*
X104035000Y-84991800D03*
%TD*%
D12*
%TO.C,J3*%
X110295000Y-127270000D03*
X111565000Y-124730000D03*
X112835000Y-127270000D03*
X114105000Y-124730000D03*
D13*
X115505000Y-126530000D03*
%TD*%
%TO.C,J5*%
X132705000Y-104030000D03*
D12*
X131305000Y-102230000D03*
X130035000Y-104770000D03*
X128765000Y-102230000D03*
X127495000Y-104770000D03*
%TD*%
D13*
%TO.C,J6*%
X128005000Y-126530000D03*
D12*
X126605000Y-124730000D03*
X125335000Y-127270000D03*
X124065000Y-124730000D03*
X122795000Y-127270000D03*
%TD*%
D13*
%TO.C,J7*%
X147705000Y-104030000D03*
D12*
X146305000Y-102230000D03*
X145035000Y-104770000D03*
X143765000Y-102230000D03*
X142495000Y-104770000D03*
%TD*%
%TO.C,J8*%
X157495000Y-104770000D03*
X158765000Y-102230000D03*
X160035000Y-104770000D03*
X161305000Y-102230000D03*
D13*
X162705000Y-104030000D03*
%TD*%
D12*
%TO.C,J9*%
X135295000Y-127270000D03*
X136565000Y-124730000D03*
X137835000Y-127270000D03*
X139105000Y-124730000D03*
D13*
X140505000Y-126530000D03*
%TD*%
%TO.C,J10*%
X157458000Y-126530000D03*
D12*
X156058000Y-124730000D03*
X154788000Y-127270000D03*
X153518000Y-124730000D03*
X152248000Y-127270000D03*
%TD*%
%TO.C,R1*%
G36*
G01*
X107725000Y-115925000D02*
X108275000Y-115925000D01*
G75*
G02*
X108475000Y-116125000I0J-200000D01*
G01*
X108475000Y-116525000D01*
G75*
G02*
X108275000Y-116725000I-200000J0D01*
G01*
X107725000Y-116725000D01*
G75*
G02*
X107525000Y-116525000I0J200000D01*
G01*
X107525000Y-116125000D01*
G75*
G02*
X107725000Y-115925000I200000J0D01*
G01*
G37*
G36*
G01*
X107725000Y-114275000D02*
X108275000Y-114275000D01*
G75*
G02*
X108475000Y-114475000I0J-200000D01*
G01*
X108475000Y-114875000D01*
G75*
G02*
X108275000Y-115075000I-200000J0D01*
G01*
X107725000Y-115075000D01*
G75*
G02*
X107525000Y-114875000I0J200000D01*
G01*
X107525000Y-114475000D01*
G75*
G02*
X107725000Y-114275000I200000J0D01*
G01*
G37*
%TD*%
%TO.C,R2*%
G36*
G01*
X119725000Y-115925000D02*
X120275000Y-115925000D01*
G75*
G02*
X120475000Y-116125000I0J-200000D01*
G01*
X120475000Y-116525000D01*
G75*
G02*
X120275000Y-116725000I-200000J0D01*
G01*
X119725000Y-116725000D01*
G75*
G02*
X119525000Y-116525000I0J200000D01*
G01*
X119525000Y-116125000D01*
G75*
G02*
X119725000Y-115925000I200000J0D01*
G01*
G37*
G36*
G01*
X119725000Y-114275000D02*
X120275000Y-114275000D01*
G75*
G02*
X120475000Y-114475000I0J-200000D01*
G01*
X120475000Y-114875000D01*
G75*
G02*
X120275000Y-115075000I-200000J0D01*
G01*
X119725000Y-115075000D01*
G75*
G02*
X119525000Y-114875000I0J200000D01*
G01*
X119525000Y-114475000D01*
G75*
G02*
X119725000Y-114275000I200000J0D01*
G01*
G37*
%TD*%
%TO.C,R3*%
G36*
G01*
X109725000Y-91775000D02*
X110275000Y-91775000D01*
G75*
G02*
X110475000Y-91975000I0J-200000D01*
G01*
X110475000Y-92375000D01*
G75*
G02*
X110275000Y-92575000I-200000J0D01*
G01*
X109725000Y-92575000D01*
G75*
G02*
X109525000Y-92375000I0J200000D01*
G01*
X109525000Y-91975000D01*
G75*
G02*
X109725000Y-91775000I200000J0D01*
G01*
G37*
G36*
G01*
X109725000Y-93425000D02*
X110275000Y-93425000D01*
G75*
G02*
X110475000Y-93625000I0J-200000D01*
G01*
X110475000Y-94025000D01*
G75*
G02*
X110275000Y-94225000I-200000J0D01*
G01*
X109725000Y-94225000D01*
G75*
G02*
X109525000Y-94025000I0J200000D01*
G01*
X109525000Y-93625000D01*
G75*
G02*
X109725000Y-93425000I200000J0D01*
G01*
G37*
%TD*%
%TO.C,R4*%
G36*
G01*
X124725000Y-91775000D02*
X125275000Y-91775000D01*
G75*
G02*
X125475000Y-91975000I0J-200000D01*
G01*
X125475000Y-92375000D01*
G75*
G02*
X125275000Y-92575000I-200000J0D01*
G01*
X124725000Y-92575000D01*
G75*
G02*
X124525000Y-92375000I0J200000D01*
G01*
X124525000Y-91975000D01*
G75*
G02*
X124725000Y-91775000I200000J0D01*
G01*
G37*
G36*
G01*
X124725000Y-93425000D02*
X125275000Y-93425000D01*
G75*
G02*
X125475000Y-93625000I0J-200000D01*
G01*
X125475000Y-94025000D01*
G75*
G02*
X125275000Y-94225000I-200000J0D01*
G01*
X124725000Y-94225000D01*
G75*
G02*
X124525000Y-94025000I0J200000D01*
G01*
X124525000Y-93625000D01*
G75*
G02*
X124725000Y-93425000I200000J0D01*
G01*
G37*
%TD*%
%TO.C,R5*%
G36*
G01*
X139725000Y-91775000D02*
X140275000Y-91775000D01*
G75*
G02*
X140475000Y-91975000I0J-200000D01*
G01*
X140475000Y-92375000D01*
G75*
G02*
X140275000Y-92575000I-200000J0D01*
G01*
X139725000Y-92575000D01*
G75*
G02*
X139525000Y-92375000I0J200000D01*
G01*
X139525000Y-91975000D01*
G75*
G02*
X139725000Y-91775000I200000J0D01*
G01*
G37*
G36*
G01*
X139725000Y-93425000D02*
X140275000Y-93425000D01*
G75*
G02*
X140475000Y-93625000I0J-200000D01*
G01*
X140475000Y-94025000D01*
G75*
G02*
X140275000Y-94225000I-200000J0D01*
G01*
X139725000Y-94225000D01*
G75*
G02*
X139525000Y-94025000I0J200000D01*
G01*
X139525000Y-93625000D01*
G75*
G02*
X139725000Y-93425000I200000J0D01*
G01*
G37*
%TD*%
%TO.C,R6*%
G36*
G01*
X154725000Y-91775000D02*
X155275000Y-91775000D01*
G75*
G02*
X155475000Y-91975000I0J-200000D01*
G01*
X155475000Y-92375000D01*
G75*
G02*
X155275000Y-92575000I-200000J0D01*
G01*
X154725000Y-92575000D01*
G75*
G02*
X154525000Y-92375000I0J200000D01*
G01*
X154525000Y-91975000D01*
G75*
G02*
X154725000Y-91775000I200000J0D01*
G01*
G37*
G36*
G01*
X154725000Y-93425000D02*
X155275000Y-93425000D01*
G75*
G02*
X155475000Y-93625000I0J-200000D01*
G01*
X155475000Y-94025000D01*
G75*
G02*
X155275000Y-94225000I-200000J0D01*
G01*
X154725000Y-94225000D01*
G75*
G02*
X154525000Y-94025000I0J200000D01*
G01*
X154525000Y-93625000D01*
G75*
G02*
X154725000Y-93425000I200000J0D01*
G01*
G37*
%TD*%
%TO.C,R7*%
G36*
G01*
X132225000Y-115925000D02*
X132775000Y-115925000D01*
G75*
G02*
X132975000Y-116125000I0J-200000D01*
G01*
X132975000Y-116525000D01*
G75*
G02*
X132775000Y-116725000I-200000J0D01*
G01*
X132225000Y-116725000D01*
G75*
G02*
X132025000Y-116525000I0J200000D01*
G01*
X132025000Y-116125000D01*
G75*
G02*
X132225000Y-115925000I200000J0D01*
G01*
G37*
G36*
G01*
X132225000Y-114275000D02*
X132775000Y-114275000D01*
G75*
G02*
X132975000Y-114475000I0J-200000D01*
G01*
X132975000Y-114875000D01*
G75*
G02*
X132775000Y-115075000I-200000J0D01*
G01*
X132225000Y-115075000D01*
G75*
G02*
X132025000Y-114875000I0J200000D01*
G01*
X132025000Y-114475000D01*
G75*
G02*
X132225000Y-114275000I200000J0D01*
G01*
G37*
%TD*%
%TO.C,R8*%
G36*
G01*
X152125000Y-115925000D02*
X152675000Y-115925000D01*
G75*
G02*
X152875000Y-116125000I0J-200000D01*
G01*
X152875000Y-116525000D01*
G75*
G02*
X152675000Y-116725000I-200000J0D01*
G01*
X152125000Y-116725000D01*
G75*
G02*
X151925000Y-116525000I0J200000D01*
G01*
X151925000Y-116125000D01*
G75*
G02*
X152125000Y-115925000I200000J0D01*
G01*
G37*
G36*
G01*
X152125000Y-114275000D02*
X152675000Y-114275000D01*
G75*
G02*
X152875000Y-114475000I0J-200000D01*
G01*
X152875000Y-114875000D01*
G75*
G02*
X152675000Y-115075000I-200000J0D01*
G01*
X152125000Y-115075000D01*
G75*
G02*
X151925000Y-114875000I0J200000D01*
G01*
X151925000Y-114475000D01*
G75*
G02*
X152125000Y-114275000I200000J0D01*
G01*
G37*
%TD*%
%TO.C,TH1*%
G36*
G01*
X105949000Y-89387000D02*
X105949000Y-89937000D01*
G75*
G02*
X105749000Y-90137000I-200000J0D01*
G01*
X105349000Y-90137000D01*
G75*
G02*
X105149000Y-89937000I0J200000D01*
G01*
X105149000Y-89387000D01*
G75*
G02*
X105349000Y-89187000I200000J0D01*
G01*
X105749000Y-89187000D01*
G75*
G02*
X105949000Y-89387000I0J-200000D01*
G01*
G37*
G36*
G01*
X104299000Y-89387000D02*
X104299000Y-89937000D01*
G75*
G02*
X104099000Y-90137000I-200000J0D01*
G01*
X103699000Y-90137000D01*
G75*
G02*
X103499000Y-89937000I0J200000D01*
G01*
X103499000Y-89387000D01*
G75*
G02*
X103699000Y-89187000I200000J0D01*
G01*
X104099000Y-89187000D01*
G75*
G02*
X104299000Y-89387000I0J-200000D01*
G01*
G37*
%TD*%
D18*
%TO.C,TP1*%
X123266000Y-83337400D03*
%TD*%
%TO.C,TP2*%
X148107000Y-83337400D03*
%TD*%
%TO.C,TP3*%
X129769000Y-83261200D03*
%TD*%
%TO.C,TP4*%
X142113000Y-83489800D03*
%TD*%
%TO.C,TP5*%
X135738000Y-83235800D03*
%TD*%
%TO.C,TP6*%
X118700000Y-97500000D03*
%TD*%
%TO.C,TP7*%
X118700000Y-89000000D03*
%TD*%
%TO.C,TP8*%
X148700000Y-97500000D03*
%TD*%
%TO.C,TP9*%
X148700000Y-89000000D03*
%TD*%
%TO.C,TP10*%
X141500000Y-120000000D03*
%TD*%
%TO.C,TP11*%
X141500000Y-111500000D03*
%TD*%
%TO.C,TP12*%
X133700000Y-97500000D03*
%TD*%
%TO.C,TP13*%
X133700000Y-89000000D03*
%TD*%
%TO.C,TP14*%
X163700000Y-97500000D03*
%TD*%
%TO.C,TP15*%
X163700000Y-89000000D03*
%TD*%
%TO.C,TP16*%
X161500000Y-120000000D03*
%TD*%
%TO.C,TP17*%
X161500000Y-111500000D03*
%TD*%
%TO.C,TP18*%
X116500000Y-120000000D03*
%TD*%
%TO.C,TP19*%
X116814600Y-111506000D03*
%TD*%
%TO.C,TP20*%
X129000000Y-120000000D03*
%TD*%
%TO.C,TP21*%
X129000000Y-111500000D03*
%TD*%
%TO.C,U2*%
G36*
G01*
X121650000Y-114275000D02*
X121650000Y-114125000D01*
G75*
G02*
X121725000Y-114050000I75000J0D01*
G01*
X122375000Y-114050000D01*
G75*
G02*
X122450000Y-114125000I0J-75000D01*
G01*
X122450000Y-114275000D01*
G75*
G02*
X122375000Y-114350000I-75000J0D01*
G01*
X121725000Y-114350000D01*
G75*
G02*
X121650000Y-114275000I0J75000D01*
G01*
G37*
G36*
G01*
X121650000Y-114925000D02*
X121650000Y-114775000D01*
G75*
G02*
X121725000Y-114700000I75000J0D01*
G01*
X122375000Y-114700000D01*
G75*
G02*
X122450000Y-114775000I0J-75000D01*
G01*
X122450000Y-114925000D01*
G75*
G02*
X122375000Y-115000000I-75000J0D01*
G01*
X121725000Y-115000000D01*
G75*
G02*
X121650000Y-114925000I0J75000D01*
G01*
G37*
G36*
G01*
X121650000Y-115575000D02*
X121650000Y-115425000D01*
G75*
G02*
X121725000Y-115350000I75000J0D01*
G01*
X122375000Y-115350000D01*
G75*
G02*
X122450000Y-115425000I0J-75000D01*
G01*
X122450000Y-115575000D01*
G75*
G02*
X122375000Y-115650000I-75000J0D01*
G01*
X121725000Y-115650000D01*
G75*
G02*
X121650000Y-115575000I0J75000D01*
G01*
G37*
G36*
G01*
X121650000Y-116225000D02*
X121650000Y-116075000D01*
G75*
G02*
X121725000Y-116000000I75000J0D01*
G01*
X122375000Y-116000000D01*
G75*
G02*
X122450000Y-116075000I0J-75000D01*
G01*
X122450000Y-116225000D01*
G75*
G02*
X122375000Y-116300000I-75000J0D01*
G01*
X121725000Y-116300000D01*
G75*
G02*
X121650000Y-116225000I0J75000D01*
G01*
G37*
G36*
G01*
X121650000Y-116875000D02*
X121650000Y-116725000D01*
G75*
G02*
X121725000Y-116650000I75000J0D01*
G01*
X122375000Y-116650000D01*
G75*
G02*
X122450000Y-116725000I0J-75000D01*
G01*
X122450000Y-116875000D01*
G75*
G02*
X122375000Y-116950000I-75000J0D01*
G01*
X121725000Y-116950000D01*
G75*
G02*
X121650000Y-116875000I0J75000D01*
G01*
G37*
G36*
G01*
X123050000Y-118275000D02*
X123050000Y-117625000D01*
G75*
G02*
X123125000Y-117550000I75000J0D01*
G01*
X123275000Y-117550000D01*
G75*
G02*
X123350000Y-117625000I0J-75000D01*
G01*
X123350000Y-118275000D01*
G75*
G02*
X123275000Y-118350000I-75000J0D01*
G01*
X123125000Y-118350000D01*
G75*
G02*
X123050000Y-118275000I0J75000D01*
G01*
G37*
G36*
G01*
X123700000Y-118275000D02*
X123700000Y-117625000D01*
G75*
G02*
X123775000Y-117550000I75000J0D01*
G01*
X123925000Y-117550000D01*
G75*
G02*
X124000000Y-117625000I0J-75000D01*
G01*
X124000000Y-118275000D01*
G75*
G02*
X123925000Y-118350000I-75000J0D01*
G01*
X123775000Y-118350000D01*
G75*
G02*
X123700000Y-118275000I0J75000D01*
G01*
G37*
G36*
G01*
X124350000Y-118275000D02*
X124350000Y-117625000D01*
G75*
G02*
X124425000Y-117550000I75000J0D01*
G01*
X124575000Y-117550000D01*
G75*
G02*
X124650000Y-117625000I0J-75000D01*
G01*
X124650000Y-118275000D01*
G75*
G02*
X124575000Y-118350000I-75000J0D01*
G01*
X124425000Y-118350000D01*
G75*
G02*
X124350000Y-118275000I0J75000D01*
G01*
G37*
G36*
G01*
X125000000Y-118275000D02*
X125000000Y-117625000D01*
G75*
G02*
X125075000Y-117550000I75000J0D01*
G01*
X125225000Y-117550000D01*
G75*
G02*
X125300000Y-117625000I0J-75000D01*
G01*
X125300000Y-118275000D01*
G75*
G02*
X125225000Y-118350000I-75000J0D01*
G01*
X125075000Y-118350000D01*
G75*
G02*
X125000000Y-118275000I0J75000D01*
G01*
G37*
G36*
G01*
X125650000Y-118275000D02*
X125650000Y-117625000D01*
G75*
G02*
X125725000Y-117550000I75000J0D01*
G01*
X125875000Y-117550000D01*
G75*
G02*
X125950000Y-117625000I0J-75000D01*
G01*
X125950000Y-118275000D01*
G75*
G02*
X125875000Y-118350000I-75000J0D01*
G01*
X125725000Y-118350000D01*
G75*
G02*
X125650000Y-118275000I0J75000D01*
G01*
G37*
G36*
G01*
X126550000Y-116875000D02*
X126550000Y-116725000D01*
G75*
G02*
X126625000Y-116650000I75000J0D01*
G01*
X127275000Y-116650000D01*
G75*
G02*
X127350000Y-116725000I0J-75000D01*
G01*
X127350000Y-116875000D01*
G75*
G02*
X127275000Y-116950000I-75000J0D01*
G01*
X126625000Y-116950000D01*
G75*
G02*
X126550000Y-116875000I0J75000D01*
G01*
G37*
G36*
G01*
X126550000Y-116225000D02*
X126550000Y-116075000D01*
G75*
G02*
X126625000Y-116000000I75000J0D01*
G01*
X127275000Y-116000000D01*
G75*
G02*
X127350000Y-116075000I0J-75000D01*
G01*
X127350000Y-116225000D01*
G75*
G02*
X127275000Y-116300000I-75000J0D01*
G01*
X126625000Y-116300000D01*
G75*
G02*
X126550000Y-116225000I0J75000D01*
G01*
G37*
G36*
G01*
X126550000Y-115575000D02*
X126550000Y-115425000D01*
G75*
G02*
X126625000Y-115350000I75000J0D01*
G01*
X127275000Y-115350000D01*
G75*
G02*
X127350000Y-115425000I0J-75000D01*
G01*
X127350000Y-115575000D01*
G75*
G02*
X127275000Y-115650000I-75000J0D01*
G01*
X126625000Y-115650000D01*
G75*
G02*
X126550000Y-115575000I0J75000D01*
G01*
G37*
G36*
G01*
X126550000Y-114925000D02*
X126550000Y-114775000D01*
G75*
G02*
X126625000Y-114700000I75000J0D01*
G01*
X127275000Y-114700000D01*
G75*
G02*
X127350000Y-114775000I0J-75000D01*
G01*
X127350000Y-114925000D01*
G75*
G02*
X127275000Y-115000000I-75000J0D01*
G01*
X126625000Y-115000000D01*
G75*
G02*
X126550000Y-114925000I0J75000D01*
G01*
G37*
G36*
G01*
X126550000Y-114275000D02*
X126550000Y-114125000D01*
G75*
G02*
X126625000Y-114050000I75000J0D01*
G01*
X127275000Y-114050000D01*
G75*
G02*
X127350000Y-114125000I0J-75000D01*
G01*
X127350000Y-114275000D01*
G75*
G02*
X127275000Y-114350000I-75000J0D01*
G01*
X126625000Y-114350000D01*
G75*
G02*
X126550000Y-114275000I0J75000D01*
G01*
G37*
G36*
G01*
X125650000Y-113375000D02*
X125650000Y-112725000D01*
G75*
G02*
X125725000Y-112650000I75000J0D01*
G01*
X125875000Y-112650000D01*
G75*
G02*
X125950000Y-112725000I0J-75000D01*
G01*
X125950000Y-113375000D01*
G75*
G02*
X125875000Y-113450000I-75000J0D01*
G01*
X125725000Y-113450000D01*
G75*
G02*
X125650000Y-113375000I0J75000D01*
G01*
G37*
G36*
G01*
X125000000Y-113375000D02*
X125000000Y-112725000D01*
G75*
G02*
X125075000Y-112650000I75000J0D01*
G01*
X125225000Y-112650000D01*
G75*
G02*
X125300000Y-112725000I0J-75000D01*
G01*
X125300000Y-113375000D01*
G75*
G02*
X125225000Y-113450000I-75000J0D01*
G01*
X125075000Y-113450000D01*
G75*
G02*
X125000000Y-113375000I0J75000D01*
G01*
G37*
G36*
G01*
X124350000Y-113375000D02*
X124350000Y-112725000D01*
G75*
G02*
X124425000Y-112650000I75000J0D01*
G01*
X124575000Y-112650000D01*
G75*
G02*
X124650000Y-112725000I0J-75000D01*
G01*
X124650000Y-113375000D01*
G75*
G02*
X124575000Y-113450000I-75000J0D01*
G01*
X124425000Y-113450000D01*
G75*
G02*
X124350000Y-113375000I0J75000D01*
G01*
G37*
G36*
G01*
X123700000Y-113375000D02*
X123700000Y-112725000D01*
G75*
G02*
X123775000Y-112650000I75000J0D01*
G01*
X123925000Y-112650000D01*
G75*
G02*
X124000000Y-112725000I0J-75000D01*
G01*
X124000000Y-113375000D01*
G75*
G02*
X123925000Y-113450000I-75000J0D01*
G01*
X123775000Y-113450000D01*
G75*
G02*
X123700000Y-113375000I0J75000D01*
G01*
G37*
G36*
G01*
X123050000Y-113375000D02*
X123050000Y-112725000D01*
G75*
G02*
X123125000Y-112650000I75000J0D01*
G01*
X123275000Y-112650000D01*
G75*
G02*
X123350000Y-112725000I0J-75000D01*
G01*
X123350000Y-113375000D01*
G75*
G02*
X123275000Y-113450000I-75000J0D01*
G01*
X123125000Y-113450000D01*
G75*
G02*
X123050000Y-113375000I0J75000D01*
G01*
G37*
D11*
X124500000Y-115500000D03*
%TD*%
%TO.C,U3*%
X114200000Y-93000000D03*
G36*
G01*
X112750000Y-90875000D02*
X112750000Y-90225000D01*
G75*
G02*
X112825000Y-90150000I75000J0D01*
G01*
X112975000Y-90150000D01*
G75*
G02*
X113050000Y-90225000I0J-75000D01*
G01*
X113050000Y-90875000D01*
G75*
G02*
X112975000Y-90950000I-75000J0D01*
G01*
X112825000Y-90950000D01*
G75*
G02*
X112750000Y-90875000I0J75000D01*
G01*
G37*
G36*
G01*
X113400000Y-90875000D02*
X113400000Y-90225000D01*
G75*
G02*
X113475000Y-90150000I75000J0D01*
G01*
X113625000Y-90150000D01*
G75*
G02*
X113700000Y-90225000I0J-75000D01*
G01*
X113700000Y-90875000D01*
G75*
G02*
X113625000Y-90950000I-75000J0D01*
G01*
X113475000Y-90950000D01*
G75*
G02*
X113400000Y-90875000I0J75000D01*
G01*
G37*
G36*
G01*
X114050000Y-90875000D02*
X114050000Y-90225000D01*
G75*
G02*
X114125000Y-90150000I75000J0D01*
G01*
X114275000Y-90150000D01*
G75*
G02*
X114350000Y-90225000I0J-75000D01*
G01*
X114350000Y-90875000D01*
G75*
G02*
X114275000Y-90950000I-75000J0D01*
G01*
X114125000Y-90950000D01*
G75*
G02*
X114050000Y-90875000I0J75000D01*
G01*
G37*
G36*
G01*
X114700000Y-90875000D02*
X114700000Y-90225000D01*
G75*
G02*
X114775000Y-90150000I75000J0D01*
G01*
X114925000Y-90150000D01*
G75*
G02*
X115000000Y-90225000I0J-75000D01*
G01*
X115000000Y-90875000D01*
G75*
G02*
X114925000Y-90950000I-75000J0D01*
G01*
X114775000Y-90950000D01*
G75*
G02*
X114700000Y-90875000I0J75000D01*
G01*
G37*
G36*
G01*
X115350000Y-90875000D02*
X115350000Y-90225000D01*
G75*
G02*
X115425000Y-90150000I75000J0D01*
G01*
X115575000Y-90150000D01*
G75*
G02*
X115650000Y-90225000I0J-75000D01*
G01*
X115650000Y-90875000D01*
G75*
G02*
X115575000Y-90950000I-75000J0D01*
G01*
X115425000Y-90950000D01*
G75*
G02*
X115350000Y-90875000I0J75000D01*
G01*
G37*
G36*
G01*
X116250000Y-91775000D02*
X116250000Y-91625000D01*
G75*
G02*
X116325000Y-91550000I75000J0D01*
G01*
X116975000Y-91550000D01*
G75*
G02*
X117050000Y-91625000I0J-75000D01*
G01*
X117050000Y-91775000D01*
G75*
G02*
X116975000Y-91850000I-75000J0D01*
G01*
X116325000Y-91850000D01*
G75*
G02*
X116250000Y-91775000I0J75000D01*
G01*
G37*
G36*
G01*
X116250000Y-92425000D02*
X116250000Y-92275000D01*
G75*
G02*
X116325000Y-92200000I75000J0D01*
G01*
X116975000Y-92200000D01*
G75*
G02*
X117050000Y-92275000I0J-75000D01*
G01*
X117050000Y-92425000D01*
G75*
G02*
X116975000Y-92500000I-75000J0D01*
G01*
X116325000Y-92500000D01*
G75*
G02*
X116250000Y-92425000I0J75000D01*
G01*
G37*
G36*
G01*
X116250000Y-93075000D02*
X116250000Y-92925000D01*
G75*
G02*
X116325000Y-92850000I75000J0D01*
G01*
X116975000Y-92850000D01*
G75*
G02*
X117050000Y-92925000I0J-75000D01*
G01*
X117050000Y-93075000D01*
G75*
G02*
X116975000Y-93150000I-75000J0D01*
G01*
X116325000Y-93150000D01*
G75*
G02*
X116250000Y-93075000I0J75000D01*
G01*
G37*
G36*
G01*
X116250000Y-93725000D02*
X116250000Y-93575000D01*
G75*
G02*
X116325000Y-93500000I75000J0D01*
G01*
X116975000Y-93500000D01*
G75*
G02*
X117050000Y-93575000I0J-75000D01*
G01*
X117050000Y-93725000D01*
G75*
G02*
X116975000Y-93800000I-75000J0D01*
G01*
X116325000Y-93800000D01*
G75*
G02*
X116250000Y-93725000I0J75000D01*
G01*
G37*
G36*
G01*
X116250000Y-94375000D02*
X116250000Y-94225000D01*
G75*
G02*
X116325000Y-94150000I75000J0D01*
G01*
X116975000Y-94150000D01*
G75*
G02*
X117050000Y-94225000I0J-75000D01*
G01*
X117050000Y-94375000D01*
G75*
G02*
X116975000Y-94450000I-75000J0D01*
G01*
X116325000Y-94450000D01*
G75*
G02*
X116250000Y-94375000I0J75000D01*
G01*
G37*
G36*
G01*
X115350000Y-95775000D02*
X115350000Y-95125000D01*
G75*
G02*
X115425000Y-95050000I75000J0D01*
G01*
X115575000Y-95050000D01*
G75*
G02*
X115650000Y-95125000I0J-75000D01*
G01*
X115650000Y-95775000D01*
G75*
G02*
X115575000Y-95850000I-75000J0D01*
G01*
X115425000Y-95850000D01*
G75*
G02*
X115350000Y-95775000I0J75000D01*
G01*
G37*
G36*
G01*
X114700000Y-95775000D02*
X114700000Y-95125000D01*
G75*
G02*
X114775000Y-95050000I75000J0D01*
G01*
X114925000Y-95050000D01*
G75*
G02*
X115000000Y-95125000I0J-75000D01*
G01*
X115000000Y-95775000D01*
G75*
G02*
X114925000Y-95850000I-75000J0D01*
G01*
X114775000Y-95850000D01*
G75*
G02*
X114700000Y-95775000I0J75000D01*
G01*
G37*
G36*
G01*
X114050000Y-95775000D02*
X114050000Y-95125000D01*
G75*
G02*
X114125000Y-95050000I75000J0D01*
G01*
X114275000Y-95050000D01*
G75*
G02*
X114350000Y-95125000I0J-75000D01*
G01*
X114350000Y-95775000D01*
G75*
G02*
X114275000Y-95850000I-75000J0D01*
G01*
X114125000Y-95850000D01*
G75*
G02*
X114050000Y-95775000I0J75000D01*
G01*
G37*
G36*
G01*
X113400000Y-95775000D02*
X113400000Y-95125000D01*
G75*
G02*
X113475000Y-95050000I75000J0D01*
G01*
X113625000Y-95050000D01*
G75*
G02*
X113700000Y-95125000I0J-75000D01*
G01*
X113700000Y-95775000D01*
G75*
G02*
X113625000Y-95850000I-75000J0D01*
G01*
X113475000Y-95850000D01*
G75*
G02*
X113400000Y-95775000I0J75000D01*
G01*
G37*
G36*
G01*
X112750000Y-95775000D02*
X112750000Y-95125000D01*
G75*
G02*
X112825000Y-95050000I75000J0D01*
G01*
X112975000Y-95050000D01*
G75*
G02*
X113050000Y-95125000I0J-75000D01*
G01*
X113050000Y-95775000D01*
G75*
G02*
X112975000Y-95850000I-75000J0D01*
G01*
X112825000Y-95850000D01*
G75*
G02*
X112750000Y-95775000I0J75000D01*
G01*
G37*
G36*
G01*
X111350000Y-94375000D02*
X111350000Y-94225000D01*
G75*
G02*
X111425000Y-94150000I75000J0D01*
G01*
X112075000Y-94150000D01*
G75*
G02*
X112150000Y-94225000I0J-75000D01*
G01*
X112150000Y-94375000D01*
G75*
G02*
X112075000Y-94450000I-75000J0D01*
G01*
X111425000Y-94450000D01*
G75*
G02*
X111350000Y-94375000I0J75000D01*
G01*
G37*
G36*
G01*
X111350000Y-93725000D02*
X111350000Y-93575000D01*
G75*
G02*
X111425000Y-93500000I75000J0D01*
G01*
X112075000Y-93500000D01*
G75*
G02*
X112150000Y-93575000I0J-75000D01*
G01*
X112150000Y-93725000D01*
G75*
G02*
X112075000Y-93800000I-75000J0D01*
G01*
X111425000Y-93800000D01*
G75*
G02*
X111350000Y-93725000I0J75000D01*
G01*
G37*
G36*
G01*
X111350000Y-93075000D02*
X111350000Y-92925000D01*
G75*
G02*
X111425000Y-92850000I75000J0D01*
G01*
X112075000Y-92850000D01*
G75*
G02*
X112150000Y-92925000I0J-75000D01*
G01*
X112150000Y-93075000D01*
G75*
G02*
X112075000Y-93150000I-75000J0D01*
G01*
X111425000Y-93150000D01*
G75*
G02*
X111350000Y-93075000I0J75000D01*
G01*
G37*
G36*
G01*
X111350000Y-92425000D02*
X111350000Y-92275000D01*
G75*
G02*
X111425000Y-92200000I75000J0D01*
G01*
X112075000Y-92200000D01*
G75*
G02*
X112150000Y-92275000I0J-75000D01*
G01*
X112150000Y-92425000D01*
G75*
G02*
X112075000Y-92500000I-75000J0D01*
G01*
X111425000Y-92500000D01*
G75*
G02*
X111350000Y-92425000I0J75000D01*
G01*
G37*
G36*
G01*
X111350000Y-91775000D02*
X111350000Y-91625000D01*
G75*
G02*
X111425000Y-91550000I75000J0D01*
G01*
X112075000Y-91550000D01*
G75*
G02*
X112150000Y-91625000I0J-75000D01*
G01*
X112150000Y-91775000D01*
G75*
G02*
X112075000Y-91850000I-75000J0D01*
G01*
X111425000Y-91850000D01*
G75*
G02*
X111350000Y-91775000I0J75000D01*
G01*
G37*
%TD*%
%TO.C,U4*%
X129200000Y-93000000D03*
G36*
G01*
X127750000Y-90875000D02*
X127750000Y-90225000D01*
G75*
G02*
X127825000Y-90150000I75000J0D01*
G01*
X127975000Y-90150000D01*
G75*
G02*
X128050000Y-90225000I0J-75000D01*
G01*
X128050000Y-90875000D01*
G75*
G02*
X127975000Y-90950000I-75000J0D01*
G01*
X127825000Y-90950000D01*
G75*
G02*
X127750000Y-90875000I0J75000D01*
G01*
G37*
G36*
G01*
X128400000Y-90875000D02*
X128400000Y-90225000D01*
G75*
G02*
X128475000Y-90150000I75000J0D01*
G01*
X128625000Y-90150000D01*
G75*
G02*
X128700000Y-90225000I0J-75000D01*
G01*
X128700000Y-90875000D01*
G75*
G02*
X128625000Y-90950000I-75000J0D01*
G01*
X128475000Y-90950000D01*
G75*
G02*
X128400000Y-90875000I0J75000D01*
G01*
G37*
G36*
G01*
X129050000Y-90875000D02*
X129050000Y-90225000D01*
G75*
G02*
X129125000Y-90150000I75000J0D01*
G01*
X129275000Y-90150000D01*
G75*
G02*
X129350000Y-90225000I0J-75000D01*
G01*
X129350000Y-90875000D01*
G75*
G02*
X129275000Y-90950000I-75000J0D01*
G01*
X129125000Y-90950000D01*
G75*
G02*
X129050000Y-90875000I0J75000D01*
G01*
G37*
G36*
G01*
X129700000Y-90875000D02*
X129700000Y-90225000D01*
G75*
G02*
X129775000Y-90150000I75000J0D01*
G01*
X129925000Y-90150000D01*
G75*
G02*
X130000000Y-90225000I0J-75000D01*
G01*
X130000000Y-90875000D01*
G75*
G02*
X129925000Y-90950000I-75000J0D01*
G01*
X129775000Y-90950000D01*
G75*
G02*
X129700000Y-90875000I0J75000D01*
G01*
G37*
G36*
G01*
X130350000Y-90875000D02*
X130350000Y-90225000D01*
G75*
G02*
X130425000Y-90150000I75000J0D01*
G01*
X130575000Y-90150000D01*
G75*
G02*
X130650000Y-90225000I0J-75000D01*
G01*
X130650000Y-90875000D01*
G75*
G02*
X130575000Y-90950000I-75000J0D01*
G01*
X130425000Y-90950000D01*
G75*
G02*
X130350000Y-90875000I0J75000D01*
G01*
G37*
G36*
G01*
X131250000Y-91775000D02*
X131250000Y-91625000D01*
G75*
G02*
X131325000Y-91550000I75000J0D01*
G01*
X131975000Y-91550000D01*
G75*
G02*
X132050000Y-91625000I0J-75000D01*
G01*
X132050000Y-91775000D01*
G75*
G02*
X131975000Y-91850000I-75000J0D01*
G01*
X131325000Y-91850000D01*
G75*
G02*
X131250000Y-91775000I0J75000D01*
G01*
G37*
G36*
G01*
X131250000Y-92425000D02*
X131250000Y-92275000D01*
G75*
G02*
X131325000Y-92200000I75000J0D01*
G01*
X131975000Y-92200000D01*
G75*
G02*
X132050000Y-92275000I0J-75000D01*
G01*
X132050000Y-92425000D01*
G75*
G02*
X131975000Y-92500000I-75000J0D01*
G01*
X131325000Y-92500000D01*
G75*
G02*
X131250000Y-92425000I0J75000D01*
G01*
G37*
G36*
G01*
X131250000Y-93075000D02*
X131250000Y-92925000D01*
G75*
G02*
X131325000Y-92850000I75000J0D01*
G01*
X131975000Y-92850000D01*
G75*
G02*
X132050000Y-92925000I0J-75000D01*
G01*
X132050000Y-93075000D01*
G75*
G02*
X131975000Y-93150000I-75000J0D01*
G01*
X131325000Y-93150000D01*
G75*
G02*
X131250000Y-93075000I0J75000D01*
G01*
G37*
G36*
G01*
X131250000Y-93725000D02*
X131250000Y-93575000D01*
G75*
G02*
X131325000Y-93500000I75000J0D01*
G01*
X131975000Y-93500000D01*
G75*
G02*
X132050000Y-93575000I0J-75000D01*
G01*
X132050000Y-93725000D01*
G75*
G02*
X131975000Y-93800000I-75000J0D01*
G01*
X131325000Y-93800000D01*
G75*
G02*
X131250000Y-93725000I0J75000D01*
G01*
G37*
G36*
G01*
X131250000Y-94375000D02*
X131250000Y-94225000D01*
G75*
G02*
X131325000Y-94150000I75000J0D01*
G01*
X131975000Y-94150000D01*
G75*
G02*
X132050000Y-94225000I0J-75000D01*
G01*
X132050000Y-94375000D01*
G75*
G02*
X131975000Y-94450000I-75000J0D01*
G01*
X131325000Y-94450000D01*
G75*
G02*
X131250000Y-94375000I0J75000D01*
G01*
G37*
G36*
G01*
X130350000Y-95775000D02*
X130350000Y-95125000D01*
G75*
G02*
X130425000Y-95050000I75000J0D01*
G01*
X130575000Y-95050000D01*
G75*
G02*
X130650000Y-95125000I0J-75000D01*
G01*
X130650000Y-95775000D01*
G75*
G02*
X130575000Y-95850000I-75000J0D01*
G01*
X130425000Y-95850000D01*
G75*
G02*
X130350000Y-95775000I0J75000D01*
G01*
G37*
G36*
G01*
X129700000Y-95775000D02*
X129700000Y-95125000D01*
G75*
G02*
X129775000Y-95050000I75000J0D01*
G01*
X129925000Y-95050000D01*
G75*
G02*
X130000000Y-95125000I0J-75000D01*
G01*
X130000000Y-95775000D01*
G75*
G02*
X129925000Y-95850000I-75000J0D01*
G01*
X129775000Y-95850000D01*
G75*
G02*
X129700000Y-95775000I0J75000D01*
G01*
G37*
G36*
G01*
X129050000Y-95775000D02*
X129050000Y-95125000D01*
G75*
G02*
X129125000Y-95050000I75000J0D01*
G01*
X129275000Y-95050000D01*
G75*
G02*
X129350000Y-95125000I0J-75000D01*
G01*
X129350000Y-95775000D01*
G75*
G02*
X129275000Y-95850000I-75000J0D01*
G01*
X129125000Y-95850000D01*
G75*
G02*
X129050000Y-95775000I0J75000D01*
G01*
G37*
G36*
G01*
X128400000Y-95775000D02*
X128400000Y-95125000D01*
G75*
G02*
X128475000Y-95050000I75000J0D01*
G01*
X128625000Y-95050000D01*
G75*
G02*
X128700000Y-95125000I0J-75000D01*
G01*
X128700000Y-95775000D01*
G75*
G02*
X128625000Y-95850000I-75000J0D01*
G01*
X128475000Y-95850000D01*
G75*
G02*
X128400000Y-95775000I0J75000D01*
G01*
G37*
G36*
G01*
X127750000Y-95775000D02*
X127750000Y-95125000D01*
G75*
G02*
X127825000Y-95050000I75000J0D01*
G01*
X127975000Y-95050000D01*
G75*
G02*
X128050000Y-95125000I0J-75000D01*
G01*
X128050000Y-95775000D01*
G75*
G02*
X127975000Y-95850000I-75000J0D01*
G01*
X127825000Y-95850000D01*
G75*
G02*
X127750000Y-95775000I0J75000D01*
G01*
G37*
G36*
G01*
X126350000Y-94375000D02*
X126350000Y-94225000D01*
G75*
G02*
X126425000Y-94150000I75000J0D01*
G01*
X127075000Y-94150000D01*
G75*
G02*
X127150000Y-94225000I0J-75000D01*
G01*
X127150000Y-94375000D01*
G75*
G02*
X127075000Y-94450000I-75000J0D01*
G01*
X126425000Y-94450000D01*
G75*
G02*
X126350000Y-94375000I0J75000D01*
G01*
G37*
G36*
G01*
X126350000Y-93725000D02*
X126350000Y-93575000D01*
G75*
G02*
X126425000Y-93500000I75000J0D01*
G01*
X127075000Y-93500000D01*
G75*
G02*
X127150000Y-93575000I0J-75000D01*
G01*
X127150000Y-93725000D01*
G75*
G02*
X127075000Y-93800000I-75000J0D01*
G01*
X126425000Y-93800000D01*
G75*
G02*
X126350000Y-93725000I0J75000D01*
G01*
G37*
G36*
G01*
X126350000Y-93075000D02*
X126350000Y-92925000D01*
G75*
G02*
X126425000Y-92850000I75000J0D01*
G01*
X127075000Y-92850000D01*
G75*
G02*
X127150000Y-92925000I0J-75000D01*
G01*
X127150000Y-93075000D01*
G75*
G02*
X127075000Y-93150000I-75000J0D01*
G01*
X126425000Y-93150000D01*
G75*
G02*
X126350000Y-93075000I0J75000D01*
G01*
G37*
G36*
G01*
X126350000Y-92425000D02*
X126350000Y-92275000D01*
G75*
G02*
X126425000Y-92200000I75000J0D01*
G01*
X127075000Y-92200000D01*
G75*
G02*
X127150000Y-92275000I0J-75000D01*
G01*
X127150000Y-92425000D01*
G75*
G02*
X127075000Y-92500000I-75000J0D01*
G01*
X126425000Y-92500000D01*
G75*
G02*
X126350000Y-92425000I0J75000D01*
G01*
G37*
G36*
G01*
X126350000Y-91775000D02*
X126350000Y-91625000D01*
G75*
G02*
X126425000Y-91550000I75000J0D01*
G01*
X127075000Y-91550000D01*
G75*
G02*
X127150000Y-91625000I0J-75000D01*
G01*
X127150000Y-91775000D01*
G75*
G02*
X127075000Y-91850000I-75000J0D01*
G01*
X126425000Y-91850000D01*
G75*
G02*
X126350000Y-91775000I0J75000D01*
G01*
G37*
%TD*%
%TO.C,U5*%
X144200000Y-93000000D03*
G36*
G01*
X142750000Y-90875000D02*
X142750000Y-90225000D01*
G75*
G02*
X142825000Y-90150000I75000J0D01*
G01*
X142975000Y-90150000D01*
G75*
G02*
X143050000Y-90225000I0J-75000D01*
G01*
X143050000Y-90875000D01*
G75*
G02*
X142975000Y-90950000I-75000J0D01*
G01*
X142825000Y-90950000D01*
G75*
G02*
X142750000Y-90875000I0J75000D01*
G01*
G37*
G36*
G01*
X143400000Y-90875000D02*
X143400000Y-90225000D01*
G75*
G02*
X143475000Y-90150000I75000J0D01*
G01*
X143625000Y-90150000D01*
G75*
G02*
X143700000Y-90225000I0J-75000D01*
G01*
X143700000Y-90875000D01*
G75*
G02*
X143625000Y-90950000I-75000J0D01*
G01*
X143475000Y-90950000D01*
G75*
G02*
X143400000Y-90875000I0J75000D01*
G01*
G37*
G36*
G01*
X144050000Y-90875000D02*
X144050000Y-90225000D01*
G75*
G02*
X144125000Y-90150000I75000J0D01*
G01*
X144275000Y-90150000D01*
G75*
G02*
X144350000Y-90225000I0J-75000D01*
G01*
X144350000Y-90875000D01*
G75*
G02*
X144275000Y-90950000I-75000J0D01*
G01*
X144125000Y-90950000D01*
G75*
G02*
X144050000Y-90875000I0J75000D01*
G01*
G37*
G36*
G01*
X144700000Y-90875000D02*
X144700000Y-90225000D01*
G75*
G02*
X144775000Y-90150000I75000J0D01*
G01*
X144925000Y-90150000D01*
G75*
G02*
X145000000Y-90225000I0J-75000D01*
G01*
X145000000Y-90875000D01*
G75*
G02*
X144925000Y-90950000I-75000J0D01*
G01*
X144775000Y-90950000D01*
G75*
G02*
X144700000Y-90875000I0J75000D01*
G01*
G37*
G36*
G01*
X145350000Y-90875000D02*
X145350000Y-90225000D01*
G75*
G02*
X145425000Y-90150000I75000J0D01*
G01*
X145575000Y-90150000D01*
G75*
G02*
X145650000Y-90225000I0J-75000D01*
G01*
X145650000Y-90875000D01*
G75*
G02*
X145575000Y-90950000I-75000J0D01*
G01*
X145425000Y-90950000D01*
G75*
G02*
X145350000Y-90875000I0J75000D01*
G01*
G37*
G36*
G01*
X146250000Y-91775000D02*
X146250000Y-91625000D01*
G75*
G02*
X146325000Y-91550000I75000J0D01*
G01*
X146975000Y-91550000D01*
G75*
G02*
X147050000Y-91625000I0J-75000D01*
G01*
X147050000Y-91775000D01*
G75*
G02*
X146975000Y-91850000I-75000J0D01*
G01*
X146325000Y-91850000D01*
G75*
G02*
X146250000Y-91775000I0J75000D01*
G01*
G37*
G36*
G01*
X146250000Y-92425000D02*
X146250000Y-92275000D01*
G75*
G02*
X146325000Y-92200000I75000J0D01*
G01*
X146975000Y-92200000D01*
G75*
G02*
X147050000Y-92275000I0J-75000D01*
G01*
X147050000Y-92425000D01*
G75*
G02*
X146975000Y-92500000I-75000J0D01*
G01*
X146325000Y-92500000D01*
G75*
G02*
X146250000Y-92425000I0J75000D01*
G01*
G37*
G36*
G01*
X146250000Y-93075000D02*
X146250000Y-92925000D01*
G75*
G02*
X146325000Y-92850000I75000J0D01*
G01*
X146975000Y-92850000D01*
G75*
G02*
X147050000Y-92925000I0J-75000D01*
G01*
X147050000Y-93075000D01*
G75*
G02*
X146975000Y-93150000I-75000J0D01*
G01*
X146325000Y-93150000D01*
G75*
G02*
X146250000Y-93075000I0J75000D01*
G01*
G37*
G36*
G01*
X146250000Y-93725000D02*
X146250000Y-93575000D01*
G75*
G02*
X146325000Y-93500000I75000J0D01*
G01*
X146975000Y-93500000D01*
G75*
G02*
X147050000Y-93575000I0J-75000D01*
G01*
X147050000Y-93725000D01*
G75*
G02*
X146975000Y-93800000I-75000J0D01*
G01*
X146325000Y-93800000D01*
G75*
G02*
X146250000Y-93725000I0J75000D01*
G01*
G37*
G36*
G01*
X146250000Y-94375000D02*
X146250000Y-94225000D01*
G75*
G02*
X146325000Y-94150000I75000J0D01*
G01*
X146975000Y-94150000D01*
G75*
G02*
X147050000Y-94225000I0J-75000D01*
G01*
X147050000Y-94375000D01*
G75*
G02*
X146975000Y-94450000I-75000J0D01*
G01*
X146325000Y-94450000D01*
G75*
G02*
X146250000Y-94375000I0J75000D01*
G01*
G37*
G36*
G01*
X145350000Y-95775000D02*
X145350000Y-95125000D01*
G75*
G02*
X145425000Y-95050000I75000J0D01*
G01*
X145575000Y-95050000D01*
G75*
G02*
X145650000Y-95125000I0J-75000D01*
G01*
X145650000Y-95775000D01*
G75*
G02*
X145575000Y-95850000I-75000J0D01*
G01*
X145425000Y-95850000D01*
G75*
G02*
X145350000Y-95775000I0J75000D01*
G01*
G37*
G36*
G01*
X144700000Y-95775000D02*
X144700000Y-95125000D01*
G75*
G02*
X144775000Y-95050000I75000J0D01*
G01*
X144925000Y-95050000D01*
G75*
G02*
X145000000Y-95125000I0J-75000D01*
G01*
X145000000Y-95775000D01*
G75*
G02*
X144925000Y-95850000I-75000J0D01*
G01*
X144775000Y-95850000D01*
G75*
G02*
X144700000Y-95775000I0J75000D01*
G01*
G37*
G36*
G01*
X144050000Y-95775000D02*
X144050000Y-95125000D01*
G75*
G02*
X144125000Y-95050000I75000J0D01*
G01*
X144275000Y-95050000D01*
G75*
G02*
X144350000Y-95125000I0J-75000D01*
G01*
X144350000Y-95775000D01*
G75*
G02*
X144275000Y-95850000I-75000J0D01*
G01*
X144125000Y-95850000D01*
G75*
G02*
X144050000Y-95775000I0J75000D01*
G01*
G37*
G36*
G01*
X143400000Y-95775000D02*
X143400000Y-95125000D01*
G75*
G02*
X143475000Y-95050000I75000J0D01*
G01*
X143625000Y-95050000D01*
G75*
G02*
X143700000Y-95125000I0J-75000D01*
G01*
X143700000Y-95775000D01*
G75*
G02*
X143625000Y-95850000I-75000J0D01*
G01*
X143475000Y-95850000D01*
G75*
G02*
X143400000Y-95775000I0J75000D01*
G01*
G37*
G36*
G01*
X142750000Y-95775000D02*
X142750000Y-95125000D01*
G75*
G02*
X142825000Y-95050000I75000J0D01*
G01*
X142975000Y-95050000D01*
G75*
G02*
X143050000Y-95125000I0J-75000D01*
G01*
X143050000Y-95775000D01*
G75*
G02*
X142975000Y-95850000I-75000J0D01*
G01*
X142825000Y-95850000D01*
G75*
G02*
X142750000Y-95775000I0J75000D01*
G01*
G37*
G36*
G01*
X141350000Y-94375000D02*
X141350000Y-94225000D01*
G75*
G02*
X141425000Y-94150000I75000J0D01*
G01*
X142075000Y-94150000D01*
G75*
G02*
X142150000Y-94225000I0J-75000D01*
G01*
X142150000Y-94375000D01*
G75*
G02*
X142075000Y-94450000I-75000J0D01*
G01*
X141425000Y-94450000D01*
G75*
G02*
X141350000Y-94375000I0J75000D01*
G01*
G37*
G36*
G01*
X141350000Y-93725000D02*
X141350000Y-93575000D01*
G75*
G02*
X141425000Y-93500000I75000J0D01*
G01*
X142075000Y-93500000D01*
G75*
G02*
X142150000Y-93575000I0J-75000D01*
G01*
X142150000Y-93725000D01*
G75*
G02*
X142075000Y-93800000I-75000J0D01*
G01*
X141425000Y-93800000D01*
G75*
G02*
X141350000Y-93725000I0J75000D01*
G01*
G37*
G36*
G01*
X141350000Y-93075000D02*
X141350000Y-92925000D01*
G75*
G02*
X141425000Y-92850000I75000J0D01*
G01*
X142075000Y-92850000D01*
G75*
G02*
X142150000Y-92925000I0J-75000D01*
G01*
X142150000Y-93075000D01*
G75*
G02*
X142075000Y-93150000I-75000J0D01*
G01*
X141425000Y-93150000D01*
G75*
G02*
X141350000Y-93075000I0J75000D01*
G01*
G37*
G36*
G01*
X141350000Y-92425000D02*
X141350000Y-92275000D01*
G75*
G02*
X141425000Y-92200000I75000J0D01*
G01*
X142075000Y-92200000D01*
G75*
G02*
X142150000Y-92275000I0J-75000D01*
G01*
X142150000Y-92425000D01*
G75*
G02*
X142075000Y-92500000I-75000J0D01*
G01*
X141425000Y-92500000D01*
G75*
G02*
X141350000Y-92425000I0J75000D01*
G01*
G37*
G36*
G01*
X141350000Y-91775000D02*
X141350000Y-91625000D01*
G75*
G02*
X141425000Y-91550000I75000J0D01*
G01*
X142075000Y-91550000D01*
G75*
G02*
X142150000Y-91625000I0J-75000D01*
G01*
X142150000Y-91775000D01*
G75*
G02*
X142075000Y-91850000I-75000J0D01*
G01*
X141425000Y-91850000D01*
G75*
G02*
X141350000Y-91775000I0J75000D01*
G01*
G37*
%TD*%
%TO.C,U6*%
G36*
G01*
X156350000Y-91775000D02*
X156350000Y-91625000D01*
G75*
G02*
X156425000Y-91550000I75000J0D01*
G01*
X157075000Y-91550000D01*
G75*
G02*
X157150000Y-91625000I0J-75000D01*
G01*
X157150000Y-91775000D01*
G75*
G02*
X157075000Y-91850000I-75000J0D01*
G01*
X156425000Y-91850000D01*
G75*
G02*
X156350000Y-91775000I0J75000D01*
G01*
G37*
G36*
G01*
X156350000Y-92425000D02*
X156350000Y-92275000D01*
G75*
G02*
X156425000Y-92200000I75000J0D01*
G01*
X157075000Y-92200000D01*
G75*
G02*
X157150000Y-92275000I0J-75000D01*
G01*
X157150000Y-92425000D01*
G75*
G02*
X157075000Y-92500000I-75000J0D01*
G01*
X156425000Y-92500000D01*
G75*
G02*
X156350000Y-92425000I0J75000D01*
G01*
G37*
G36*
G01*
X156350000Y-93075000D02*
X156350000Y-92925000D01*
G75*
G02*
X156425000Y-92850000I75000J0D01*
G01*
X157075000Y-92850000D01*
G75*
G02*
X157150000Y-92925000I0J-75000D01*
G01*
X157150000Y-93075000D01*
G75*
G02*
X157075000Y-93150000I-75000J0D01*
G01*
X156425000Y-93150000D01*
G75*
G02*
X156350000Y-93075000I0J75000D01*
G01*
G37*
G36*
G01*
X156350000Y-93725000D02*
X156350000Y-93575000D01*
G75*
G02*
X156425000Y-93500000I75000J0D01*
G01*
X157075000Y-93500000D01*
G75*
G02*
X157150000Y-93575000I0J-75000D01*
G01*
X157150000Y-93725000D01*
G75*
G02*
X157075000Y-93800000I-75000J0D01*
G01*
X156425000Y-93800000D01*
G75*
G02*
X156350000Y-93725000I0J75000D01*
G01*
G37*
G36*
G01*
X156350000Y-94375000D02*
X156350000Y-94225000D01*
G75*
G02*
X156425000Y-94150000I75000J0D01*
G01*
X157075000Y-94150000D01*
G75*
G02*
X157150000Y-94225000I0J-75000D01*
G01*
X157150000Y-94375000D01*
G75*
G02*
X157075000Y-94450000I-75000J0D01*
G01*
X156425000Y-94450000D01*
G75*
G02*
X156350000Y-94375000I0J75000D01*
G01*
G37*
G36*
G01*
X157750000Y-95775000D02*
X157750000Y-95125000D01*
G75*
G02*
X157825000Y-95050000I75000J0D01*
G01*
X157975000Y-95050000D01*
G75*
G02*
X158050000Y-95125000I0J-75000D01*
G01*
X158050000Y-95775000D01*
G75*
G02*
X157975000Y-95850000I-75000J0D01*
G01*
X157825000Y-95850000D01*
G75*
G02*
X157750000Y-95775000I0J75000D01*
G01*
G37*
G36*
G01*
X158400000Y-95775000D02*
X158400000Y-95125000D01*
G75*
G02*
X158475000Y-95050000I75000J0D01*
G01*
X158625000Y-95050000D01*
G75*
G02*
X158700000Y-95125000I0J-75000D01*
G01*
X158700000Y-95775000D01*
G75*
G02*
X158625000Y-95850000I-75000J0D01*
G01*
X158475000Y-95850000D01*
G75*
G02*
X158400000Y-95775000I0J75000D01*
G01*
G37*
G36*
G01*
X159050000Y-95775000D02*
X159050000Y-95125000D01*
G75*
G02*
X159125000Y-95050000I75000J0D01*
G01*
X159275000Y-95050000D01*
G75*
G02*
X159350000Y-95125000I0J-75000D01*
G01*
X159350000Y-95775000D01*
G75*
G02*
X159275000Y-95850000I-75000J0D01*
G01*
X159125000Y-95850000D01*
G75*
G02*
X159050000Y-95775000I0J75000D01*
G01*
G37*
G36*
G01*
X159700000Y-95775000D02*
X159700000Y-95125000D01*
G75*
G02*
X159775000Y-95050000I75000J0D01*
G01*
X159925000Y-95050000D01*
G75*
G02*
X160000000Y-95125000I0J-75000D01*
G01*
X160000000Y-95775000D01*
G75*
G02*
X159925000Y-95850000I-75000J0D01*
G01*
X159775000Y-95850000D01*
G75*
G02*
X159700000Y-95775000I0J75000D01*
G01*
G37*
G36*
G01*
X160350000Y-95775000D02*
X160350000Y-95125000D01*
G75*
G02*
X160425000Y-95050000I75000J0D01*
G01*
X160575000Y-95050000D01*
G75*
G02*
X160650000Y-95125000I0J-75000D01*
G01*
X160650000Y-95775000D01*
G75*
G02*
X160575000Y-95850000I-75000J0D01*
G01*
X160425000Y-95850000D01*
G75*
G02*
X160350000Y-95775000I0J75000D01*
G01*
G37*
G36*
G01*
X161250000Y-94375000D02*
X161250000Y-94225000D01*
G75*
G02*
X161325000Y-94150000I75000J0D01*
G01*
X161975000Y-94150000D01*
G75*
G02*
X162050000Y-94225000I0J-75000D01*
G01*
X162050000Y-94375000D01*
G75*
G02*
X161975000Y-94450000I-75000J0D01*
G01*
X161325000Y-94450000D01*
G75*
G02*
X161250000Y-94375000I0J75000D01*
G01*
G37*
G36*
G01*
X161250000Y-93725000D02*
X161250000Y-93575000D01*
G75*
G02*
X161325000Y-93500000I75000J0D01*
G01*
X161975000Y-93500000D01*
G75*
G02*
X162050000Y-93575000I0J-75000D01*
G01*
X162050000Y-93725000D01*
G75*
G02*
X161975000Y-93800000I-75000J0D01*
G01*
X161325000Y-93800000D01*
G75*
G02*
X161250000Y-93725000I0J75000D01*
G01*
G37*
G36*
G01*
X161250000Y-93075000D02*
X161250000Y-92925000D01*
G75*
G02*
X161325000Y-92850000I75000J0D01*
G01*
X161975000Y-92850000D01*
G75*
G02*
X162050000Y-92925000I0J-75000D01*
G01*
X162050000Y-93075000D01*
G75*
G02*
X161975000Y-93150000I-75000J0D01*
G01*
X161325000Y-93150000D01*
G75*
G02*
X161250000Y-93075000I0J75000D01*
G01*
G37*
G36*
G01*
X161250000Y-92425000D02*
X161250000Y-92275000D01*
G75*
G02*
X161325000Y-92200000I75000J0D01*
G01*
X161975000Y-92200000D01*
G75*
G02*
X162050000Y-92275000I0J-75000D01*
G01*
X162050000Y-92425000D01*
G75*
G02*
X161975000Y-92500000I-75000J0D01*
G01*
X161325000Y-92500000D01*
G75*
G02*
X161250000Y-92425000I0J75000D01*
G01*
G37*
G36*
G01*
X161250000Y-91775000D02*
X161250000Y-91625000D01*
G75*
G02*
X161325000Y-91550000I75000J0D01*
G01*
X161975000Y-91550000D01*
G75*
G02*
X162050000Y-91625000I0J-75000D01*
G01*
X162050000Y-91775000D01*
G75*
G02*
X161975000Y-91850000I-75000J0D01*
G01*
X161325000Y-91850000D01*
G75*
G02*
X161250000Y-91775000I0J75000D01*
G01*
G37*
G36*
G01*
X160350000Y-90875000D02*
X160350000Y-90225000D01*
G75*
G02*
X160425000Y-90150000I75000J0D01*
G01*
X160575000Y-90150000D01*
G75*
G02*
X160650000Y-90225000I0J-75000D01*
G01*
X160650000Y-90875000D01*
G75*
G02*
X160575000Y-90950000I-75000J0D01*
G01*
X160425000Y-90950000D01*
G75*
G02*
X160350000Y-90875000I0J75000D01*
G01*
G37*
G36*
G01*
X159700000Y-90875000D02*
X159700000Y-90225000D01*
G75*
G02*
X159775000Y-90150000I75000J0D01*
G01*
X159925000Y-90150000D01*
G75*
G02*
X160000000Y-90225000I0J-75000D01*
G01*
X160000000Y-90875000D01*
G75*
G02*
X159925000Y-90950000I-75000J0D01*
G01*
X159775000Y-90950000D01*
G75*
G02*
X159700000Y-90875000I0J75000D01*
G01*
G37*
G36*
G01*
X159050000Y-90875000D02*
X159050000Y-90225000D01*
G75*
G02*
X159125000Y-90150000I75000J0D01*
G01*
X159275000Y-90150000D01*
G75*
G02*
X159350000Y-90225000I0J-75000D01*
G01*
X159350000Y-90875000D01*
G75*
G02*
X159275000Y-90950000I-75000J0D01*
G01*
X159125000Y-90950000D01*
G75*
G02*
X159050000Y-90875000I0J75000D01*
G01*
G37*
G36*
G01*
X158400000Y-90875000D02*
X158400000Y-90225000D01*
G75*
G02*
X158475000Y-90150000I75000J0D01*
G01*
X158625000Y-90150000D01*
G75*
G02*
X158700000Y-90225000I0J-75000D01*
G01*
X158700000Y-90875000D01*
G75*
G02*
X158625000Y-90950000I-75000J0D01*
G01*
X158475000Y-90950000D01*
G75*
G02*
X158400000Y-90875000I0J75000D01*
G01*
G37*
G36*
G01*
X157750000Y-90875000D02*
X157750000Y-90225000D01*
G75*
G02*
X157825000Y-90150000I75000J0D01*
G01*
X157975000Y-90150000D01*
G75*
G02*
X158050000Y-90225000I0J-75000D01*
G01*
X158050000Y-90875000D01*
G75*
G02*
X157975000Y-90950000I-75000J0D01*
G01*
X157825000Y-90950000D01*
G75*
G02*
X157750000Y-90875000I0J75000D01*
G01*
G37*
X159200000Y-93000000D03*
%TD*%
%TO.C,U7*%
G36*
G01*
X134150000Y-114275000D02*
X134150000Y-114125000D01*
G75*
G02*
X134225000Y-114050000I75000J0D01*
G01*
X134875000Y-114050000D01*
G75*
G02*
X134950000Y-114125000I0J-75000D01*
G01*
X134950000Y-114275000D01*
G75*
G02*
X134875000Y-114350000I-75000J0D01*
G01*
X134225000Y-114350000D01*
G75*
G02*
X134150000Y-114275000I0J75000D01*
G01*
G37*
G36*
G01*
X134150000Y-114925000D02*
X134150000Y-114775000D01*
G75*
G02*
X134225000Y-114700000I75000J0D01*
G01*
X134875000Y-114700000D01*
G75*
G02*
X134950000Y-114775000I0J-75000D01*
G01*
X134950000Y-114925000D01*
G75*
G02*
X134875000Y-115000000I-75000J0D01*
G01*
X134225000Y-115000000D01*
G75*
G02*
X134150000Y-114925000I0J75000D01*
G01*
G37*
G36*
G01*
X134150000Y-115575000D02*
X134150000Y-115425000D01*
G75*
G02*
X134225000Y-115350000I75000J0D01*
G01*
X134875000Y-115350000D01*
G75*
G02*
X134950000Y-115425000I0J-75000D01*
G01*
X134950000Y-115575000D01*
G75*
G02*
X134875000Y-115650000I-75000J0D01*
G01*
X134225000Y-115650000D01*
G75*
G02*
X134150000Y-115575000I0J75000D01*
G01*
G37*
G36*
G01*
X134150000Y-116225000D02*
X134150000Y-116075000D01*
G75*
G02*
X134225000Y-116000000I75000J0D01*
G01*
X134875000Y-116000000D01*
G75*
G02*
X134950000Y-116075000I0J-75000D01*
G01*
X134950000Y-116225000D01*
G75*
G02*
X134875000Y-116300000I-75000J0D01*
G01*
X134225000Y-116300000D01*
G75*
G02*
X134150000Y-116225000I0J75000D01*
G01*
G37*
G36*
G01*
X134150000Y-116875000D02*
X134150000Y-116725000D01*
G75*
G02*
X134225000Y-116650000I75000J0D01*
G01*
X134875000Y-116650000D01*
G75*
G02*
X134950000Y-116725000I0J-75000D01*
G01*
X134950000Y-116875000D01*
G75*
G02*
X134875000Y-116950000I-75000J0D01*
G01*
X134225000Y-116950000D01*
G75*
G02*
X134150000Y-116875000I0J75000D01*
G01*
G37*
G36*
G01*
X135550000Y-118275000D02*
X135550000Y-117625000D01*
G75*
G02*
X135625000Y-117550000I75000J0D01*
G01*
X135775000Y-117550000D01*
G75*
G02*
X135850000Y-117625000I0J-75000D01*
G01*
X135850000Y-118275000D01*
G75*
G02*
X135775000Y-118350000I-75000J0D01*
G01*
X135625000Y-118350000D01*
G75*
G02*
X135550000Y-118275000I0J75000D01*
G01*
G37*
G36*
G01*
X136200000Y-118275000D02*
X136200000Y-117625000D01*
G75*
G02*
X136275000Y-117550000I75000J0D01*
G01*
X136425000Y-117550000D01*
G75*
G02*
X136500000Y-117625000I0J-75000D01*
G01*
X136500000Y-118275000D01*
G75*
G02*
X136425000Y-118350000I-75000J0D01*
G01*
X136275000Y-118350000D01*
G75*
G02*
X136200000Y-118275000I0J75000D01*
G01*
G37*
G36*
G01*
X136850000Y-118275000D02*
X136850000Y-117625000D01*
G75*
G02*
X136925000Y-117550000I75000J0D01*
G01*
X137075000Y-117550000D01*
G75*
G02*
X137150000Y-117625000I0J-75000D01*
G01*
X137150000Y-118275000D01*
G75*
G02*
X137075000Y-118350000I-75000J0D01*
G01*
X136925000Y-118350000D01*
G75*
G02*
X136850000Y-118275000I0J75000D01*
G01*
G37*
G36*
G01*
X137500000Y-118275000D02*
X137500000Y-117625000D01*
G75*
G02*
X137575000Y-117550000I75000J0D01*
G01*
X137725000Y-117550000D01*
G75*
G02*
X137800000Y-117625000I0J-75000D01*
G01*
X137800000Y-118275000D01*
G75*
G02*
X137725000Y-118350000I-75000J0D01*
G01*
X137575000Y-118350000D01*
G75*
G02*
X137500000Y-118275000I0J75000D01*
G01*
G37*
G36*
G01*
X138150000Y-118275000D02*
X138150000Y-117625000D01*
G75*
G02*
X138225000Y-117550000I75000J0D01*
G01*
X138375000Y-117550000D01*
G75*
G02*
X138450000Y-117625000I0J-75000D01*
G01*
X138450000Y-118275000D01*
G75*
G02*
X138375000Y-118350000I-75000J0D01*
G01*
X138225000Y-118350000D01*
G75*
G02*
X138150000Y-118275000I0J75000D01*
G01*
G37*
G36*
G01*
X139050000Y-116875000D02*
X139050000Y-116725000D01*
G75*
G02*
X139125000Y-116650000I75000J0D01*
G01*
X139775000Y-116650000D01*
G75*
G02*
X139850000Y-116725000I0J-75000D01*
G01*
X139850000Y-116875000D01*
G75*
G02*
X139775000Y-116950000I-75000J0D01*
G01*
X139125000Y-116950000D01*
G75*
G02*
X139050000Y-116875000I0J75000D01*
G01*
G37*
G36*
G01*
X139050000Y-116225000D02*
X139050000Y-116075000D01*
G75*
G02*
X139125000Y-116000000I75000J0D01*
G01*
X139775000Y-116000000D01*
G75*
G02*
X139850000Y-116075000I0J-75000D01*
G01*
X139850000Y-116225000D01*
G75*
G02*
X139775000Y-116300000I-75000J0D01*
G01*
X139125000Y-116300000D01*
G75*
G02*
X139050000Y-116225000I0J75000D01*
G01*
G37*
G36*
G01*
X139050000Y-115575000D02*
X139050000Y-115425000D01*
G75*
G02*
X139125000Y-115350000I75000J0D01*
G01*
X139775000Y-115350000D01*
G75*
G02*
X139850000Y-115425000I0J-75000D01*
G01*
X139850000Y-115575000D01*
G75*
G02*
X139775000Y-115650000I-75000J0D01*
G01*
X139125000Y-115650000D01*
G75*
G02*
X139050000Y-115575000I0J75000D01*
G01*
G37*
G36*
G01*
X139050000Y-114925000D02*
X139050000Y-114775000D01*
G75*
G02*
X139125000Y-114700000I75000J0D01*
G01*
X139775000Y-114700000D01*
G75*
G02*
X139850000Y-114775000I0J-75000D01*
G01*
X139850000Y-114925000D01*
G75*
G02*
X139775000Y-115000000I-75000J0D01*
G01*
X139125000Y-115000000D01*
G75*
G02*
X139050000Y-114925000I0J75000D01*
G01*
G37*
G36*
G01*
X139050000Y-114275000D02*
X139050000Y-114125000D01*
G75*
G02*
X139125000Y-114050000I75000J0D01*
G01*
X139775000Y-114050000D01*
G75*
G02*
X139850000Y-114125000I0J-75000D01*
G01*
X139850000Y-114275000D01*
G75*
G02*
X139775000Y-114350000I-75000J0D01*
G01*
X139125000Y-114350000D01*
G75*
G02*
X139050000Y-114275000I0J75000D01*
G01*
G37*
G36*
G01*
X138150000Y-113375000D02*
X138150000Y-112725000D01*
G75*
G02*
X138225000Y-112650000I75000J0D01*
G01*
X138375000Y-112650000D01*
G75*
G02*
X138450000Y-112725000I0J-75000D01*
G01*
X138450000Y-113375000D01*
G75*
G02*
X138375000Y-113450000I-75000J0D01*
G01*
X138225000Y-113450000D01*
G75*
G02*
X138150000Y-113375000I0J75000D01*
G01*
G37*
G36*
G01*
X137500000Y-113375000D02*
X137500000Y-112725000D01*
G75*
G02*
X137575000Y-112650000I75000J0D01*
G01*
X137725000Y-112650000D01*
G75*
G02*
X137800000Y-112725000I0J-75000D01*
G01*
X137800000Y-113375000D01*
G75*
G02*
X137725000Y-113450000I-75000J0D01*
G01*
X137575000Y-113450000D01*
G75*
G02*
X137500000Y-113375000I0J75000D01*
G01*
G37*
G36*
G01*
X136850000Y-113375000D02*
X136850000Y-112725000D01*
G75*
G02*
X136925000Y-112650000I75000J0D01*
G01*
X137075000Y-112650000D01*
G75*
G02*
X137150000Y-112725000I0J-75000D01*
G01*
X137150000Y-113375000D01*
G75*
G02*
X137075000Y-113450000I-75000J0D01*
G01*
X136925000Y-113450000D01*
G75*
G02*
X136850000Y-113375000I0J75000D01*
G01*
G37*
G36*
G01*
X136200000Y-113375000D02*
X136200000Y-112725000D01*
G75*
G02*
X136275000Y-112650000I75000J0D01*
G01*
X136425000Y-112650000D01*
G75*
G02*
X136500000Y-112725000I0J-75000D01*
G01*
X136500000Y-113375000D01*
G75*
G02*
X136425000Y-113450000I-75000J0D01*
G01*
X136275000Y-113450000D01*
G75*
G02*
X136200000Y-113375000I0J75000D01*
G01*
G37*
G36*
G01*
X135550000Y-113375000D02*
X135550000Y-112725000D01*
G75*
G02*
X135625000Y-112650000I75000J0D01*
G01*
X135775000Y-112650000D01*
G75*
G02*
X135850000Y-112725000I0J-75000D01*
G01*
X135850000Y-113375000D01*
G75*
G02*
X135775000Y-113450000I-75000J0D01*
G01*
X135625000Y-113450000D01*
G75*
G02*
X135550000Y-113375000I0J75000D01*
G01*
G37*
X137000000Y-115500000D03*
%TD*%
%TO.C,U8*%
X157000000Y-115500000D03*
G36*
G01*
X155550000Y-113375000D02*
X155550000Y-112725000D01*
G75*
G02*
X155625000Y-112650000I75000J0D01*
G01*
X155775000Y-112650000D01*
G75*
G02*
X155850000Y-112725000I0J-75000D01*
G01*
X155850000Y-113375000D01*
G75*
G02*
X155775000Y-113450000I-75000J0D01*
G01*
X155625000Y-113450000D01*
G75*
G02*
X155550000Y-113375000I0J75000D01*
G01*
G37*
G36*
G01*
X156200000Y-113375000D02*
X156200000Y-112725000D01*
G75*
G02*
X156275000Y-112650000I75000J0D01*
G01*
X156425000Y-112650000D01*
G75*
G02*
X156500000Y-112725000I0J-75000D01*
G01*
X156500000Y-113375000D01*
G75*
G02*
X156425000Y-113450000I-75000J0D01*
G01*
X156275000Y-113450000D01*
G75*
G02*
X156200000Y-113375000I0J75000D01*
G01*
G37*
G36*
G01*
X156850000Y-113375000D02*
X156850000Y-112725000D01*
G75*
G02*
X156925000Y-112650000I75000J0D01*
G01*
X157075000Y-112650000D01*
G75*
G02*
X157150000Y-112725000I0J-75000D01*
G01*
X157150000Y-113375000D01*
G75*
G02*
X157075000Y-113450000I-75000J0D01*
G01*
X156925000Y-113450000D01*
G75*
G02*
X156850000Y-113375000I0J75000D01*
G01*
G37*
G36*
G01*
X157500000Y-113375000D02*
X157500000Y-112725000D01*
G75*
G02*
X157575000Y-112650000I75000J0D01*
G01*
X157725000Y-112650000D01*
G75*
G02*
X157800000Y-112725000I0J-75000D01*
G01*
X157800000Y-113375000D01*
G75*
G02*
X157725000Y-113450000I-75000J0D01*
G01*
X157575000Y-113450000D01*
G75*
G02*
X157500000Y-113375000I0J75000D01*
G01*
G37*
G36*
G01*
X158150000Y-113375000D02*
X158150000Y-112725000D01*
G75*
G02*
X158225000Y-112650000I75000J0D01*
G01*
X158375000Y-112650000D01*
G75*
G02*
X158450000Y-112725000I0J-75000D01*
G01*
X158450000Y-113375000D01*
G75*
G02*
X158375000Y-113450000I-75000J0D01*
G01*
X158225000Y-113450000D01*
G75*
G02*
X158150000Y-113375000I0J75000D01*
G01*
G37*
G36*
G01*
X159050000Y-114275000D02*
X159050000Y-114125000D01*
G75*
G02*
X159125000Y-114050000I75000J0D01*
G01*
X159775000Y-114050000D01*
G75*
G02*
X159850000Y-114125000I0J-75000D01*
G01*
X159850000Y-114275000D01*
G75*
G02*
X159775000Y-114350000I-75000J0D01*
G01*
X159125000Y-114350000D01*
G75*
G02*
X159050000Y-114275000I0J75000D01*
G01*
G37*
G36*
G01*
X159050000Y-114925000D02*
X159050000Y-114775000D01*
G75*
G02*
X159125000Y-114700000I75000J0D01*
G01*
X159775000Y-114700000D01*
G75*
G02*
X159850000Y-114775000I0J-75000D01*
G01*
X159850000Y-114925000D01*
G75*
G02*
X159775000Y-115000000I-75000J0D01*
G01*
X159125000Y-115000000D01*
G75*
G02*
X159050000Y-114925000I0J75000D01*
G01*
G37*
G36*
G01*
X159050000Y-115575000D02*
X159050000Y-115425000D01*
G75*
G02*
X159125000Y-115350000I75000J0D01*
G01*
X159775000Y-115350000D01*
G75*
G02*
X159850000Y-115425000I0J-75000D01*
G01*
X159850000Y-115575000D01*
G75*
G02*
X159775000Y-115650000I-75000J0D01*
G01*
X159125000Y-115650000D01*
G75*
G02*
X159050000Y-115575000I0J75000D01*
G01*
G37*
G36*
G01*
X159050000Y-116225000D02*
X159050000Y-116075000D01*
G75*
G02*
X159125000Y-116000000I75000J0D01*
G01*
X159775000Y-116000000D01*
G75*
G02*
X159850000Y-116075000I0J-75000D01*
G01*
X159850000Y-116225000D01*
G75*
G02*
X159775000Y-116300000I-75000J0D01*
G01*
X159125000Y-116300000D01*
G75*
G02*
X159050000Y-116225000I0J75000D01*
G01*
G37*
G36*
G01*
X159050000Y-116875000D02*
X159050000Y-116725000D01*
G75*
G02*
X159125000Y-116650000I75000J0D01*
G01*
X159775000Y-116650000D01*
G75*
G02*
X159850000Y-116725000I0J-75000D01*
G01*
X159850000Y-116875000D01*
G75*
G02*
X159775000Y-116950000I-75000J0D01*
G01*
X159125000Y-116950000D01*
G75*
G02*
X159050000Y-116875000I0J75000D01*
G01*
G37*
G36*
G01*
X158150000Y-118275000D02*
X158150000Y-117625000D01*
G75*
G02*
X158225000Y-117550000I75000J0D01*
G01*
X158375000Y-117550000D01*
G75*
G02*
X158450000Y-117625000I0J-75000D01*
G01*
X158450000Y-118275000D01*
G75*
G02*
X158375000Y-118350000I-75000J0D01*
G01*
X158225000Y-118350000D01*
G75*
G02*
X158150000Y-118275000I0J75000D01*
G01*
G37*
G36*
G01*
X157500000Y-118275000D02*
X157500000Y-117625000D01*
G75*
G02*
X157575000Y-117550000I75000J0D01*
G01*
X157725000Y-117550000D01*
G75*
G02*
X157800000Y-117625000I0J-75000D01*
G01*
X157800000Y-118275000D01*
G75*
G02*
X157725000Y-118350000I-75000J0D01*
G01*
X157575000Y-118350000D01*
G75*
G02*
X157500000Y-118275000I0J75000D01*
G01*
G37*
G36*
G01*
X156850000Y-118275000D02*
X156850000Y-117625000D01*
G75*
G02*
X156925000Y-117550000I75000J0D01*
G01*
X157075000Y-117550000D01*
G75*
G02*
X157150000Y-117625000I0J-75000D01*
G01*
X157150000Y-118275000D01*
G75*
G02*
X157075000Y-118350000I-75000J0D01*
G01*
X156925000Y-118350000D01*
G75*
G02*
X156850000Y-118275000I0J75000D01*
G01*
G37*
G36*
G01*
X156200000Y-118275000D02*
X156200000Y-117625000D01*
G75*
G02*
X156275000Y-117550000I75000J0D01*
G01*
X156425000Y-117550000D01*
G75*
G02*
X156500000Y-117625000I0J-75000D01*
G01*
X156500000Y-118275000D01*
G75*
G02*
X156425000Y-118350000I-75000J0D01*
G01*
X156275000Y-118350000D01*
G75*
G02*
X156200000Y-118275000I0J75000D01*
G01*
G37*
G36*
G01*
X155550000Y-118275000D02*
X155550000Y-117625000D01*
G75*
G02*
X155625000Y-117550000I75000J0D01*
G01*
X155775000Y-117550000D01*
G75*
G02*
X155850000Y-117625000I0J-75000D01*
G01*
X155850000Y-118275000D01*
G75*
G02*
X155775000Y-118350000I-75000J0D01*
G01*
X155625000Y-118350000D01*
G75*
G02*
X155550000Y-118275000I0J75000D01*
G01*
G37*
G36*
G01*
X154150000Y-116875000D02*
X154150000Y-116725000D01*
G75*
G02*
X154225000Y-116650000I75000J0D01*
G01*
X154875000Y-116650000D01*
G75*
G02*
X154950000Y-116725000I0J-75000D01*
G01*
X154950000Y-116875000D01*
G75*
G02*
X154875000Y-116950000I-75000J0D01*
G01*
X154225000Y-116950000D01*
G75*
G02*
X154150000Y-116875000I0J75000D01*
G01*
G37*
G36*
G01*
X154150000Y-116225000D02*
X154150000Y-116075000D01*
G75*
G02*
X154225000Y-116000000I75000J0D01*
G01*
X154875000Y-116000000D01*
G75*
G02*
X154950000Y-116075000I0J-75000D01*
G01*
X154950000Y-116225000D01*
G75*
G02*
X154875000Y-116300000I-75000J0D01*
G01*
X154225000Y-116300000D01*
G75*
G02*
X154150000Y-116225000I0J75000D01*
G01*
G37*
G36*
G01*
X154150000Y-115575000D02*
X154150000Y-115425000D01*
G75*
G02*
X154225000Y-115350000I75000J0D01*
G01*
X154875000Y-115350000D01*
G75*
G02*
X154950000Y-115425000I0J-75000D01*
G01*
X154950000Y-115575000D01*
G75*
G02*
X154875000Y-115650000I-75000J0D01*
G01*
X154225000Y-115650000D01*
G75*
G02*
X154150000Y-115575000I0J75000D01*
G01*
G37*
G36*
G01*
X154150000Y-114925000D02*
X154150000Y-114775000D01*
G75*
G02*
X154225000Y-114700000I75000J0D01*
G01*
X154875000Y-114700000D01*
G75*
G02*
X154950000Y-114775000I0J-75000D01*
G01*
X154950000Y-114925000D01*
G75*
G02*
X154875000Y-115000000I-75000J0D01*
G01*
X154225000Y-115000000D01*
G75*
G02*
X154150000Y-114925000I0J75000D01*
G01*
G37*
G36*
G01*
X154150000Y-114275000D02*
X154150000Y-114125000D01*
G75*
G02*
X154225000Y-114050000I75000J0D01*
G01*
X154875000Y-114050000D01*
G75*
G02*
X154950000Y-114125000I0J-75000D01*
G01*
X154950000Y-114275000D01*
G75*
G02*
X154875000Y-114350000I-75000J0D01*
G01*
X154225000Y-114350000D01*
G75*
G02*
X154150000Y-114275000I0J75000D01*
G01*
G37*
%TD*%
M02*
